<svg width="248" height="44" viewBox="0 0 248 44" fill="none" xmlns="http://www.w3.org/2000/svg">
<rect x="1" y="1" width="246" height="41.5556" rx="20.7778" fill="#FFE553" stroke="black" stroke-width="2"/>
<path d="M47.8578 16.9333H56.9956V18.8533H47.8578V16.9333ZM48.2311 20.5422H56.6044V22.4444H48.2311V20.5422ZM47.2889 24.24H57.28V26.1955H47.2889V24.24ZM51.2711 17.6088H53.3689V30.2666H51.2711V17.6088ZM54.4533 13.52L56.5333 14.1422C55.9644 15.2622 55.3778 16.4355 54.88 17.2177L53.2267 16.6666C53.6533 15.8133 54.1867 14.48 54.4533 13.52ZM48.4089 14.2844L50.1333 13.6444C50.6844 14.5688 51.2 15.7777 51.3956 16.5955L49.5644 17.3066C49.4044 16.4888 48.9244 15.2266 48.4089 14.2844ZM41.3867 19.0311H46.88V20.6311H41.3867V19.0311ZM41.44 14.1244H46.8444V15.7422H41.44V14.1244ZM41.3867 21.4488H46.88V23.0666H41.3867V21.4488ZM40.5156 16.5244H47.52V18.2133H40.5156V16.5244ZM42.3644 23.92H46.8622V29.3244H42.3644V27.6355H45.0311V25.6088H42.3644V23.92ZM41.3333 23.92H43.1289V30.0355H41.3333V23.92ZM69.0844 15.7422H70.9511V28.3111H69.0844V15.7422ZM65.7244 14.9066H74.4711V29.8577H72.48V16.88H67.6267V30H65.7244V14.9066ZM66.7733 21.0044H73.2622V22.9244H66.7733V21.0044ZM66.7733 27.1022H73.2444V29.04H66.7733V27.1022ZM61.0489 22.3022H62.9333V30.2488H61.0489V22.3022ZM60.9956 13.5555L62.88 14.2666C62.1511 15.6533 61.2978 17.2177 60.6222 18.2311L59.1644 17.5911C59.8222 16.5244 60.5867 14.8 60.9956 13.5555ZM63.1467 15.7066L64.8889 16.5422C63.5733 18.5511 61.8489 21.0044 60.4622 22.5155L59.2178 21.8044C60.5689 20.2044 62.2044 17.6266 63.1467 15.7066ZM58.24 17.7511L59.2356 16.2755C60.16 17.0755 61.28 18.1955 61.7422 18.9777L60.6578 20.6488C60.2311 19.8133 59.1467 18.5866 58.24 17.7511ZM62.7378 19.9377L64.2844 19.2622C65.0133 20.4533 65.7422 22 65.9733 23.0133L64.32 23.7955C64.1067 22.7822 63.4311 21.1644 62.7378 19.9377ZM58.1867 21.3422C59.84 21.2533 62.2756 21.0755 64.6578 20.8977L64.6933 22.5688C62.5067 22.8 60.2489 23.0311 58.4889 23.2266L58.1867 21.3422ZM62.9867 24.4533L64.5867 23.92C65.0489 25.0044 65.5289 26.4266 65.76 27.3511L64.0533 27.9555C63.8933 27.0133 63.4133 25.5555 62.9867 24.4533ZM59.0044 23.9911L60.7644 24.3111C60.5867 26 60.1956 27.7777 59.6978 28.9155C59.3244 28.6844 58.5244 28.3111 58.08 28.1511C58.5778 27.1022 58.8622 25.5022 59.0044 23.9911ZM88.3911 17.7866C88.3911 18.4088 88.9067 18.9244 89.5289 18.9244C90.1511 18.9244 90.6489 18.4088 90.6489 17.7866C90.6489 17.1644 90.1511 16.6666 89.5289 16.6666C88.9067 16.6666 88.3911 17.1644 88.3911 17.7866ZM87.2178 17.7866C87.2178 16.5066 88.2489 15.4755 89.5289 15.4755C90.8089 15.4755 91.84 16.5066 91.84 17.7866C91.84 19.0666 90.8089 20.0977 89.5289 20.0977C88.2489 20.0977 87.2178 19.0666 87.2178 17.7866ZM76.1778 23.6177C76.6933 23.1733 77.0844 22.8 77.6356 22.2488C78.4356 21.4488 79.8222 19.7066 81.0489 18.2488C82.1156 16.9866 83.1644 16.7911 84.5333 18.0888C85.7422 19.2266 87.0933 20.6311 88.16 21.7866C89.3511 23.0666 91.1822 25.0222 92.5511 26.48L90.5778 28.5955C89.3867 27.12 87.8933 25.2711 86.8444 24.0444C85.7956 22.8177 84.2311 21.0933 83.5911 20.4355C83.0044 19.8666 82.6311 19.9022 82.1333 20.5422C81.4222 21.4488 80.1778 23.1911 79.4489 24.1688C79.04 24.72 78.6311 25.36 78.3111 25.8222L76.1778 23.6177ZM94.9511 20.4355C95.6089 20.4888 96.8889 20.56 97.8133 20.56C99.9111 20.56 105.778 20.56 107.36 20.56C108.196 20.56 108.978 20.4711 109.458 20.4355V23.2444C109.031 23.2266 108.124 23.1377 107.378 23.1377C105.76 23.1377 99.9111 23.1377 97.8133 23.1377C96.8178 23.1377 95.6267 23.1911 94.9511 23.2444V20.4355ZM123.724 15.0311C124.222 15.7777 124.951 16.9511 125.342 17.7688L123.813 18.4444C123.279 17.3244 122.888 16.56 122.231 15.6355L123.724 15.0311ZM126.177 14.16C126.728 14.8711 127.422 16.0444 127.848 16.8266L126.319 17.5022C125.751 16.3822 125.324 15.6888 124.666 14.8L126.177 14.16ZM116.008 14.6755C117.182 15.3155 119.137 16.5777 120.062 17.2177L118.728 19.1911C117.751 18.4977 115.884 17.2888 114.711 16.6311L116.008 14.6755ZM112.719 27.2977C114.693 26.96 116.826 26.3733 118.764 25.3066C121.786 23.6177 124.257 21.1822 125.679 18.64L127.048 21.0577C125.395 23.5111 122.888 25.7688 119.973 27.44C118.177 28.4711 115.617 29.36 114.053 29.6444L112.719 27.2977ZM113.271 18.7288C114.462 19.3688 116.417 20.5955 117.324 21.2355L116.026 23.2266C115.013 22.5333 113.182 21.3244 111.973 20.7022L113.271 18.7288ZM129.199 23.3866C129.733 22.96 130.159 22.5511 130.693 22C131.528 21.1466 132.879 19.3155 133.999 18.0355C135.244 16.6133 136.382 16.4888 137.679 17.7511C138.906 18.9244 140.311 20.7555 141.359 21.9111C142.497 23.1555 144.026 24.7377 145.715 26.2488L143.866 28.3822C142.604 27.1733 141.093 25.4666 139.955 24.1333C138.853 22.8355 137.519 21.1288 136.702 20.1866C136.062 19.5111 135.724 19.6 135.208 20.24C134.497 21.1466 133.253 22.9066 132.488 23.92C132.079 24.4888 131.671 25.1288 131.351 25.5911L129.199 23.3866Z" fill="black"/>
<path d="M162.425 31.9511C161.097 31.9511 159.931 31.7046 158.926 31.2115C157.94 30.6995 157.172 29.9884 156.622 29.0782C156.091 28.149 155.826 27.0586 155.826 25.8071V16.7617C155.826 15.4912 156.091 14.4008 156.622 13.4906C157.172 12.5804 157.94 11.8788 158.926 11.3857C159.931 10.8737 161.097 10.6177 162.425 10.6177C163.771 10.6177 164.928 10.8737 165.895 11.3857C166.881 11.8788 167.649 12.5804 168.199 13.4906C168.749 14.4008 169.024 15.4912 169.024 16.7617H165.44C165.44 15.7757 165.175 15.0266 164.644 14.5146C164.132 14.0026 163.392 13.7466 162.425 13.7466C161.458 13.7466 160.709 14.0026 160.178 14.5146C159.647 15.0266 159.381 15.7662 159.381 16.7333V25.8071C159.381 26.7742 159.647 27.5232 160.178 28.0542C160.709 28.5851 161.458 28.8506 162.425 28.8506C163.392 28.8506 164.132 28.5851 164.644 28.0542C165.175 27.5232 165.44 26.7742 165.44 25.8071V23.7022H161.913V20.6302H169.024V25.8071C169.024 27.0586 168.749 28.149 168.199 29.0782C167.649 29.9884 166.881 30.6995 165.895 31.2115C164.928 31.7046 163.771 31.9511 162.425 31.9511ZM179.367 31.9511C178.039 31.9511 176.883 31.7046 175.896 31.2115C174.929 30.6995 174.18 29.9884 173.649 29.0782C173.137 28.149 172.881 27.0586 172.881 25.8071V16.7617C172.881 15.5102 173.137 14.4293 173.649 13.5191C174.18 12.5899 174.929 11.8788 175.896 11.3857C176.883 10.8737 178.039 10.6177 179.367 10.6177C180.713 10.6177 181.87 10.8737 182.837 11.3857C183.804 11.8788 184.544 12.5899 185.056 13.5191C185.587 14.4293 185.852 15.5007 185.852 16.7333V25.8071C185.852 27.0586 185.587 28.149 185.056 29.0782C184.544 29.9884 183.804 30.6995 182.837 31.2115C181.87 31.7046 180.713 31.9511 179.367 31.9511ZM179.367 28.8222C180.334 28.8222 181.064 28.5662 181.557 28.0542C182.05 27.5232 182.296 26.7742 182.296 25.8071V16.7617C182.296 15.7757 182.05 15.0266 181.557 14.5146C181.064 14.0026 180.334 13.7466 179.367 13.7466C178.4 13.7466 177.669 14.0026 177.176 14.5146C176.683 15.0266 176.437 15.7757 176.437 16.7617V25.8071C176.437 26.7742 176.683 27.5232 177.176 28.0542C177.688 28.5662 178.419 28.8222 179.367 28.8222ZM195.114 25.0391L194.488 14.8275V10.9022H198.356V14.8275L197.731 25.0391H195.114ZM195.996 31.8088C195.408 31.8088 194.934 31.6382 194.573 31.2968C194.213 30.9366 194.033 30.4814 194.033 29.9315C194.033 29.3816 194.213 28.936 194.573 28.5946C194.934 28.2343 195.408 28.0542 195.996 28.0542H196.849C197.456 28.0542 197.93 28.2248 198.271 28.5662C198.631 28.9075 198.812 29.3626 198.812 29.9315C198.812 30.4814 198.631 30.9366 198.271 31.2968C197.911 31.6382 197.427 31.8088 196.82 31.8088H195.996ZM211.572 30.6711L216.18 24.84C216.37 24.5934 216.588 24.3564 216.834 24.1288C217.081 23.8823 217.289 23.6927 217.46 23.56V23.304C217.213 23.3229 216.901 23.3514 216.521 23.3893C216.142 23.4083 215.791 23.4177 215.469 23.4177H206.082V21.1422H215.469C215.791 21.1422 216.142 21.1611 216.521 21.1991C216.901 21.218 217.213 21.2465 217.46 21.2844V21.0284C217.327 20.9146 217.138 20.7345 216.891 20.488C216.664 20.2414 216.427 19.976 216.18 19.6915L211.572 13.8888H214.559L221.158 22.28L214.587 30.6711H211.572Z" fill="black"/>
</svg>
