<svg width="32" height="32" viewBox="0 0 32 32" fill="none" xmlns="http://www.w3.org/2000/svg">
<g clip-path="url(#clip0_641_30)">
<path d="M22.689 0H9.31102C4.31645 0 0.267578 4.04888 0.267578 9.04344V22.9566C0.267578 27.9511 4.31645 32 9.31102 32H22.689C27.6836 32 31.7324 27.9511 31.7324 22.9566V9.04344C31.7325 4.04888 27.6836 0 22.689 0ZM3.47827 9.04344C3.47827 5.82713 6.0947 3.21069 9.31102 3.21069H22.689C25.9053 3.21069 28.5217 5.82713 28.5217 9.04344V22.9566C28.5217 26.1729 25.9053 28.7893 22.689 28.7893H9.31102C6.0947 28.7893 3.47827 26.1729 3.47827 22.9566V9.04344Z" fill="#231815"/>
<path d="M16.0001 24.2407C20.544 24.2407 24.2408 20.5439 24.2408 16C24.2408 11.456 20.544 7.75903 16.0001 7.75903C11.4562 7.75903 7.7594 11.456 7.7594 16C7.7594 20.5439 11.4561 24.2407 16.0001 24.2407ZM16.0001 10.3276C19.1278 10.3276 21.6722 12.8722 21.6722 16C21.6722 19.1277 19.1278 21.6723 16.0001 21.6723C12.8725 21.6723 10.328 19.1277 10.328 16C10.328 12.8722 12.8724 10.3276 16.0001 10.3276Z" fill="#231815"/>
<path d="M24.4817 9.36487C25.5013 9.36487 26.3279 8.53824 26.3279 7.51855C26.3279 6.49886 25.5013 5.67224 24.4817 5.67224C23.4621 5.67224 22.6355 6.49886 22.6355 7.51855C22.6355 8.53824 23.4621 9.36487 24.4817 9.36487Z" fill="#231815"/>
</g>
<defs>
<clipPath id="clip0_641_30">
<rect width="32" height="32" fill="white"/>
</clipPath>
</defs>
</svg>
