<svg width="633" height="827" viewBox="0 0 633 827" fill="none" xmlns="http://www.w3.org/2000/svg">
<path d="M185.321 156.922L67.9331 166.56L78.0795 290.139L37.7172 293.453L14.999 16.7578L172.758 3.80492L175.629 38.777L111.202 127.791L182.458 121.941L185.329 156.913L185.321 156.922Z" fill="#FF8800" stroke="#231815" stroke-width="6" stroke-miterlimit="10"/>
<mask id="mask0_972_12" style="mask-type:alpha" maskUnits="userSpaceOnUse" x="11" y="0" width="178" height="297">
<path d="M185.321 156.922L67.9331 166.56L78.0795 290.139L37.7172 293.453L14.999 16.7578L172.758 3.80492L175.629 38.777L111.202 127.791L182.458 121.941L185.329 156.913L185.321 156.922Z" fill="#FF8800" stroke="#333333" stroke-width="6" stroke-miterlimit="10"/>
</mask>
<g mask="url(#mask0_972_12)">
<path d="M166.742 147.062L49.3537 156.701L59.5002 280.279L19.1379 283.593L-3.58032 6.89795L154.179 -6.05495L157.05 28.9172L92.623 117.931L163.878 112.081L166.75 147.053L166.742 147.062Z" stroke="white" stroke-width="5.30028" stroke-miterlimit="10"/>
</g>
<path d="M265.25 311.694C303.238 315.205 336.605 287.975 340.034 250.874L349.437 149.195L212.023 136.496L202.626 238.175C199.197 275.277 227.263 308.184 265.25 311.694Z" fill="#FFE553" stroke="#231815" stroke-width="6" stroke-miterlimit="10"/>
<path d="M525.601 81.744V274.484H378.788V78.4958L499.583 232.525V81.744H525.601Z" fill="#FF67B5" stroke="#231815" stroke-width="6" stroke-miterlimit="10"/>
<mask id="mask1_972_12" style="mask-type:luminance" maskUnits="userSpaceOnUse" x="382" y="77" width="144" height="195">
<path d="M525.233 81.0087V271.114H382.833V77.8049L499.996 229.729V81.0087H525.233Z" fill="white"/>
</mask>
<g mask="url(#mask1_972_12)">
<mask id="mask2_972_12" style="mask-type:alpha" maskUnits="userSpaceOnUse" x="312" y="182" width="163" height="165">
<ellipse cx="80.9484" cy="81.8911" rx="80.9484" ry="81.8911" transform="matrix(0.917146 -0.398551 0.387418 0.921904 287.778 221.235)" fill="#D9D9D9"/>
</mask>
<g mask="url(#mask2_972_12)">
<line y1="-1.24608" x2="225.88" y2="-1.24608" transform="matrix(0.917146 -0.398551 0.387418 0.921904 278.309 231.231)" stroke="white" stroke-width="2.49216"/>
<line y1="-1.24608" x2="225.88" y2="-1.24608" transform="matrix(0.917146 -0.398551 0.387418 0.921904 281.539 238.916)" stroke="white" stroke-width="2.49216"/>
<line y1="-1.24608" x2="225.88" y2="-1.24608" transform="matrix(0.917146 -0.398551 0.387418 0.921904 284.769 246.601)" stroke="white" stroke-width="2.49216"/>
<line y1="-1.24608" x2="225.88" y2="-1.24608" transform="matrix(0.917146 -0.398551 0.387418 0.921904 287.998 254.286)" stroke="white" stroke-width="2.49216"/>
<line y1="-1.24608" x2="225.88" y2="-1.24608" transform="matrix(0.917146 -0.398551 0.387418 0.921904 291.228 261.972)" stroke="white" stroke-width="2.49216"/>
<line y1="-1.24608" x2="225.88" y2="-1.24608" transform="matrix(0.917146 -0.398551 0.387418 0.921904 294.457 269.657)" stroke="white" stroke-width="2.49216"/>
<line y1="-1.24608" x2="225.88" y2="-1.24608" transform="matrix(0.917146 -0.398551 0.387418 0.921904 297.687 277.342)" stroke="white" stroke-width="2.49216"/>
<line y1="-1.24608" x2="225.88" y2="-1.24608" transform="matrix(0.917146 -0.398551 0.387418 0.921904 300.917 285.027)" stroke="white" stroke-width="2.49216"/>
<line y1="-1.24608" x2="225.88" y2="-1.24608" transform="matrix(0.917146 -0.398551 0.387418 0.921904 304.146 292.712)" stroke="white" stroke-width="2.49216"/>
<line y1="-1.24608" x2="225.88" y2="-1.24608" transform="matrix(0.917146 -0.398551 0.387418 0.921904 307.376 300.398)" stroke="white" stroke-width="2.49216"/>
<line y1="-1.24608" x2="225.88" y2="-1.24608" transform="matrix(0.917146 -0.398551 0.387418 0.921904 310.605 308.083)" stroke="white" stroke-width="2.49216"/>
<line y1="-1.24608" x2="225.88" y2="-1.24608" transform="matrix(0.917146 -0.398551 0.387418 0.921904 313.835 315.768)" stroke="white" stroke-width="2.49216"/>
<line y1="-1.24608" x2="225.88" y2="-1.24608" transform="matrix(0.917146 -0.398551 0.387418 0.921904 317.065 323.453)" stroke="white" stroke-width="2.49216"/>
<line y1="-1.24608" x2="225.88" y2="-1.24608" transform="matrix(0.917146 -0.398551 0.387418 0.921904 320.294 331.138)" stroke="white" stroke-width="2.49216"/>
<line y1="-1.24608" x2="225.88" y2="-1.24608" transform="matrix(0.917146 -0.398551 0.387418 0.921904 323.524 338.824)" stroke="white" stroke-width="2.49216"/>
<line y1="-1.24608" x2="225.88" y2="-1.24608" transform="matrix(0.917146 -0.398551 0.387418 0.921904 326.753 346.509)" stroke="white" stroke-width="2.49216"/>
<line y1="-1.24608" x2="225.88" y2="-1.24608" transform="matrix(0.917146 -0.398551 0.387418 0.921904 329.983 354.194)" stroke="white" stroke-width="2.49216"/>
<line y1="-1.24608" x2="225.88" y2="-1.24608" transform="matrix(0.917146 -0.398551 0.387418 0.921904 333.213 361.879)" stroke="white" stroke-width="2.49216"/>
</g>
</g>
<path d="M175.434 338.087L174.552 362.084L133.968 360.592L127.87 526.437L57.2937 523.842L63.3923 357.997L22.5184 356.494L23.4009 332.496L175.434 338.087Z" fill="#FF67B5" stroke="#231815" stroke-width="6" stroke-miterlimit="10"/>
<path d="M222.128 396.322L326.324 551.938L155.86 571.624L222.128 396.322Z" fill="#8F96FC" stroke="#231815" stroke-width="6" stroke-miterlimit="10"/>
<mask id="mask3_972_12" style="mask-type:alpha" maskUnits="userSpaceOnUse" x="151" y="389" width="181" height="187">
<path d="M222.128 396.322L326.324 551.938L155.86 571.624L222.128 396.322Z" fill="#8F96FC" stroke="#333333" stroke-width="6" stroke-miterlimit="10"/>
</mask>
<g mask="url(#mask3_972_12)">
<path d="M206.207 407.632L310.403 563.247L139.939 582.933L206.207 407.632Z" stroke="white" stroke-width="6" stroke-miterlimit="10"/>
</g>
<path d="M486.984 504.582C485.104 541.685 447.52 560.017 409.015 558.066C390.9 557.148 353.292 550.181 341.352 536.186L409.053 461.351C382.155 448.08 352.357 427.823 353.996 395.472C355.891 358.072 391.495 340.529 430.316 342.497C454.908 343.743 479.479 351.835 500.261 364.196C430.963 438.653 431.287 438.67 431.287 438.67C460.203 450.553 488.654 471.632 486.984 504.582Z" fill="#FF8800" stroke="#231815" stroke-width="6" stroke-miterlimit="10"/>
<path d="M581.338 575.695L544.363 572.183L561.327 393.597L598.301 397.109L581.338 575.695Z" fill="#FFE553" stroke="#231815" stroke-width="6" stroke-miterlimit="10"/>
<path d="M595.122 294.894C592.259 306.787 579.746 313.717 566.785 310.597C554.122 307.549 546.139 295.677 549.001 283.791C551.8 272.176 564.313 265.246 576.969 268.294C589.93 271.413 597.921 283.278 595.122 294.894ZM629.371 115.611L599.83 108.496L564.94 253.388L594.481 260.503L629.371 115.611Z" fill="#00ADAB" stroke="#231815" stroke-width="6" stroke-miterlimit="10"/>
<path d="M158.247 737.147C166.549 799.379 65.0632 818.958 20.2555 795.186L73.0175 711.376C-58.1673 679.157 18.6037 559.626 144.8 601.93C90.384 685.69 90.7109 685.645 90.7109 685.645C121.546 691.279 153.669 705.699 158.255 737.154L158.247 737.147Z" fill="#FFE553" stroke="#231815" stroke-width="6.48235" stroke-miterlimit="10"/>
<path d="M307.905 652.496V674.131H271.741V823.664H208.848V674.131H172.42V652.496H307.905Z" fill="#FF8800" stroke="#231815" stroke-width="6" stroke-miterlimit="10"/>
<path d="M445.909 614.702L503.831 798.917L325.778 766.071L445.909 614.702Z" fill="#00ADAB" stroke="#231815" stroke-width="6" stroke-miterlimit="10"/>
<mask id="mask4_972_12" style="mask-type:alpha" maskUnits="userSpaceOnUse" x="325" y="615" width="174" height="180">
<path d="M440.899 621.624L494.168 791.038L330.42 760.831L440.899 621.624Z" fill="#00ADAB" stroke="#333333" stroke-width="5.51793" stroke-miterlimit="10"/>
</mask>
<g mask="url(#mask4_972_12)">
<mask id="mask5_972_12" style="mask-type:alpha" maskUnits="userSpaceOnUse" x="353" y="727" width="172" height="173">
<circle cx="439.029" cy="813.105" r="85.9446" transform="rotate(-25.8339 439.029 813.105)" fill="#D9D9D9"/>
</mask>
<g mask="url(#mask5_972_12)">
<line x1="314.085" y1="782.969" x2="529.939" y2="678.464" stroke="white" stroke-width="2.57319"/>
<line x1="317.897" y1="790.844" x2="533.751" y2="686.338" stroke="white" stroke-width="2.57319"/>
<line x1="321.71" y1="798.718" x2="537.564" y2="694.213" stroke="white" stroke-width="2.57319"/>
<line x1="325.522" y1="806.593" x2="541.376" y2="702.087" stroke="white" stroke-width="2.57319"/>
<line x1="329.335" y1="814.467" x2="545.189" y2="709.962" stroke="white" stroke-width="2.57319"/>
<line x1="333.147" y1="822.342" x2="549.001" y2="717.836" stroke="white" stroke-width="2.57319"/>
<line x1="336.96" y1="830.216" x2="552.814" y2="725.711" stroke="white" stroke-width="2.57319"/>
<line x1="340.772" y1="838.091" x2="556.626" y2="733.585" stroke="white" stroke-width="2.57319"/>
<line x1="344.584" y1="845.965" x2="560.438" y2="741.46" stroke="white" stroke-width="2.57319"/>
<line x1="348.397" y1="853.84" x2="564.251" y2="749.334" stroke="white" stroke-width="2.57319"/>
<line x1="352.209" y1="861.714" x2="568.063" y2="757.209" stroke="white" stroke-width="2.57319"/>
<line x1="356.022" y1="869.589" x2="571.876" y2="765.083" stroke="white" stroke-width="2.57319"/>
<line x1="359.834" y1="877.463" x2="575.688" y2="772.958" stroke="white" stroke-width="2.57319"/>
<line x1="363.647" y1="885.338" x2="579.501" y2="780.832" stroke="white" stroke-width="2.57319"/>
<line x1="367.459" y1="893.212" x2="583.313" y2="788.707" stroke="white" stroke-width="2.57319"/>
</g>
</g>
</svg>
