<svg viewBox="0 0 334 397" fill="none" xmlns="http://www.w3.org/2000/svg">
<path d="M86.3642 79.7918H32.9738V134.945H14.614V11.4596H86.3606V27.0683L53.9528 64.1831H86.3606V79.7918H86.3642Z" fill="#EFEFEF" stroke="#231815" stroke-width="1.42" stroke-miterlimit="10"/>
<path d="M78.7037 72.4292H25.3132V127.582H6.95337V4.09705H78.7V19.7057L46.2922 56.8205H78.7V72.4292H78.7037Z" fill="#F08327" stroke="#231815" stroke-width="1.42" stroke-miterlimit="10"/>
<path d="M78.7037 69.4842H25.3132V124.637H6.95337V1.15201H78.7V16.7607L46.2922 53.8755H78.7V69.4842H78.7037Z" stroke="white" stroke-width="1.42" stroke-miterlimit="10"/>
<path d="M174.162 39.235V97.0423C174.162 118.136 156.925 135.225 135.527 135.225C114.128 135.225 96.7461 118.136 96.7461 97.0423V39.235H174.162Z" fill="#EFEFEF" stroke="#231815" stroke-width="1.42" stroke-miterlimit="10"/>
<path d="M170.149 31.8724V89.6797C170.149 110.774 152.913 127.862 131.514 127.862C110.116 127.862 92.7334 110.774 92.7334 89.6797V31.8724H170.149Z" fill="#FFDF38" stroke="#231815" stroke-width="1.42" stroke-miterlimit="10"/>
<path d="M269.01 21.0421V130.538H186.36V19.194L254.364 106.702V21.0421H269.01Z" fill="#EFEFEF" stroke="#231815" stroke-width="1.42" stroke-miterlimit="10"/>
<path d="M275.212 9.99818V119.495H192.562V8.15016L260.565 95.6582V9.99818H275.212Z" fill="#EA68A2" stroke="#231815" stroke-width="1.42" stroke-miterlimit="10"/>
<path d="M306.624 123.688C305.241 129.486 299.193 132.869 292.929 131.345C286.812 129.857 282.953 124.07 284.335 118.269C285.688 112.603 291.733 109.224 297.85 110.711C304.114 112.235 307.973 118.022 306.62 123.688H306.624ZM323.178 36.2495L308.904 32.7817L292.039 103.451L306.314 106.919L323.178 36.2495Z" fill="#EFEFEF" stroke="#231815" stroke-width="1.42" stroke-miterlimit="10"/>
<path d="M316.108 119.27C314.726 125.068 308.677 128.451 302.414 126.927C296.296 125.44 292.437 119.653 293.82 113.851C295.173 108.186 301.217 104.806 307.335 106.293C313.598 107.817 317.458 113.604 316.105 119.27H316.108ZM332.662 31.8319L318.388 28.3641L301.524 99.0339L315.798 102.502L332.662 31.8319Z" fill="#00A4A1" stroke="#231815" stroke-width="1.42" stroke-miterlimit="10"/>
<path d="M100.303 152.03V165.871H77.1059V261.534H36.7676V165.871H13.4028V152.03H100.303Z" fill="#EFEFEF" stroke="#231815" stroke-width="1.42" stroke-miterlimit="10"/>
<path d="M141.046 164.594L189.074 258.832H92.8611L141.046 164.594Z" fill="#EFEFEF" stroke="#231815" stroke-width="1.42" stroke-miterlimit="10"/>
<path d="M273.833 230.184C273.833 250.096 254.39 260.926 233.918 260.926C224.284 260.926 204.155 258.217 197.442 251.049L231.335 209.156C216.711 202.784 200.364 192.749 200.364 175.388C200.364 155.317 218.775 144.965 239.419 144.965C252.493 144.965 265.742 148.628 277.098 154.68C242.344 196.411 242.516 196.411 242.516 196.411C258.172 201.985 273.829 212.499 273.829 230.18L273.833 230.184Z" fill="#EFEFEF" stroke="#231815" stroke-width="1.42" stroke-miterlimit="10"/>
<path d="M307.915 259.693H293.484V162.639H307.915V259.693Z" fill="#EFEFEF" stroke="#231815" stroke-width="1.42" stroke-miterlimit="10"/>
<path d="M96.7899 357.269C98.8437 391.052 44.0232 397.682 21.0561 383.178L52.355 340.136C-16.3202 317.773 29.1325 256.45 94.7653 284.037C62.5836 326.991 62.7588 326.976 62.7588 326.976C78.9773 331.187 95.5423 340.173 96.7899 357.266V357.269Z" fill="#EFEFEF" stroke="#231815" stroke-width="1.42" stroke-miterlimit="10"/>
<path d="M186.05 285.204V297.809H165.177V384.901H128.88V297.809H107.854V285.204H186.05Z" fill="#EFEFEF" stroke="#231815" stroke-width="1.42" stroke-miterlimit="10"/>
<path d="M227.84 290.903L269.536 381.967H186.006L227.84 290.903Z" fill="#EFEFEF" stroke="#231815" stroke-width="1.42" stroke-miterlimit="10"/>
<path d="M301.466 382.07C300.167 388.207 293.896 391.929 287.268 390.497C280.793 389.098 276.58 383.116 277.882 376.979C279.151 370.986 285.422 367.264 291.897 368.659C298.525 370.091 302.739 376.073 301.469 382.066L301.466 382.07ZM316.535 289.659L301.429 286.397L285.583 361.179L300.689 364.44L316.535 289.659Z" fill="#EFEFEF" stroke="#231815" stroke-width="1.42" stroke-miterlimit="10"/>
<path d="M87.9 146.14V159.981H64.7031V255.643H24.3647V159.981H1V146.14H87.9Z" fill="#EA68A2" stroke="#231815" stroke-width="1.42" stroke-miterlimit="10"/>
<path d="M137.033 162.982L185.061 257.219H88.8484L137.033 162.982Z" fill="#8591C8" stroke="#231815" stroke-width="1.42" stroke-miterlimit="10"/>
<path d="M284.777 228.711C284.777 248.623 265.333 259.454 244.861 259.454C235.227 259.454 215.098 256.744 208.386 249.577L242.279 207.684C227.654 201.311 211.308 191.276 211.308 173.915C211.308 153.845 229.719 143.493 250.362 143.493C263.436 143.493 276.685 147.156 288.041 153.208C253.288 194.939 253.459 194.939 253.459 194.939C269.116 200.512 284.773 211.026 284.773 228.707L284.777 228.711Z" fill="#F08327" stroke="#231815" stroke-width="1.42" stroke-miterlimit="10"/>
<path d="M318.859 257.116H304.428V160.062H318.859V257.116Z" fill="#FFDF38" stroke="#231815" stroke-width="1.42" stroke-miterlimit="10"/>
<path d="M85.8463 357.269C87.9 391.052 33.0796 397.682 10.1125 383.178L41.4113 340.136C-27.2638 317.773 18.1889 256.45 83.8217 284.037C51.64 326.991 51.8151 326.976 51.8151 326.976C68.0336 331.187 84.5987 340.173 85.8463 357.266V357.269Z" fill="#FFDF38" stroke="#231815" stroke-width="1.42" stroke-miterlimit="10"/>
<path d="M177.295 290.726V303.331H156.422V390.423H120.125V303.331H99.099V290.726H177.295Z" fill="#F08327" stroke="#231815" stroke-width="1.42" stroke-miterlimit="10"/>
<path d="M235.136 296.241L276.831 387.305H193.302L235.136 296.241Z" fill="#00A4A1" stroke="#231815" stroke-width="1.42" stroke-miterlimit="10"/>
<path d="M312.044 387.224C310.746 393.361 304.475 397.082 297.847 395.65C291.372 394.252 287.159 388.269 288.461 382.133C289.73 376.14 296.001 372.418 302.476 373.813C309.104 375.245 313.318 381.227 312.048 387.22L312.044 387.224ZM327.114 294.812L312.008 291.551L296.162 366.333L311.267 369.594L327.114 294.812Z" fill="#8591C8" stroke="#231815" stroke-width="1.42" stroke-miterlimit="10"/>
</svg>
