<svg width="551" height="584" viewBox="0 0 551 584" fill="none" xmlns="http://www.w3.org/2000/svg">
<mask id="mask0_985_346" style="mask-type:alpha" maskUnits="userSpaceOnUse" x="412" y="445" width="116" height="116">
<circle cx="470.445" cy="502.71" r="57.5323" transform="rotate(-35.8262 470.445 502.71)" fill="#D9D9D9"/>
</mask>
<g mask="url(#mask0_985_346)">
<line x1="378.67" y1="493.591" x2="508.835" y2="399.623" stroke="#FF8800" stroke-width="1.72252"/>
<line x1="382.565" y1="498.34" x2="512.73" y2="404.371" stroke="#FF8800" stroke-width="1.72252"/>
<line x1="386.46" y1="503.088" x2="516.625" y2="409.12" stroke="#FF8800" stroke-width="1.72252"/>
<line x1="390.355" y1="507.837" x2="520.52" y2="413.868" stroke="#FF8800" stroke-width="1.72252"/>
<line x1="394.25" y1="512.585" x2="524.415" y2="418.617" stroke="#FF8800" stroke-width="1.72252"/>
<line x1="398.145" y1="517.334" x2="528.31" y2="423.365" stroke="#FF8800" stroke-width="1.72252"/>
<line x1="402.04" y1="522.082" x2="532.204" y2="428.114" stroke="#FF8800" stroke-width="1.72252"/>
<line x1="405.935" y1="526.831" x2="536.099" y2="432.862" stroke="#FF8800" stroke-width="1.72252"/>
<line x1="409.829" y1="531.579" x2="539.994" y2="437.611" stroke="#FF8800" stroke-width="1.72252"/>
<line x1="413.724" y1="536.328" x2="543.889" y2="442.359" stroke="#FF8800" stroke-width="1.72252"/>
<line x1="417.619" y1="541.076" x2="547.784" y2="447.108" stroke="#FF8800" stroke-width="1.72252"/>
<line x1="421.514" y1="545.824" x2="551.679" y2="451.856" stroke="#FF8800" stroke-width="1.72252"/>
<line x1="425.409" y1="550.573" x2="555.574" y2="456.605" stroke="#FF8800" stroke-width="1.72252"/>
<line x1="429.304" y1="555.321" x2="559.469" y2="461.353" stroke="#FF8800" stroke-width="1.72252"/>
<line x1="433.199" y1="560.07" x2="563.364" y2="466.102" stroke="#FF8800" stroke-width="1.72252"/>
<line x1="437.094" y1="564.818" x2="567.258" y2="470.85" stroke="#FF8800" stroke-width="1.72252"/>
<line x1="440.989" y1="569.567" x2="571.153" y2="475.599" stroke="#FF8800" stroke-width="1.72252"/>
<line x1="444.884" y1="574.315" x2="575.048" y2="480.347" stroke="#FF8800" stroke-width="1.72252"/>
<line x1="448.778" y1="579.064" x2="578.943" y2="485.096" stroke="#FF8800" stroke-width="1.72252"/>
<line x1="452.673" y1="583.812" x2="582.838" y2="489.844" stroke="#FF8800" stroke-width="1.72252"/>
</g>
<mask id="mask1_985_346" style="mask-type:alpha" maskUnits="userSpaceOnUse" x="10" y="10" width="90" height="90">
<circle cx="55.3485" cy="55.3485" r="44.5703" transform="rotate(-73.5857 55.3485 55.3485)" fill="#D9D9D9"/>
</mask>
<g mask="url(#mask1_985_346)">
<line x1="-5.18629" y1="93.3003" x2="29.9583" y2="-26.0006" stroke="#FF67B5" stroke-width="1.33444"/>
<line x1="-0.548108" y1="94.3609" x2="34.5965" y2="-24.94" stroke="#FF67B5" stroke-width="1.33444"/>
<line x1="4.08995" y1="95.4216" x2="39.2345" y2="-23.8793" stroke="#FF67B5" stroke-width="1.33444"/>
<line x1="8.72802" y1="96.4822" x2="43.8726" y2="-22.8188" stroke="#FF67B5" stroke-width="1.33444"/>
<line x1="13.3662" y1="97.5428" x2="48.5108" y2="-21.7581" stroke="#FF67B5" stroke-width="1.33444"/>
<line x1="18.0043" y1="98.6034" x2="53.1488" y2="-20.6975" stroke="#FF67B5" stroke-width="1.33444"/>
<line x1="22.6424" y1="99.6641" x2="57.787" y2="-19.6369" stroke="#FF67B5" stroke-width="1.33444"/>
<line x1="27.2805" y1="100.725" x2="62.4251" y2="-18.5763" stroke="#FF67B5" stroke-width="1.33444"/>
<line x1="31.9187" y1="101.785" x2="67.0633" y2="-17.5156" stroke="#FF67B5" stroke-width="1.33444"/>
<line x1="36.5568" y1="102.846" x2="71.7013" y2="-16.455" stroke="#FF67B5" stroke-width="1.33444"/>
<line x1="41.1949" y1="103.907" x2="76.3395" y2="-15.3944" stroke="#FF67B5" stroke-width="1.33444"/>
<line x1="45.833" y1="104.967" x2="80.9776" y2="-14.3338" stroke="#FF67B5" stroke-width="1.33444"/>
<line x1="50.4712" y1="106.028" x2="85.6158" y2="-13.2731" stroke="#FF67B5" stroke-width="1.33444"/>
<line x1="55.1092" y1="107.088" x2="90.2538" y2="-12.2125" stroke="#FF67B5" stroke-width="1.33444"/>
<line x1="59.7474" y1="108.149" x2="94.892" y2="-11.1519" stroke="#FF67B5" stroke-width="1.33444"/>
<line x1="64.3855" y1="109.21" x2="99.5301" y2="-10.0912" stroke="#FF67B5" stroke-width="1.33444"/>
<line x1="69.0235" y1="110.27" x2="104.168" y2="-9.03062" stroke="#FF67B5" stroke-width="1.33444"/>
<line x1="73.6617" y1="111.331" x2="108.806" y2="-7.96999" stroke="#FF67B5" stroke-width="1.33444"/>
<line x1="78.2999" y1="112.392" x2="113.445" y2="-6.90937" stroke="#FF67B5" stroke-width="1.33444"/>
<line x1="82.938" y1="113.452" x2="118.083" y2="-5.84873" stroke="#FF67B5" stroke-width="1.33444"/>
</g>
<g clip-path="url(#clip0_985_346)">
<g clip-path="url(#clip1_985_346)">
<circle cx="406.434" cy="11.736" r="4" transform="rotate(13.811 406.434 11.736)" fill="#FFE553"/>
<circle cx="420.029" cy="15.0781" r="4" transform="rotate(13.811 420.029 15.0781)" fill="#FFE553"/>
<circle cx="433.624" cy="18.4202" r="4" transform="rotate(13.811 433.624 18.4202)" fill="#FFE553"/>
<circle cx="447.22" cy="21.7623" r="4" transform="rotate(13.811 447.22 21.7623)" fill="#FFE553"/>
<circle cx="460.815" cy="25.1043" r="4" transform="rotate(13.811 460.815 25.1043)" fill="#FFE553"/>
<circle cx="474.41" cy="28.4464" r="4" transform="rotate(13.811 474.41 28.4464)" fill="#FFE553"/>
<circle cx="488.005" cy="31.7885" r="4" transform="rotate(13.811 488.005 31.7885)" fill="#FFE553"/>
</g>
<g clip-path="url(#clip2_985_346)">
<circle cx="403.092" cy="25.3313" r="4" transform="rotate(13.811 403.092 25.3313)" fill="#FFE553"/>
<circle cx="416.687" cy="28.6734" r="4" transform="rotate(13.811 416.687 28.6734)" fill="#FFE553"/>
<circle cx="430.282" cy="32.0154" r="4" transform="rotate(13.811 430.282 32.0154)" fill="#FFE553"/>
<circle cx="443.877" cy="35.3575" r="4" transform="rotate(13.811 443.877 35.3575)" fill="#FFE553"/>
<circle cx="457.473" cy="38.6996" r="4" transform="rotate(13.811 457.473 38.6996)" fill="#FFE553"/>
<circle cx="471.068" cy="42.0417" r="4" transform="rotate(13.811 471.068 42.0417)" fill="#FFE553"/>
<circle cx="484.663" cy="45.3837" r="4" transform="rotate(13.811 484.663 45.3837)" fill="#FFE553"/>
</g>
<g clip-path="url(#clip3_985_346)">
<circle cx="399.75" cy="38.9265" r="4" transform="rotate(13.811 399.75 38.9265)" fill="#FFE553"/>
<circle cx="413.345" cy="42.2686" r="4" transform="rotate(13.811 413.345 42.2686)" fill="#FFE553"/>
<circle cx="426.94" cy="45.6107" r="4" transform="rotate(13.811 426.94 45.6107)" fill="#FFE553"/>
<circle cx="440.535" cy="48.9527" r="4" transform="rotate(13.811 440.535 48.9527)" fill="#FFE553"/>
<circle cx="454.131" cy="52.2948" r="4" transform="rotate(13.811 454.131 52.2948)" fill="#FFE553"/>
<circle cx="467.726" cy="55.6369" r="4" transform="rotate(13.811 467.726 55.6369)" fill="#FFE553"/>
<circle cx="481.321" cy="58.979" r="4" transform="rotate(13.811 481.321 58.979)" fill="#FFE553"/>
</g>
<g clip-path="url(#clip4_985_346)">
<circle cx="396.408" cy="52.5218" r="4" transform="rotate(13.811 396.408 52.5218)" fill="#FFE553"/>
<circle cx="410.003" cy="55.8638" r="4" transform="rotate(13.811 410.003 55.8638)" fill="#FFE553"/>
<circle cx="423.598" cy="59.2059" r="4" transform="rotate(13.811 423.598 59.2059)" fill="#FFE553"/>
<circle cx="437.193" cy="62.548" r="4" transform="rotate(13.811 437.193 62.548)" fill="#FFE553"/>
<circle cx="450.788" cy="65.8901" r="4" transform="rotate(13.811 450.788 65.8901)" fill="#FFE553"/>
<circle cx="464.384" cy="69.2321" r="4" transform="rotate(13.811 464.384 69.2321)" fill="#FFE553"/>
<circle cx="477.979" cy="72.5742" r="4" transform="rotate(13.811 477.979 72.5742)" fill="#FFE553"/>
</g>
<g clip-path="url(#clip5_985_346)">
<circle cx="393.065" cy="66.117" r="4" transform="rotate(13.811 393.065 66.117)" fill="#FFE553"/>
<circle cx="406.661" cy="69.4591" r="4" transform="rotate(13.811 406.661 69.4591)" fill="#FFE553"/>
<circle cx="420.256" cy="72.8011" r="4" transform="rotate(13.811 420.256 72.8011)" fill="#FFE553"/>
<circle cx="433.851" cy="76.1432" r="4" transform="rotate(13.811 433.851 76.1432)" fill="#FFE553"/>
<circle cx="447.446" cy="79.4853" r="4" transform="rotate(13.811 447.446 79.4853)" fill="#FFE553"/>
<circle cx="461.042" cy="82.8274" r="4" transform="rotate(13.811 461.042 82.8274)" fill="#FFE553"/>
<circle cx="474.637" cy="86.1694" r="4" transform="rotate(13.811 474.637 86.1694)" fill="#FFE553"/>
</g>
<g clip-path="url(#clip6_985_346)">
<circle cx="389.723" cy="79.7122" r="4" transform="rotate(13.811 389.723 79.7122)" fill="#FFE553"/>
<circle cx="403.319" cy="83.0543" r="4" transform="rotate(13.811 403.319 83.0543)" fill="#FFE553"/>
<circle cx="416.914" cy="86.3964" r="4" transform="rotate(13.811 416.914 86.3964)" fill="#FFE553"/>
<circle cx="430.509" cy="89.7385" r="4" transform="rotate(13.811 430.509 89.7385)" fill="#FFE553"/>
<circle cx="444.104" cy="93.0805" r="4" transform="rotate(13.811 444.104 93.0805)" fill="#FFE553"/>
<circle cx="457.7" cy="96.4226" r="4" transform="rotate(13.811 457.7 96.4226)" fill="#FFE553"/>
<circle cx="471.295" cy="99.7647" r="4" transform="rotate(13.811 471.295 99.7647)" fill="#FFE553"/>
</g>
<g clip-path="url(#clip7_985_346)">
<circle cx="386.381" cy="93.3075" r="4" transform="rotate(13.811 386.381 93.3075)" fill="#FFE553"/>
<circle cx="399.976" cy="96.6495" r="4" transform="rotate(13.811 399.976 96.6495)" fill="#FFE553"/>
<circle cx="413.572" cy="99.9916" r="4" transform="rotate(13.811 413.572 99.9916)" fill="#FFE553"/>
<circle cx="427.167" cy="103.334" r="4" transform="rotate(13.811 427.167 103.334)" fill="#FFE553"/>
<circle cx="440.762" cy="106.676" r="4" transform="rotate(13.811 440.762 106.676)" fill="#FFE553"/>
<circle cx="454.357" cy="110.018" r="4" transform="rotate(13.811 454.357 110.018)" fill="#FFE553"/>
<circle cx="467.953" cy="113.36" r="4" transform="rotate(13.811 467.953 113.36)" fill="#FFE553"/>
</g>
</g>
<path d="M86.2809 278.733L91.5359 283.743L86.2809 288.753C84.5181 290.433 84.5181 293.158 86.2809 294.838C88.0436 296.519 90.9019 296.519 92.6646 294.838L97.9197 289.829L103.175 294.838C104.937 296.519 107.796 296.519 109.558 294.838C111.321 293.158 111.321 290.433 109.558 288.753L104.303 283.743L109.558 278.733C111.321 277.053 111.321 274.328 109.558 272.648C107.796 270.967 104.937 270.967 103.175 272.648L97.9197 277.657L92.6646 272.648C90.9019 270.967 88.0436 270.967 86.2809 272.648C84.5181 274.328 84.5181 277.053 86.2809 278.733Z" fill="white" stroke="#040000" stroke-width="1.35849" stroke-miterlimit="10"/>
<path d="M50.943 278.873L56.198 283.882L50.943 288.892C49.1802 290.572 49.1802 293.297 50.943 294.978C52.7057 296.658 55.564 296.658 57.3267 294.978L62.5817 289.968L67.8368 294.978C69.5996 296.658 72.4578 296.658 74.2205 294.978C75.9833 293.297 75.9833 290.572 74.2205 288.892L68.9655 283.882L74.2205 278.873C75.9833 277.192 75.9833 274.467 74.2205 272.787C72.4578 271.106 69.5996 271.106 67.8368 272.787L62.5817 277.797L57.3267 272.787C55.564 271.106 52.7057 271.106 50.943 272.787C49.1802 274.467 49.1802 277.192 50.943 278.873Z" fill="white" stroke="#040000" stroke-width="1.35849" stroke-miterlimit="10"/>
<path d="M16.4448 278.942L21.6998 283.952L16.4448 288.962C14.6821 290.642 14.6821 293.367 16.4448 295.047C18.2076 296.728 21.0658 296.728 22.8285 295.047L28.0836 290.038L33.3386 295.047C35.1014 296.728 37.9596 296.728 39.7224 295.047C41.4851 293.367 41.4851 290.642 39.7224 288.962L34.4673 283.952L39.7224 278.942C41.4851 277.262 41.4851 274.537 39.7224 272.856C37.9596 271.176 35.1014 271.176 33.3386 272.856L28.0836 277.866L22.8285 272.856C21.0658 271.176 18.2076 271.176 16.4448 272.856C14.6821 274.54 14.6821 277.265 16.4448 278.942Z" fill="white" stroke="#040000" stroke-width="1.35849" stroke-miterlimit="10"/>
<path d="M16.6872 318.324L21.9423 323.333L16.6872 328.343C14.9245 330.023 14.9245 332.748 16.6872 334.429C18.45 336.109 21.3082 336.109 23.071 334.429L28.326 329.419L33.5811 334.429C35.3438 336.109 38.2021 336.109 39.9648 334.429C41.7276 332.748 41.7276 330.023 39.9648 328.343L34.7098 323.333L39.9648 318.324C41.7276 316.643 41.7276 313.918 39.9648 312.238C38.2021 310.557 35.3438 310.557 33.5811 312.238L28.326 317.248L23.071 312.238C21.3082 310.557 18.45 310.557 16.6872 312.238C14.9245 313.922 14.9245 316.646 16.6872 318.324Z" fill="white" stroke="#040000" stroke-width="1.35849" stroke-miterlimit="10"/>
<path d="M51.1853 318.254L56.4403 323.264L51.1853 328.273C49.4225 329.954 49.4225 332.679 51.1853 334.359C52.948 336.04 55.8063 336.04 57.569 334.359L62.8241 329.349L68.0791 334.359C69.8419 336.04 72.7001 336.04 74.4629 334.359C76.2256 332.679 76.2256 329.954 74.4629 328.273L69.2078 323.264L74.4629 318.254C76.2256 316.574 76.2256 313.849 74.4629 312.168C72.7001 310.488 69.8419 310.488 68.0791 312.168L62.8241 317.178L57.569 312.168C55.8063 310.488 52.948 310.488 51.1853 312.168C49.4225 313.849 49.4225 316.577 51.1853 318.254Z" fill="white" stroke="#040000" stroke-width="1.35849" stroke-miterlimit="10"/>
<path d="M86.5232 318.115L91.7782 323.124L86.5232 328.134C84.7604 329.815 84.7604 332.539 86.5232 334.22C88.2859 335.9 91.1441 335.9 92.9069 334.22L98.162 329.21L103.417 334.22C105.18 335.9 108.038 335.9 109.801 334.22C111.563 332.539 111.563 329.815 109.801 328.134L104.542 323.124L109.797 318.115C111.56 316.434 111.56 313.709 109.797 312.029C108.035 310.349 105.176 310.349 103.414 312.029L98.1586 317.039L92.9036 312.029C91.1408 310.349 88.2826 310.349 86.5198 312.029C84.7604 313.709 84.7604 316.434 86.5232 318.115Z" fill="white" stroke="#040000" stroke-width="1.35849" stroke-miterlimit="10"/>
<defs>
<clipPath id="clip0_985_346">
<rect width="100" height="100" fill="white" transform="translate(403.504 6.8968) rotate(13.811)"/>
</clipPath>
<clipPath id="clip1_985_346">
<rect width="100" height="14" fill="white" transform="translate(403.504 6.8968) rotate(13.811)"/>
</clipPath>
<clipPath id="clip2_985_346">
<rect width="100" height="14" fill="white" transform="translate(400.162 20.4921) rotate(13.811)"/>
</clipPath>
<clipPath id="clip3_985_346">
<rect width="100" height="14" fill="white" transform="translate(396.82 34.0873) rotate(13.811)"/>
</clipPath>
<clipPath id="clip4_985_346">
<rect width="100" height="14" fill="white" transform="translate(393.478 47.6825) rotate(13.811)"/>
</clipPath>
<clipPath id="clip5_985_346">
<rect width="100" height="14" fill="white" transform="translate(390.136 61.2778) rotate(13.811)"/>
</clipPath>
<clipPath id="clip6_985_346">
<rect width="100" height="14" fill="white" transform="translate(386.794 74.873) rotate(13.811)"/>
</clipPath>
<clipPath id="clip7_985_346">
<rect width="100" height="14" fill="white" transform="translate(383.452 88.4682) rotate(13.811)"/>
</clipPath>
</defs>
</svg>
