<svg width="558" height="590" viewBox="0 0 558 590" fill="none" xmlns="http://www.w3.org/2000/svg">
<mask id="mask0_980_235" style="mask-type:alpha" maskUnits="userSpaceOnUse" x="419" y="452" width="116" height="116">
<circle cx="477.322" cy="509.587" r="57.5323" transform="rotate(-35.8262 477.322 509.587)" fill="#D9D9D9"/>
</mask>
<g mask="url(#mask0_980_235)">
<line x1="385.548" y1="500.468" x2="515.712" y2="406.5" stroke="#FF8800" stroke-width="1.72252"/>
<line x1="389.443" y1="505.217" x2="519.607" y2="411.249" stroke="#FF8800" stroke-width="1.72252"/>
<line x1="393.337" y1="509.965" x2="523.502" y2="415.997" stroke="#FF8800" stroke-width="1.72252"/>
<line x1="397.232" y1="514.714" x2="527.397" y2="420.745" stroke="#FF8800" stroke-width="1.72252"/>
<line x1="401.127" y1="519.462" x2="531.292" y2="425.494" stroke="#FF8800" stroke-width="1.72252"/>
<line x1="405.022" y1="524.211" x2="535.187" y2="430.242" stroke="#FF8800" stroke-width="1.72252"/>
<line x1="408.917" y1="528.959" x2="539.082" y2="434.991" stroke="#FF8800" stroke-width="1.72252"/>
<line x1="412.812" y1="533.708" x2="542.976" y2="439.739" stroke="#FF8800" stroke-width="1.72252"/>
<line x1="416.707" y1="538.456" x2="546.871" y2="444.488" stroke="#FF8800" stroke-width="1.72252"/>
<line x1="420.602" y1="543.205" x2="550.766" y2="449.236" stroke="#FF8800" stroke-width="1.72252"/>
<line x1="424.496" y1="547.953" x2="554.661" y2="453.985" stroke="#FF8800" stroke-width="1.72252"/>
<line x1="428.391" y1="552.702" x2="558.556" y2="458.733" stroke="#FF8800" stroke-width="1.72252"/>
<line x1="432.286" y1="557.45" x2="562.451" y2="463.482" stroke="#FF8800" stroke-width="1.72252"/>
<line x1="436.181" y1="562.199" x2="566.346" y2="468.23" stroke="#FF8800" stroke-width="1.72252"/>
<line x1="440.076" y1="566.947" x2="570.241" y2="472.979" stroke="#FF8800" stroke-width="1.72252"/>
<line x1="443.971" y1="571.696" x2="574.136" y2="477.727" stroke="#FF8800" stroke-width="1.72252"/>
<line x1="447.866" y1="576.444" x2="578.031" y2="482.476" stroke="#FF8800" stroke-width="1.72252"/>
<line x1="451.761" y1="581.193" x2="581.925" y2="487.224" stroke="#FF8800" stroke-width="1.72252"/>
<line x1="455.656" y1="585.941" x2="585.82" y2="491.973" stroke="#FF8800" stroke-width="1.72252"/>
<line x1="459.551" y1="590.69" x2="589.715" y2="496.721" stroke="#FF8800" stroke-width="1.72252"/>
</g>
<mask id="mask1_980_235" style="mask-type:alpha" maskUnits="userSpaceOnUse" x="17" y="17" width="90" height="90">
<circle cx="62.2257" cy="62.2257" r="44.5703" transform="rotate(-35.8262 62.2257 62.2257)" fill="#D9D9D9"/>
</mask>
<g mask="url(#mask1_980_235)">
<line x1="-8.87211" y1="55.1616" x2="91.9665" y2="-17.6356" stroke="#FF67B5" stroke-width="1.33444"/>
<line x1="-5.85478" y1="58.8403" x2="94.9838" y2="-13.9569" stroke="#FF67B5" stroke-width="1.33444"/>
<line x1="-2.83744" y1="62.5189" x2="98.0012" y2="-10.2783" stroke="#FF67B5" stroke-width="1.33444"/>
<line x1="0.180014" y1="66.1976" x2="101.019" y2="-6.59964" stroke="#FF67B5" stroke-width="1.33444"/>
<line x1="3.19735" y1="69.8762" x2="104.036" y2="-2.92096" stroke="#FF67B5" stroke-width="1.33444"/>
<line x1="6.2148" y1="73.5549" x2="107.053" y2="0.757703" stroke="#FF67B5" stroke-width="1.33444"/>
<line x1="9.23214" y1="77.2336" x2="110.071" y2="4.43635" stroke="#FF67B5" stroke-width="1.33444"/>
<line x1="12.2495" y1="80.9122" x2="113.088" y2="8.11502" stroke="#FF67B5" stroke-width="1.33444"/>
<line x1="15.2669" y1="84.5909" x2="116.106" y2="11.7937" stroke="#FF67B5" stroke-width="1.33444"/>
<line x1="18.2843" y1="88.2695" x2="119.123" y2="15.4723" stroke="#FF67B5" stroke-width="1.33444"/>
<line x1="21.3016" y1="91.9482" x2="122.14" y2="19.151" stroke="#FF67B5" stroke-width="1.33444"/>
<line x1="24.3189" y1="95.6269" x2="125.158" y2="22.8296" stroke="#FF67B5" stroke-width="1.33444"/>
<line x1="27.3364" y1="99.3055" x2="128.175" y2="26.5083" stroke="#FF67B5" stroke-width="1.33444"/>
<line x1="30.3537" y1="102.984" x2="131.192" y2="30.187" stroke="#FF67B5" stroke-width="1.33444"/>
<line x1="33.3711" y1="106.663" x2="134.21" y2="33.8656" stroke="#FF67B5" stroke-width="1.33444"/>
<line x1="36.3885" y1="110.342" x2="137.227" y2="37.5443" stroke="#FF67B5" stroke-width="1.33444"/>
<line x1="39.4058" y1="114.02" x2="140.244" y2="41.2229" stroke="#FF67B5" stroke-width="1.33444"/>
<line x1="42.4232" y1="117.699" x2="143.262" y2="44.9016" stroke="#FF67B5" stroke-width="1.33444"/>
<line x1="45.4406" y1="121.377" x2="146.279" y2="48.5803" stroke="#FF67B5" stroke-width="1.33444"/>
<line x1="48.458" y1="125.056" x2="149.297" y2="52.2589" stroke="#FF67B5" stroke-width="1.33444"/>
</g>
<g clip-path="url(#clip0_980_235)">
<g clip-path="url(#clip1_980_235)">
<circle cx="401" cy="28.2644" r="4" fill="#FFE553"/>
<circle cx="415" cy="28.2644" r="4" fill="#FFE553"/>
<circle cx="429" cy="28.2644" r="4" fill="#FFE553"/>
<circle cx="443" cy="28.2644" r="4" fill="#FFE553"/>
<circle cx="457" cy="28.2644" r="4" fill="#FFE553"/>
<circle cx="471" cy="28.2644" r="4" fill="#FFE553"/>
<circle cx="485" cy="28.2644" r="4" fill="#FFE553"/>
</g>
<g clip-path="url(#clip2_980_235)">
<circle cx="401" cy="42.2644" r="4" fill="#FFE553"/>
<circle cx="415" cy="42.2644" r="4" fill="#FFE553"/>
<circle cx="429" cy="42.2644" r="4" fill="#FFE553"/>
<circle cx="443" cy="42.2644" r="4" fill="#FFE553"/>
<circle cx="457" cy="42.2644" r="4" fill="#FFE553"/>
<circle cx="471" cy="42.2644" r="4" fill="#FFE553"/>
<circle cx="485" cy="42.2644" r="4" fill="#FFE553"/>
</g>
<g clip-path="url(#clip3_980_235)">
<circle cx="401" cy="56.2644" r="4" fill="#FFE553"/>
<circle cx="415" cy="56.2644" r="4" fill="#FFE553"/>
<circle cx="429" cy="56.2644" r="4" fill="#FFE553"/>
<circle cx="443" cy="56.2644" r="4" fill="#FFE553"/>
<circle cx="457" cy="56.2644" r="4" fill="#FFE553"/>
<circle cx="471" cy="56.2644" r="4" fill="#FFE553"/>
<circle cx="485" cy="56.2644" r="4" fill="#FFE553"/>
</g>
<g clip-path="url(#clip4_980_235)">
<circle cx="401" cy="70.2644" r="4" fill="#FFE553"/>
<circle cx="415" cy="70.2644" r="4" fill="#FFE553"/>
<circle cx="429" cy="70.2644" r="4" fill="#FFE553"/>
<circle cx="443" cy="70.2644" r="4" fill="#FFE553"/>
<circle cx="457" cy="70.2644" r="4" fill="#FFE553"/>
<circle cx="471" cy="70.2644" r="4" fill="#FFE553"/>
<circle cx="485" cy="70.2644" r="4" fill="#FFE553"/>
</g>
<g clip-path="url(#clip5_980_235)">
<circle cx="401" cy="84.2644" r="4" fill="#FFE553"/>
<circle cx="415" cy="84.2644" r="4" fill="#FFE553"/>
<circle cx="429" cy="84.2644" r="4" fill="#FFE553"/>
<circle cx="443" cy="84.2644" r="4" fill="#FFE553"/>
<circle cx="457" cy="84.2644" r="4" fill="#FFE553"/>
<circle cx="471" cy="84.2644" r="4" fill="#FFE553"/>
<circle cx="485" cy="84.2644" r="4" fill="#FFE553"/>
</g>
<g clip-path="url(#clip6_980_235)">
<circle cx="401" cy="98.2644" r="4" fill="#FFE553"/>
<circle cx="415" cy="98.2644" r="4" fill="#FFE553"/>
<circle cx="429" cy="98.2644" r="4" fill="#FFE553"/>
<circle cx="443" cy="98.2644" r="4" fill="#FFE553"/>
<circle cx="457" cy="98.2644" r="4" fill="#FFE553"/>
<circle cx="471" cy="98.2644" r="4" fill="#FFE553"/>
<circle cx="485" cy="98.2644" r="4" fill="#FFE553"/>
</g>
<g clip-path="url(#clip7_980_235)">
<circle cx="401" cy="112.264" r="4" fill="#FFE553"/>
<circle cx="415" cy="112.264" r="4" fill="#FFE553"/>
<circle cx="429" cy="112.264" r="4" fill="#FFE553"/>
<circle cx="443" cy="112.264" r="4" fill="#FFE553"/>
<circle cx="457" cy="112.264" r="4" fill="#FFE553"/>
<circle cx="471" cy="112.264" r="4" fill="#FFE553"/>
<circle cx="485" cy="112.264" r="4" fill="#FFE553"/>
</g>
</g>
<path d="M93.1581 285.61L98.4131 290.62L93.1581 295.63C91.3953 297.31 91.3953 300.035 93.1581 301.716C94.9208 303.396 97.7791 303.396 99.5418 301.716L104.797 296.706L110.052 301.716C111.815 303.396 114.673 303.396 116.436 301.716C118.198 300.035 118.198 297.31 116.436 295.63L111.181 290.62L116.436 285.61C118.198 283.93 118.198 281.205 116.436 279.525C114.673 277.844 111.815 277.844 110.052 279.525L104.797 284.534L99.5418 279.525C97.7791 277.844 94.9208 277.844 93.1581 279.525C91.3953 281.205 91.3953 283.93 93.1581 285.61Z" fill="white" stroke="#040000" stroke-width="1.35849" stroke-miterlimit="10"/>
<path d="M57.8202 285.75L63.0752 290.759L57.8202 295.769C56.0574 297.45 56.0574 300.174 57.8202 301.855C59.5829 303.535 62.4412 303.535 64.2039 301.855L69.4589 296.845L74.714 301.855C76.4768 303.535 79.335 303.535 81.0977 301.855C82.8605 300.174 82.8605 297.45 81.0977 295.769L75.8427 290.759L81.0977 285.75C82.8605 284.069 82.8605 281.344 81.0977 279.664C79.335 277.984 76.4768 277.984 74.714 279.664L69.4589 284.674L64.2039 279.664C62.4412 277.984 59.5829 277.984 57.8202 279.664C56.0574 281.344 56.0574 284.069 57.8202 285.75Z" fill="white" stroke="#040000" stroke-width="1.35849" stroke-miterlimit="10"/>
<path d="M23.322 285.819L28.577 290.829L23.322 295.839C21.5593 297.519 21.5593 300.244 23.322 301.924C25.0848 303.605 27.943 303.605 29.7057 301.924L34.9608 296.915L40.2158 301.924C41.9786 303.605 44.8368 303.605 46.5996 301.924C48.3623 300.244 48.3623 297.519 46.5996 295.839L41.3445 290.829L46.5996 285.819C48.3623 284.139 48.3623 281.414 46.5996 279.734C44.8368 278.053 41.9786 278.053 40.2158 279.734L34.9608 284.743L29.7057 279.734C27.943 278.053 25.0848 278.053 23.322 279.734C21.5593 281.417 21.5593 284.142 23.322 285.819Z" fill="white" stroke="#040000" stroke-width="1.35849" stroke-miterlimit="10"/>
<path d="M23.5644 325.201L28.8195 330.211L23.5644 335.22C21.8017 336.901 21.8017 339.625 23.5644 341.306C25.3272 342.986 28.1854 342.986 29.9482 341.306L35.2032 336.296L40.4583 341.306C42.221 342.986 45.0793 342.986 46.842 341.306C48.6047 339.625 48.6047 336.901 46.842 335.22L41.587 330.211L46.842 325.201C48.6047 323.52 48.6047 320.796 46.842 319.115C45.0793 317.435 42.221 317.435 40.4583 319.115L35.2032 324.125L29.9482 319.115C28.1854 317.435 25.3272 317.435 23.5644 319.115C21.8017 320.799 21.8017 323.524 23.5644 325.201Z" fill="white" stroke="#040000" stroke-width="1.35849" stroke-miterlimit="10"/>
<path d="M58.0625 325.131L63.3175 330.141L58.0625 335.151C56.2997 336.831 56.2997 339.556 58.0625 341.236C59.8252 342.917 62.6835 342.917 64.4462 341.236L69.7012 336.227L74.9563 341.236C76.7191 342.917 79.5773 342.917 81.34 341.236C83.1028 339.556 83.1028 336.831 81.34 335.151L76.085 330.141L81.34 325.131C83.1028 323.451 83.1028 320.726 81.34 319.045C79.5773 317.365 76.7191 317.365 74.9563 319.045L69.7013 324.055L64.4462 319.045C62.6835 317.365 59.8252 317.365 58.0625 319.045C56.2997 320.726 56.2997 323.454 58.0625 325.131Z" fill="white" stroke="#040000" stroke-width="1.35849" stroke-miterlimit="10"/>
<path d="M93.4004 324.992L98.6554 330.002L93.4004 335.011C91.6376 336.692 91.6376 339.417 93.4004 341.097C95.1631 342.778 98.0213 342.778 99.7841 341.097L105.039 336.087L110.294 341.097C112.057 342.778 114.915 342.778 116.678 341.097C118.441 339.417 118.441 336.692 116.678 335.011L111.42 330.002L116.675 324.992C118.437 323.311 118.437 320.587 116.675 318.906C114.912 317.226 112.054 317.226 110.291 318.906L105.036 323.916L99.7808 318.906C98.018 317.226 95.1598 317.226 93.397 318.906C91.6376 320.587 91.6376 323.311 93.4004 324.992Z" fill="white" stroke="#040000" stroke-width="1.35849" stroke-miterlimit="10"/>
<defs>
<clipPath id="clip0_980_235">
<rect width="100" height="100" fill="white" transform="translate(397 24.2644)"/>
</clipPath>
<clipPath id="clip1_980_235">
<rect width="100" height="14" fill="white" transform="translate(397 24.2644)"/>
</clipPath>
<clipPath id="clip2_980_235">
<rect width="100" height="14" fill="white" transform="translate(397 38.2644)"/>
</clipPath>
<clipPath id="clip3_980_235">
<rect width="100" height="14" fill="white" transform="translate(397 52.2644)"/>
</clipPath>
<clipPath id="clip4_980_235">
<rect width="100" height="14" fill="white" transform="translate(397 66.2644)"/>
</clipPath>
<clipPath id="clip5_980_235">
<rect width="100" height="14" fill="white" transform="translate(397 80.2644)"/>
</clipPath>
<clipPath id="clip6_980_235">
<rect width="100" height="14" fill="white" transform="translate(397 94.2644)"/>
</clipPath>
<clipPath id="clip7_980_235">
<rect width="100" height="14" fill="white" transform="translate(397 108.264)"/>
</clipPath>
</defs>
</svg>
