<svg width="344" height="106" viewBox="0 0 344 106" fill="none" xmlns="http://www.w3.org/2000/svg">
<rect y="76" width="344" height="28" fill="#FFE553"/>
<rect y="48" width="293" height="28" fill="#FFE553"/>
<path d="M21.5601 59.9857H26.9065C26.9563 60.4838 26.9729 60.8989 26.9729 61.397C26.9729 65.1163 25.1631 67.2581 21.8257 67.2581C18.1397 67.2581 16.2303 65 16.2303 60.6C16.2303 56.4989 18.3223 53.9585 21.6763 53.9585C24.3827 53.9585 26.1427 55.4196 26.6076 58.0596L23.5193 58.757C23.3699 56.9472 22.7721 56.117 21.6265 56.117C20.182 56.117 19.385 57.6612 19.385 60.4838C19.385 63.6219 20.2484 65.1827 21.9586 65.1827C23.2703 65.1827 23.9178 64.1698 23.9344 62.0612H21.5601V59.9857ZM40.7136 66.6936L40.5309 66.677C39.4351 65.2325 38.0902 63.871 36.8449 62.7419C35.1679 64.5517 33.3415 65.7804 31.1498 66.9095C30.9837 66.9925 30.8675 67.0257 30.7845 67.0257C30.6849 67.0257 30.6185 66.9759 30.5188 66.9095L28.5596 65.3985C32.3785 63.6219 35.7158 61.1147 37.2434 57.6612H33.2917L30.8177 57.711L30.7015 57.5781V55.32L30.8509 55.2204L33.3415 55.2702H38.0404L39.7339 55.1872L40.7468 56.1834C40.863 56.2996 40.9294 56.3827 40.9294 56.4823C40.9294 56.5819 40.8796 56.6981 40.78 56.8808C40.0162 58.3585 39.2524 59.6204 38.4887 60.7163C40.066 62.0279 41.3113 63.1238 42.6894 64.6846L42.6728 64.8672L40.7136 66.6936ZM55.3083 58.0264L52.137 58.043C51.1241 59.3713 50.0449 60.5004 48.8328 61.48C48.6502 61.6129 48.5505 61.6793 48.4343 61.6793C48.3679 61.6793 48.2849 61.6461 48.1687 61.5796L46.1928 60.3842C48.7996 58.4083 50.4766 56.3495 51.6887 53.6929L51.8381 53.643L54.2124 54.523L54.2456 54.6891C54.0298 55.1042 53.8139 55.4861 53.5649 55.8846L55.6902 55.8513L56.9521 55.7517L58.3966 57.0966C58.546 57.2295 58.629 57.3291 58.629 57.4453C58.629 57.5283 58.5958 57.6279 58.5294 57.7774C56.4373 62.277 53.7475 65.3487 49.0321 67.5072C48.8162 67.5902 48.7 67.64 48.6004 67.64C48.5173 67.64 48.4343 67.6068 48.3181 67.5072L46.2592 65.9132C49.9619 64.7012 53.4487 62.0612 55.3083 58.0264ZM62.3649 65.3985L62.2487 65.2657V63.074L62.3981 62.9744L64.5566 63.0242H67.7279V58.8234H66.3L63.826 58.8732L63.7098 58.7404V56.5653L63.8592 56.4657L66.3166 56.5155H72.2109L74.3196 56.4657L74.4691 56.5653V58.7404L74.3528 58.8732L72.294 58.8234H70.4675V63.0242H73.5724L75.8804 62.9744L76.0298 63.074V65.2657L75.9136 65.3985L73.6389 65.3487H64.5898L62.3649 65.3985ZM86.8555 58.1427L86.9717 58.2589C86.9717 58.5246 86.9717 58.8732 86.9551 59.1223C87.7355 58.5079 88.5989 57.7442 89.1634 57.0966H82.5717L79.6992 57.1464L79.583 57.0136V54.8385L79.7324 54.7389L82.5385 54.7887H89.9272L91.5875 54.7057L92.7498 56.2664C92.7996 56.3495 92.8328 56.4159 92.8328 56.4989C92.8328 56.5985 92.7996 56.6981 92.7 56.8144C91.8698 57.8272 90.4087 59.3215 89.0472 60.5336C88.7815 60.7661 88.6985 60.7661 88.4494 60.6L86.9219 59.5706C86.7558 63.1404 85.8094 65.4981 82.9536 67.6068C82.8374 67.6898 82.7543 67.723 82.6547 67.723C82.5551 67.723 82.4389 67.6732 82.2894 67.5902L80.0811 66.4612C83.5513 64.4687 84.2487 62.3434 84.1823 58.2755L84.2985 58.1427H86.8555ZM106.265 59.1721V60.2015L106.166 60.2846L104.306 60.2347H100.404L98.5611 60.2846L98.4449 60.1849V59.1887C97.8472 59.637 97.1996 60.0521 96.5189 60.4672C96.3528 60.5668 96.22 60.6166 96.1204 60.6166C96.0208 60.6166 95.9377 60.5834 95.8547 60.5004L94.2275 58.8898C97.1498 57.3789 99.4245 55.4362 101.151 52.7464L101.334 52.6966L103.708 53.2944L103.758 53.4604C103.658 53.6098 103.559 53.7427 103.476 53.8921C105.402 55.6853 107.311 57.1796 110.532 58.3917L108.972 60.1683C108.789 60.3842 108.64 60.4672 108.507 60.4672C108.407 60.4672 108.324 60.434 108.208 60.3676C107.527 59.9857 106.88 59.5872 106.265 59.1721ZM104.306 58.2257L104.97 58.2091C103.991 57.3955 103.061 56.5321 102.214 55.5857C101.467 56.5321 100.603 57.4287 99.6736 58.2091L100.404 58.2257H104.306ZM106.88 63.4393H102.015C101.583 64.3691 101.085 65.2657 100.537 66.1291C102.015 66.0793 103.492 65.963 104.97 65.8468C104.522 65.4151 104.074 65.0166 103.592 64.6347L103.625 64.4853L105.252 63.5389L105.402 63.5223C106.83 64.5683 108.175 65.8468 109.304 67.1419L109.287 67.2747L107.594 68.6861L107.428 68.6695C107.145 68.2876 106.863 67.9223 106.564 67.5736C102.945 67.9887 100.055 68.2212 96.137 68.4702L95.9875 68.3872L95.3068 66.428L95.423 66.2785C96.3528 66.2619 97.183 66.2453 97.98 66.2287C98.4947 65.3321 98.9928 64.4023 99.3747 63.4393H97.8306L95.1574 63.4891L95.0411 63.3895V61.4634L95.1408 61.3638L97.8306 61.4136H106.88L109.569 61.3638L109.669 61.4468V63.4061L109.569 63.4891L106.88 63.4393ZM114.883 58.9064V62.5261C115.281 62.3932 115.68 62.2438 116.095 62.0944V62.908C116.742 62.5593 117.34 62.1442 117.838 61.5796L115.978 61.6129L115.862 61.4966V59.803L115.978 59.6868L118.486 59.7366H124.231L126.821 59.6868L126.937 59.803V61.4966L126.821 61.6129L124.231 61.563H120.196C120.096 61.7291 119.98 61.8951 119.864 62.0612H124.081L126.289 62.0113L126.406 62.1276C126.356 65.1163 126.157 66.9261 125.841 67.64C125.526 68.3872 124.845 68.7027 123.218 68.7027C123.002 68.7027 122.902 68.6529 122.819 68.4536L122.105 66.7434C121.109 67.7064 119.914 68.3872 118.452 68.8687C118.403 68.8853 118.353 68.9019 118.303 68.9019C118.203 68.9019 118.137 68.8355 118.021 68.7193L116.892 67.5238C119.366 66.6936 120.96 65.7638 122.089 63.7381H121.508C120.246 65.548 118.685 66.3449 116.825 66.9925C116.726 67.0257 116.659 67.0423 116.609 67.0423C116.51 67.0423 116.443 66.9925 116.36 66.8929L115.231 65.631C116.958 65.1329 118.253 64.668 119.249 63.7381H118.386C117.755 64.203 117.008 64.6181 116.344 64.8506C116.277 64.8672 116.228 64.8838 116.178 64.8838C116.111 64.8838 116.028 64.8506 115.912 64.7344L115.497 64.3525C114.484 64.8008 113.222 65.2989 111.578 65.7804L111.429 65.6974L110.798 63.8046L110.881 63.6551C111.545 63.5057 112.143 63.3563 112.724 63.2068V58.8898L111.13 58.9396L111.014 58.84V57.0302L111.114 56.9306L112.724 56.9804V53.3774L112.84 53.2445H114.766L114.883 53.3608V56.9638L116.344 56.9306L116.443 57.0136V58.8566L116.344 58.9396L114.883 58.9064ZM124.164 63.7381H124.114C123.666 64.7842 123.052 65.7804 122.255 66.594C122.67 66.594 123.019 66.594 123.334 66.5608C123.666 66.5276 123.849 66.4113 123.932 66.0627C123.998 65.7638 124.114 64.9004 124.164 63.7381ZM122.753 59.2385H119.914L117.539 59.2883L117.423 59.1721L117.473 57.2959V55.3366L117.423 53.5434L117.539 53.4272L119.914 53.477H122.753L125.094 53.4272L125.243 53.5434L125.194 55.3366V57.2959L125.243 59.1721L125.127 59.2883L122.753 59.2385ZM122.952 57.0302H119.648V57.7442H122.952V57.0302ZM122.952 55.6355V54.9713H119.648V55.6355H122.952Z" fill="#231815"/>
<rect width="262" height="48" fill="#FFE553"/>
<path d="M144.785 68.1364H141.137C140.25 68.1364 140.068 68.1478 139.67 68.1932C139.739 67.5454 139.818 67.1476 139.966 66.7384C140.273 65.9087 140.784 65.1813 141.523 64.5107C141.921 64.1584 142.262 63.897 143.398 63.1355C144.444 62.4194 144.762 62.0444 144.762 61.4647C144.762 60.6919 144.16 60.2145 143.194 60.2145C142.535 60.2145 142.034 60.4418 141.75 60.8851C141.557 61.1579 141.478 61.4079 141.398 61.9307L139.773 61.7375C139.932 60.8737 140.136 60.4077 140.557 59.919C141.125 59.2598 142.023 58.9075 143.16 58.9075C145.149 58.9075 146.376 59.8622 146.376 61.4193C146.376 62.1694 146.126 62.715 145.569 63.2378C145.251 63.5333 145.137 63.6242 143.66 64.6358C143.16 64.9881 142.591 65.4655 142.307 65.7723C141.966 66.136 141.83 66.3633 141.659 66.7952H144.842C145.558 66.7952 146.126 66.7611 146.501 66.7043V68.2046C145.967 68.1591 145.512 68.1364 144.785 68.1364ZM151.637 68.3182C150.671 68.3182 149.853 68 149.251 67.3976C148.91 67.0566 148.648 66.6588 148.501 66.2497C148.205 65.4427 148.057 64.5562 148.057 63.6356C148.057 62.4308 148.33 61.1806 148.751 60.4873C149.364 59.4644 150.387 58.9075 151.649 58.9075C152.615 58.9075 153.445 59.2257 154.047 59.8281C154.388 60.169 154.649 60.5668 154.797 60.976C155.093 61.7716 155.24 62.6809 155.24 63.6128C155.24 65.0108 154.934 66.2383 154.399 66.9771C153.763 67.8636 152.82 68.3182 151.637 68.3182ZM151.649 66.9998C152.149 66.9998 152.592 66.8293 152.876 66.5225C153.388 65.9883 153.672 64.9313 153.672 63.6015C153.672 62.2831 153.388 61.2488 152.876 60.6919C152.604 60.385 152.149 60.2145 151.637 60.2145C151.092 60.2145 150.694 60.3964 150.365 60.7942C149.864 61.3852 149.614 62.3172 149.614 63.556C149.614 64.7494 149.83 65.7382 150.194 66.2611C150.546 66.7611 151.024 66.9998 151.649 66.9998ZM161.877 68.1364H158.229C157.342 68.1364 157.16 68.1478 156.762 68.1932C156.831 67.5454 156.91 67.1476 157.058 66.7384C157.365 65.9087 157.876 65.1813 158.615 64.5107C159.013 64.1584 159.354 63.897 160.49 63.1355C161.536 62.4194 161.854 62.0444 161.854 61.4647C161.854 60.6919 161.252 60.2145 160.286 60.2145C159.627 60.2145 159.126 60.4418 158.842 60.8851C158.649 61.1579 158.57 61.4079 158.49 61.9307L156.865 61.7375C157.024 60.8737 157.228 60.4077 157.649 59.919C158.217 59.2598 159.115 58.9075 160.252 58.9075C162.241 58.9075 163.468 59.8622 163.468 61.4193C163.468 62.1694 163.218 62.715 162.661 63.2378C162.343 63.5333 162.229 63.6242 160.752 64.6358C160.252 64.9881 159.683 65.4655 159.399 65.7723C159.058 66.136 158.922 66.3633 158.751 66.7952H161.934C162.65 66.7952 163.218 66.7611 163.593 66.7043V68.2046C163.059 68.1591 162.604 68.1364 161.877 68.1364ZM172.514 64.6585V66.1133C172.094 66.0565 171.855 66.0451 171.378 66.0337H170.969V66.8407C170.969 67.4204 170.991 67.7159 171.059 68.1364H169.446C169.514 67.7386 169.536 67.3863 169.536 66.818V66.0337H166.388C165.718 66.0337 165.354 66.0451 164.967 66.0792V64.6812C165.354 64.2607 165.479 64.1129 165.877 63.6356L168.57 60.3395C169.07 59.7371 169.252 59.4985 169.514 59.0893H171.048C170.98 59.7485 170.969 60.1463 170.969 61.0101V64.738H171.366C171.821 64.738 172.094 64.7153 172.514 64.6585ZM169.548 64.7494V62.3967C169.548 61.8625 169.559 61.4988 169.605 61.0328C169.377 61.3624 169.241 61.5443 168.832 62.0444L166.65 64.7494H169.548ZM175.605 68.1364H173.945V66.477H175.605V68.1364ZM185.924 68.2182H180.087C178.668 68.2182 178.377 68.2364 177.741 68.3091C177.85 67.2726 177.977 66.6361 178.214 65.9815C178.705 64.6539 179.523 63.4901 180.705 62.4172C181.341 61.8534 181.887 61.4352 183.705 60.2168C185.378 59.0711 185.888 58.471 185.888 57.5436C185.888 56.307 184.924 55.5432 183.378 55.5432C182.323 55.5432 181.523 55.9069 181.069 56.6161C180.759 57.0526 180.632 57.4526 180.505 58.2892L177.904 57.98C178.159 56.5979 178.486 55.8524 179.159 55.0704C180.068 54.0157 181.505 53.4519 183.324 53.4519C186.506 53.4519 188.47 54.9795 188.47 57.4708C188.47 58.671 188.07 59.5439 187.179 60.3804C186.67 60.8533 186.488 60.9987 184.124 62.6172C183.324 63.181 182.414 63.9447 181.96 64.4357C181.414 65.0176 181.196 65.3813 180.923 66.0724H186.015C187.161 66.0724 188.07 66.0178 188.67 65.9269V68.3273C187.815 68.2546 187.088 68.2182 185.924 68.2182ZM194.215 68.2182H191.56V65.5632H194.215V68.2182ZM202.39 68.2182H199.644C199.753 67.509 199.789 66.7998 199.789 65.8542V55.8342H198.916C198.243 55.8342 197.716 55.8705 197.043 55.9433V53.6338C197.607 53.7247 198.007 53.7429 198.862 53.7429H200.535C201.462 53.7429 201.735 53.7247 202.39 53.652C202.281 54.7249 202.244 55.5614 202.244 56.6525V65.8542C202.244 66.818 202.281 67.4726 202.39 68.2182ZM240.032 68.2182H234.194C232.776 68.2182 232.485 68.2364 231.848 68.3091C231.958 67.2726 232.085 66.6361 232.321 65.9815C232.812 64.6539 233.631 63.4901 234.813 62.4172C235.449 61.8534 235.995 61.4352 237.813 60.2168C239.486 59.0711 239.995 58.471 239.995 57.5436C239.995 56.307 239.032 55.5432 237.486 55.5432C236.431 55.5432 235.631 55.9069 235.176 56.6161C234.867 57.0526 234.74 57.4526 234.613 58.2892L232.012 57.98C232.267 56.5979 232.594 55.8524 233.267 55.0704C234.176 54.0157 235.613 53.4519 237.431 53.4519C240.614 53.4519 242.578 54.9795 242.578 57.4708C242.578 58.671 242.178 59.5439 241.287 60.3804C240.777 60.8533 240.596 60.9987 238.231 62.6172C237.431 63.181 236.522 63.9447 236.067 64.4357C235.522 65.0176 235.304 65.3813 235.031 66.0724H240.123C241.268 66.0724 242.178 66.0178 242.778 65.9269V68.3273C241.923 68.2546 241.196 68.2182 240.032 68.2182ZM248.323 68.2182H245.668V65.5632H248.323V68.2182ZM259.334 68.2182H253.497C252.078 68.2182 251.787 68.2364 251.151 68.3091C251.26 67.2726 251.387 66.6361 251.624 65.9815C252.115 64.6539 252.933 63.4901 254.115 62.4172C254.752 61.8534 255.297 61.4352 257.116 60.2168C258.789 59.0711 259.298 58.471 259.298 57.5436C259.298 56.307 258.334 55.5432 256.788 55.5432C255.734 55.5432 254.933 55.9069 254.479 56.6161C254.17 57.0526 254.042 57.4526 253.915 58.2892L251.315 57.98C251.569 56.5979 251.897 55.8524 252.569 55.0704C253.479 54.0157 254.915 53.4519 256.734 53.4519C259.916 53.4519 261.88 54.9795 261.88 57.4708C261.88 58.671 261.48 59.5439 260.589 60.3804C260.08 60.8533 259.898 60.9987 257.534 62.6172C256.734 63.181 255.825 63.9447 255.37 64.4357C254.824 65.0176 254.606 65.3813 254.333 66.0724H259.425C260.571 66.0724 261.48 66.0178 262.08 65.9269V68.3273C261.226 68.2546 260.498 68.2182 259.334 68.2182Z" fill="#231815"/>
<path d="M24.456 21.904L24.52 18.224C26.024 18.608 27.688 18.736 30.312 18.736C31.432 18.736 32.136 18.736 33.256 18.672C33.256 16.784 33.224 15.184 33.224 13.872C33.224 13.168 33.192 12.688 33.128 12.336L37.128 12.24C36.968 13.136 36.904 14.672 36.904 16.944C36.904 17.296 36.904 17.776 36.904 18.416C38.568 18.224 39.976 17.968 41.224 17.648C41.416 17.584 41.416 17.584 41.928 17.392L42.184 17.328L42.312 20.944C41.992 20.976 41.96 20.976 41.384 21.104C40.296 21.328 38.632 21.616 36.936 21.808C36.936 22.096 36.936 22.096 36.936 22.512C36.936 24.304 36.936 24.368 37.256 29.744C39.56 30.832 40.36 31.28 42.28 32.656C42.696 32.944 42.856 33.04 43.176 33.2L41.64 37.072C41.096 36.432 40.136 35.6 39.24 35.024C38.152 34.32 37.416 33.84 37.224 33.712C37.224 33.904 37.224 33.968 37.224 34.16C37.224 34.864 37.128 35.504 36.968 35.952C36.232 37.84 33.992 38.96 30.888 38.96C26.696 38.96 24.136 36.976 24.136 33.712C24.136 30.608 26.856 28.432 30.728 28.432C31.912 28.432 32.712 28.56 33.576 28.88C33.48 28.08 33.448 26.512 33.32 22.064C32.04 22.096 31.272 22.128 30.44 22.128C29.256 22.128 27.976 22.096 26.472 21.968C26.024 21.968 25.672 21.936 25.512 21.936C25.224 21.904 25.032 21.904 24.968 21.904C24.808 21.872 24.712 21.872 24.648 21.872C24.616 21.872 24.552 21.872 24.456 21.904ZM33.64 32.144C32.584 31.76 31.976 31.632 31.016 31.632C28.968 31.632 27.688 32.432 27.688 33.744C27.688 34.928 28.84 35.728 30.632 35.728C31.816 35.728 32.744 35.376 33.224 34.736C33.512 34.352 33.64 33.872 33.64 33.008C33.64 32.656 33.64 32.144 33.64 32.144ZM21.128 38.96L17.288 39.184C17.256 38.864 17.256 38.672 17.128 37.936C16.52 34.192 16.264 31.12 16.264 27.76C16.264 24.88 16.456 22.064 16.872 19.28C17.032 18.32 17.032 18.32 17.736 14.704C17.96 13.584 18.088 12.656 18.088 12.336C18.088 12.304 18.088 12.272 18.088 12.208L22.408 12.656C21.096 15.44 19.88 23.152 19.848 28.72C19.816 29.872 19.816 29.872 19.816 30.384C19.816 30.608 19.816 30.608 19.816 30.896C19.816 31.152 19.816 31.216 19.784 31.568H19.816C19.976 31.216 19.976 31.216 20.2 30.64C20.264 30.416 20.424 30.064 20.584 29.552C20.872 28.88 20.872 28.88 21.192 28.112C21.256 28.016 21.288 27.92 21.576 27.12L24.232 28.304C22.344 32.016 21.064 35.984 21.064 38.096C21.064 38.32 21.064 38.352 21.128 38.96ZM53.096 17.68L53.384 13.872C55.848 14.448 58.696 14.672 62.984 14.672C67.048 14.672 69.32 14.512 71.432 14.064L71.56 17.648C69.64 18.512 66.184 20.656 63.016 22.96L60.232 20.752C61.896 19.696 63.464 18.736 64.936 17.904C63.528 18.096 62.152 18.16 60.136 18.16C58.504 18.16 55.848 18 54.28 17.776C53.64 17.712 53.544 17.68 53.096 17.68ZM55.464 24.912L58.248 27.024C56.232 28.688 55.336 30.032 55.336 31.408C55.336 33.488 57.672 34.384 63.08 34.384C66.888 34.384 71.08 33.808 73.128 33.04L73.48 37.424C72.936 37.456 72.744 37.456 72.072 37.552C68.232 38.096 66.184 38.256 63.432 38.256C59.944 38.256 57.128 37.904 55.432 37.2C52.68 36.144 51.336 34.352 51.336 31.856C51.336 29.424 52.584 27.312 55.464 24.912ZM82.28 20.752L82.344 17.04C83.496 17.232 84.776 17.328 86.632 17.328C87.016 17.328 87.368 17.328 88.104 17.296C88.392 15.76 88.712 13.296 88.712 12.4C88.712 12.272 88.712 12.08 88.68 11.824L92.904 12.208C92.712 12.912 92.68 13.072 92.392 14.704C92.328 15.088 92.264 15.536 92.168 16.112C92.136 16.272 92.072 16.528 91.976 17.104C94.056 16.912 95.944 16.592 97.448 16.144L97.608 19.824C97.448 19.856 97.352 19.856 97.32 19.856L96.584 19.984C94.44 20.368 92.104 20.656 91.336 20.656C90.152 26.832 88.552 32.176 85.768 39.504L81.736 37.936C83.816 34.224 86.376 26.512 87.464 20.784C87.304 20.784 87.176 20.784 87.144 20.784L86.44 20.752H84.904C84.872 20.752 84.584 20.752 84.168 20.752C83.72 20.72 83.144 20.72 82.888 20.72C82.728 20.72 82.568 20.72 82.28 20.752ZM100.2 13.808L102.44 12.688C103.848 14.192 104.712 15.408 105.8 17.392L103.56 18.576C102.504 16.624 101.608 15.344 100.2 13.808ZM107.656 21.424L107.72 25.232C106.184 25.072 105.288 25.008 103.688 25.008C100.52 25.008 98.408 25.232 95.24 25.968L94.952 22.416C99.464 21.552 101.032 21.392 104.488 21.392C105.448 21.392 106.184 21.392 107.656 21.424ZM95.048 28.144L98.216 29.424C96.936 31.056 96.552 31.824 96.552 32.976C96.552 34.608 98.152 35.44 101.352 35.44C103.688 35.44 106.76 34.928 108.616 34.256L108.904 38.16C108.328 38.224 108.168 38.256 107.336 38.384C104.68 38.8 103.272 38.928 101.384 38.928C98.536 38.928 96.488 38.512 94.952 37.648C93.576 36.848 92.68 35.312 92.68 33.712C92.68 32.016 93.288 30.576 95.048 28.144ZM109.608 15.312L107.4 16.56C106.44 14.8 105.384 13.296 104.136 11.92L106.28 10.8C107.72 12.272 108.616 13.488 109.608 15.312ZM115.592 19.92L115.368 15.76C116.072 15.792 116.424 15.792 116.584 15.792C117.16 15.792 117.16 15.792 121.864 15.472C123.656 15.376 128.968 15.088 137.832 14.672C140.456 14.544 140.936 14.512 141.512 14.352L141.736 18.448C141.384 18.416 141.384 18.416 141.064 18.416C139.144 18.416 136.776 19.056 134.728 20.144C130.664 22.256 128.264 25.456 128.264 28.688C128.264 31.184 129.832 33.104 132.52 33.904C134.088 34.384 136.136 34.736 137.288 34.736C137.32 34.736 137.608 34.736 137.928 34.704L137.352 39.056C136.968 38.96 136.808 38.928 136.264 38.864C132.744 38.416 130.728 37.84 128.776 36.752C125.832 35.088 124.2 32.368 124.2 29.04C124.2 26.32 125.288 23.632 127.24 21.488C128.456 20.176 129.608 19.344 131.688 18.288C129.096 18.672 127.848 18.768 120.904 19.28C118.76 19.44 116.84 19.664 115.592 19.92ZM163.56 15.216H170.536C172.456 15.216 173.512 15.152 174.408 14.992V18.704C173.416 18.544 172.392 18.512 170.568 18.512H163.56V22.96H172.328C174.12 22.96 175.208 22.896 176.2 22.768V26.48C175.112 26.352 173.96 26.288 172.328 26.288H165.16C168.296 30.736 171.752 33.488 177.128 35.824C176.136 37.104 175.784 37.68 174.952 39.28C172.072 37.68 170.472 36.56 168.328 34.64C166.088 32.656 165.096 31.472 163.464 28.912C163.528 30.736 163.56 31.248 163.56 31.888V37.168C163.56 38.448 163.624 39.536 163.784 40.624H159.752C159.912 39.632 159.976 38.608 159.976 37.2V32.048C159.976 30.992 159.976 30.544 160.072 29.04C158.664 31.248 157.544 32.592 155.592 34.384C153.576 36.304 151.752 37.616 149.256 39.088C148.52 37.744 148.072 37.072 147.048 35.856C149.768 34.576 152.072 33.008 154.44 30.864C155.912 29.488 157.064 28.144 158.376 26.288H151.912C150.344 26.288 149.288 26.352 148.072 26.48V22.768C149.288 22.896 150.184 22.96 151.88 22.96H159.976V18.512H153.704C151.944 18.512 150.952 18.544 149.832 18.704V14.992C150.92 15.152 151.848 15.216 153.672 15.216H159.976V13.264C159.976 12.336 159.944 11.696 159.816 10.992H163.72C163.592 11.696 163.56 12.176 163.56 13.296V15.216ZM191.304 27.792H184.808C183.272 27.792 182.28 27.856 181.064 27.984V24.368C182.152 24.528 183.016 24.56 184.776 24.56H187.528C186.824 22.48 186.184 21.104 185.064 19.216L188.072 17.872C189.16 19.728 189.512 20.4 190.728 23.44L188.2 24.56H193.352V17.584H186.12C184.648 17.584 183.656 17.648 182.568 17.776V14.192C183.688 14.352 184.68 14.416 186.312 14.416H193.352V13.52C193.352 12.528 193.288 11.92 193.192 11.056H197.032C196.904 11.824 196.872 12.464 196.872 13.552V14.416H204.488C206.344 14.416 207.4 14.352 208.296 14.192V17.776C207.336 17.616 206.344 17.584 204.712 17.584H196.872V24.56H199.048C200.488 22.256 201.416 20.368 202.184 18.096L205.544 19.184C204.744 21.136 204.072 22.448 202.76 24.56H206.12C208.04 24.56 208.936 24.528 209.8 24.368V27.984C208.712 27.856 207.592 27.792 205.96 27.792H198.92C201.672 31.536 205.16 34.096 210.408 36.24C209.448 37.392 208.936 38.192 208.264 39.6C205.096 37.968 203.144 36.688 201 34.768C199.272 33.2 198.184 31.952 196.744 29.84C196.84 31.568 196.872 32.208 196.872 32.88V37.392C196.872 38.608 196.936 39.632 197.096 40.656H193.128C193.288 39.632 193.352 38.736 193.352 37.392V32.912C193.352 31.92 193.352 31.312 193.448 29.936C191.944 32.336 190.44 34.032 188.136 35.952C186.376 37.392 184.712 38.512 182.728 39.536C181.96 38.16 181.512 37.456 180.552 36.336C183.496 35.024 185.96 33.424 188.392 31.184C189.352 30.288 190.12 29.392 191.304 27.792ZM237.832 30.544L240.84 31.856C240.008 32.592 239.944 32.656 239.464 33.04C237.8 34.544 237.672 34.64 236.808 35.248C238.824 36.336 240.488 36.88 243.656 37.456C242.632 38.608 242.216 39.28 241.608 40.72C237.256 39.44 234.728 38.16 232.072 35.824V38.256C229.512 38.864 226.376 39.472 220.712 40.464C220.168 40.56 220.008 40.592 219.464 40.72L218.92 37.072C219.208 37.072 219.368 37.072 219.496 37.072C220.232 37.072 221.192 36.976 222.728 36.816V30.544H219.464C218.92 34.864 217.992 37.712 216.136 40.88C215.208 39.728 214.504 38.992 213.256 37.968C214.472 36.048 215.176 34.32 215.688 31.792C216.328 28.624 216.68 23.632 216.68 17.072C216.68 14.16 216.648 13.328 216.488 11.984C217.608 12.112 218.824 12.144 220.68 12.144H238.056C239.816 12.144 240.776 12.112 241.768 12.016C241.704 12.88 241.672 13.648 241.672 14.864V17.36C241.672 18.672 241.672 19.312 241.768 20.144C240.712 20.08 239.528 20.048 238.248 20.048H236.392V22.192H238.248C240.104 22.192 240.648 22.16 241.416 22.064V25.264C240.52 25.168 239.432 25.136 238.184 25.136H236.392V27.6H239.208C241 27.6 241.992 27.568 242.824 27.44V30.704C241.736 30.608 240.616 30.544 239.272 30.544H237.832ZM237.384 30.544H231.752C232.36 31.728 233 32.528 234.248 33.552C235.496 32.656 236.616 31.568 237.384 30.544ZM228.264 30.544H226.088V36.336C227.912 36.08 228.36 35.984 231.528 35.344C229.96 33.776 229.192 32.656 228.264 30.544ZM224.84 22.192V20.432V20.048H220.04C220.008 23.568 219.944 25.456 219.752 27.6H224.84V25.136H223.624C222.44 25.136 221.64 25.168 220.904 25.264V22.064C221.608 22.16 222.376 22.192 223.624 22.192H224.84ZM228.136 27.6H233.096V25.136H228.136V27.6ZM228.136 22.192H233.096V20.048H228.136V22.192ZM220.072 17.328H238.344V15.088H220.072V17.328Z" fill="#231815"/>
<path d="M208.989 59.2551H208.153C208.187 59.0393 208.198 58.8234 208.198 58.5356V55.4861H207.932C207.727 55.4861 207.567 55.4971 207.362 55.5193V54.8164C207.533 54.8441 207.655 54.8496 207.915 54.8496H208.425C208.707 54.8496 208.79 54.8441 208.989 54.8219C208.956 55.1485 208.945 55.4031 208.945 55.7351V58.5356C208.945 58.829 208.956 59.0282 208.989 59.2551ZM212.248 59.3437C211.778 59.3437 211.38 59.1887 211.086 58.8954C210.92 58.7293 210.793 58.5356 210.721 58.3364C210.577 57.9434 210.505 57.5117 210.505 57.0634C210.505 56.4768 210.638 55.868 210.843 55.5304C211.142 55.0322 211.64 54.761 212.254 54.761C212.724 54.761 213.128 54.916 213.422 55.2093C213.588 55.3754 213.715 55.5691 213.787 55.7683C213.931 56.1558 214.003 56.5985 214.003 57.0524C214.003 57.7331 213.854 58.3309 213.593 58.6906C213.283 59.1223 212.824 59.3437 212.248 59.3437ZM212.254 58.7017C212.498 58.7017 212.713 58.6187 212.852 58.4692C213.101 58.2091 213.239 57.6944 213.239 57.0468C213.239 56.4048 213.101 55.9012 212.852 55.63C212.719 55.4805 212.498 55.3975 212.248 55.3975C211.983 55.3975 211.789 55.4861 211.629 55.6798C211.385 55.9676 211.263 56.4214 211.263 57.0247C211.263 57.6058 211.368 58.0873 211.546 58.3419C211.717 58.5854 211.95 58.7017 212.254 58.7017ZM214.401 56.0783H215.209V56.8863H214.401V56.0783ZM214.401 58.4471H215.209V59.2551H214.401V58.4471ZM217.348 59.3437C216.878 59.3437 216.479 59.1887 216.186 58.8954C216.02 58.7293 215.893 58.5356 215.821 58.3364C215.677 57.9434 215.605 57.5117 215.605 57.0634C215.605 56.4768 215.738 55.868 215.943 55.5304C216.241 55.0322 216.739 54.761 217.354 54.761C217.824 54.761 218.228 54.916 218.522 55.2093C218.688 55.3754 218.815 55.5691 218.887 55.7683C219.031 56.1558 219.103 56.5985 219.103 57.0524C219.103 57.7331 218.953 58.3309 218.693 58.6906C218.383 59.1223 217.924 59.3437 217.348 59.3437ZM217.354 58.7017C217.597 58.7017 217.813 58.6187 217.952 58.4692C218.201 58.2091 218.339 57.6944 218.339 57.0468C218.339 56.4048 218.201 55.9012 217.952 55.63C217.819 55.4805 217.597 55.3975 217.348 55.3975C217.083 55.3975 216.889 55.4861 216.728 55.6798C216.485 55.9676 216.363 56.4214 216.363 57.0247C216.363 57.6058 216.468 58.0873 216.645 58.3419C216.817 58.5854 217.049 58.7017 217.354 58.7017ZM221.122 59.3437C220.652 59.3437 220.253 59.1887 219.96 58.8954C219.794 58.7293 219.667 58.5356 219.595 58.3364C219.451 57.9434 219.379 57.5117 219.379 57.0634C219.379 56.4768 219.512 55.868 219.717 55.5304C220.016 55.0322 220.514 54.761 221.128 54.761C221.598 54.761 222.002 54.916 222.296 55.2093C222.462 55.3754 222.589 55.5691 222.661 55.7683C222.805 56.1558 222.877 56.5985 222.877 57.0524C222.877 57.7331 222.727 58.3309 222.467 58.6906C222.157 59.1223 221.698 59.3437 221.122 59.3437ZM221.128 58.7017C221.371 58.7017 221.587 58.6187 221.726 58.4692C221.975 58.2091 222.113 57.6944 222.113 57.0468C222.113 56.4048 221.975 55.9012 221.726 55.63C221.593 55.4805 221.371 55.3975 221.122 55.3975C220.857 55.3975 220.663 55.4861 220.503 55.6798C220.259 55.9676 220.137 56.4214 220.137 57.0247C220.137 57.6058 220.242 58.0873 220.42 58.3419C220.591 58.5854 220.824 58.7017 221.128 58.7017ZM208.989 67.2551H208.153C208.187 67.0393 208.198 66.8234 208.198 66.5356V63.4861H207.932C207.727 63.4861 207.567 63.4971 207.362 63.5193V62.8164C207.533 62.8441 207.655 62.8496 207.915 62.8496H208.425C208.707 62.8496 208.79 62.8441 208.989 62.8219C208.956 63.1485 208.945 63.4031 208.945 63.7351V66.5356C208.945 66.829 208.956 67.0282 208.989 67.2551ZM210.621 66.3862L211.385 66.187C211.451 66.3475 211.49 66.4194 211.557 66.4914C211.695 66.6408 211.911 66.7183 212.193 66.7183C212.459 66.7183 212.664 66.6463 212.819 66.4914C213.095 66.2257 213.223 65.8272 213.25 65.1741C213.145 65.3291 213.084 65.3955 212.957 65.4896C212.708 65.6612 212.426 65.7442 212.06 65.7442C211.142 65.7442 210.555 65.1797 210.555 64.2886C210.555 63.7241 210.804 63.2647 211.258 62.988C211.512 62.8275 211.844 62.7444 212.226 62.7444C212.935 62.7444 213.516 63.1595 213.748 63.8348C213.854 64.1336 213.909 64.5266 213.909 64.9804C213.909 65.8161 213.687 66.5467 213.322 66.9009C213.029 67.1943 212.669 67.3216 212.143 67.3216C211.678 67.3216 211.352 67.2219 211.075 67.0005C210.887 66.8511 210.782 66.7072 210.621 66.3862ZM212.171 65.1465C212.713 65.1465 213.123 64.759 213.123 64.2443C213.123 63.7241 212.741 63.3532 212.193 63.3532C211.662 63.3532 211.291 63.7296 211.291 64.2609C211.291 64.7978 211.634 65.1465 212.171 65.1465ZM214.401 64.0783H215.209V64.8863H214.401V64.0783ZM214.401 66.4471H215.209V67.2551H214.401V66.4471ZM217.348 67.3437C216.878 67.3437 216.479 67.1887 216.186 66.8954C216.02 66.7293 215.893 66.5356 215.821 66.3364C215.677 65.9434 215.605 65.5117 215.605 65.0634C215.605 64.4768 215.738 63.868 215.943 63.5304C216.241 63.0322 216.739 62.761 217.354 62.761C217.824 62.761 218.228 62.916 218.522 63.2093C218.688 63.3754 218.815 63.5691 218.887 63.7683C219.031 64.1558 219.103 64.5985 219.103 65.0524C219.103 65.7331 218.953 66.3309 218.693 66.6906C218.383 67.1223 217.924 67.3437 217.348 67.3437ZM217.354 66.7017C217.597 66.7017 217.813 66.6187 217.952 66.4692C218.201 66.2091 218.339 65.6944 218.339 65.0468C218.339 64.4048 218.201 63.9012 217.952 63.63C217.819 63.4805 217.597 63.3975 217.348 63.3975C217.083 63.3975 216.889 63.4861 216.728 63.6798C216.485 63.9676 216.363 64.4214 216.363 65.0247C216.363 65.6058 216.468 66.0873 216.645 66.3419C216.817 66.5854 217.049 66.7017 217.354 66.7017ZM221.122 67.3437C220.652 67.3437 220.253 67.1887 219.96 66.8954C219.794 66.7293 219.667 66.5356 219.595 66.3364C219.451 65.9434 219.379 65.5117 219.379 65.0634C219.379 64.4768 219.512 63.868 219.717 63.5304C220.016 63.0322 220.514 62.761 221.128 62.761C221.598 62.761 222.002 62.916 222.296 63.2093C222.462 63.3754 222.589 63.5691 222.661 63.7683C222.805 64.1558 222.877 64.5985 222.877 65.0524C222.877 65.7331 222.727 66.3309 222.467 66.6906C222.157 67.1223 221.698 67.3437 221.122 67.3437ZM221.128 66.7017C221.371 66.7017 221.587 66.6187 221.726 66.4692C221.975 66.2091 222.113 65.6944 222.113 65.0468C222.113 64.4048 221.975 63.9012 221.726 63.63C221.593 63.4805 221.371 63.3975 221.122 63.3975C220.857 63.3975 220.663 63.4861 220.503 63.6798C220.259 63.9676 220.137 64.4214 220.137 65.0247C220.137 65.6058 220.242 66.0873 220.42 66.3419C220.591 66.5854 220.824 66.7017 221.128 66.7017Z" fill="#231815"/>
<path d="M268.102 60.2929H267.267C267.3 60.077 267.311 59.8612 267.311 59.5734V56.5238H267.045C266.84 56.5238 266.68 56.5349 266.475 56.557V55.8541C266.647 55.8818 266.768 55.8873 267.029 55.8873H267.538C267.82 55.8873 267.903 55.8818 268.102 55.8596C268.069 56.1862 268.058 56.4408 268.058 56.7729V59.5734C268.058 59.8667 268.069 60.0659 268.102 60.2929ZM269.723 59.3077L270.487 59.1472C270.537 59.3077 270.576 59.3796 270.653 59.4682C270.808 59.6564 271.041 59.7505 271.334 59.7505C271.882 59.7505 272.242 59.3852 272.242 58.8373C272.242 58.2949 271.898 57.9462 271.373 57.9462C271.102 57.9462 270.858 58.0347 270.686 58.2008C270.609 58.2783 270.57 58.3281 270.52 58.4498L269.829 58.3834C269.884 57.9905 269.889 57.9628 269.901 57.8078L270.028 56.4352C270.033 56.3356 270.044 56.1474 270.05 55.8707C270.216 55.8818 270.343 55.8873 270.637 55.8873H271.998C272.38 55.8873 272.518 55.8818 272.767 55.843V56.5404C272.524 56.5072 272.308 56.4961 272.004 56.4961H270.703L270.614 57.4647C270.609 57.509 270.598 57.5864 270.581 57.6971C270.852 57.4647 271.146 57.3595 271.528 57.3595C271.976 57.3595 272.336 57.4924 272.607 57.7746C272.878 58.0403 273 58.3724 273 58.8151C273 59.7892 272.363 60.3925 271.334 60.3925C270.786 60.3925 270.376 60.2375 270.072 59.911C269.923 59.7505 269.845 59.6176 269.723 59.3077ZM273.514 57.116H274.322V57.924H273.514V57.116ZM273.514 59.4848H274.322V60.2929H273.514V59.4848ZM276.461 60.3814C275.991 60.3814 275.593 60.2264 275.299 59.9331C275.133 59.7671 275.006 59.5734 274.934 59.3741C274.79 58.9812 274.718 58.5495 274.718 58.1012C274.718 57.5145 274.851 56.9057 275.056 56.5681C275.355 56.07 275.853 55.7988 276.467 55.7988C276.937 55.7988 277.341 55.9537 277.635 56.2471C277.801 56.4131 277.928 56.6068 278 56.8061C278.144 57.1935 278.216 57.6363 278.216 58.0901C278.216 58.7708 278.066 59.3686 277.806 59.7283C277.496 60.16 277.037 60.3814 276.461 60.3814ZM276.467 59.7394C276.711 59.7394 276.926 59.6564 277.065 59.5069C277.314 59.2468 277.452 58.7321 277.452 58.0846C277.452 57.4425 277.314 56.9389 277.065 56.6677C276.932 56.5183 276.711 56.4352 276.461 56.4352C276.196 56.4352 276.002 56.5238 275.842 56.7175C275.598 57.0053 275.476 57.4591 275.476 58.0624C275.476 58.6435 275.581 59.1251 275.759 59.3796C275.93 59.6232 276.163 59.7394 276.467 59.7394ZM280.236 60.3814C279.765 60.3814 279.367 60.2264 279.073 59.9331C278.907 59.7671 278.78 59.5734 278.708 59.3741C278.564 58.9812 278.492 58.5495 278.492 58.1012C278.492 57.5145 278.625 56.9057 278.83 56.5681C279.129 56.07 279.627 55.7988 280.241 55.7988C280.712 55.7988 281.116 55.9537 281.409 56.2471C281.575 56.4131 281.702 56.6068 281.774 56.8061C281.918 57.1935 281.99 57.6363 281.99 58.0901C281.99 58.7708 281.841 59.3686 281.58 59.7283C281.271 60.16 280.811 60.3814 280.236 60.3814ZM280.241 59.7394C280.485 59.7394 280.7 59.6564 280.839 59.5069C281.088 59.2468 281.226 58.7321 281.226 58.0846C281.226 57.4425 281.088 56.9389 280.839 56.6677C280.706 56.5183 280.485 56.4352 280.236 56.4352C279.97 56.4352 279.776 56.5238 279.616 56.7175C279.372 57.0053 279.25 57.4591 279.25 58.0624C279.25 58.6435 279.356 59.1251 279.533 59.3796C279.704 59.6232 279.937 59.7394 280.241 59.7394ZM268.102 68.2929H267.267C267.3 68.077 267.311 67.8612 267.311 67.5734V64.5238H267.045C266.84 64.5238 266.68 64.5349 266.475 64.557V63.8541C266.647 63.8818 266.768 63.8873 267.029 63.8873H267.538C267.82 63.8873 267.903 63.8818 268.102 63.8596C268.069 64.1862 268.058 64.4408 268.058 64.7729V67.5734C268.058 67.8667 268.069 68.0659 268.102 68.2929ZM269.734 67.4239L270.498 67.2247C270.565 67.3852 270.603 67.4571 270.67 67.5291C270.808 67.6785 271.024 67.756 271.306 67.756C271.572 67.756 271.777 67.684 271.932 67.5291C272.208 67.2634 272.336 66.8649 272.363 66.2118C272.258 66.3668 272.197 66.4332 272.07 66.5273C271.821 66.6989 271.539 66.7819 271.173 66.7819C270.255 66.7819 269.668 66.2174 269.668 65.3263C269.668 64.7618 269.917 64.3024 270.371 64.0257C270.626 63.8652 270.958 63.7822 271.34 63.7822C272.048 63.7822 272.629 64.1973 272.862 64.8725C272.967 65.1713 273.022 65.5643 273.022 66.0181C273.022 66.8539 272.801 67.5844 272.435 67.9386C272.142 68.232 271.782 68.3593 271.256 68.3593C270.792 68.3593 270.465 68.2596 270.188 68.0383C270 67.8888 269.895 67.7449 269.734 67.4239ZM271.284 66.1842C271.827 66.1842 272.236 65.7968 272.236 65.282C272.236 64.7618 271.854 64.391 271.306 64.391C270.775 64.391 270.404 64.7673 270.404 65.2986C270.404 65.8355 270.747 66.1842 271.284 66.1842ZM273.514 65.116H274.322V65.924H273.514V65.116ZM273.514 67.4848H274.322V68.2929H273.514V67.4848ZM276.461 68.3814C275.991 68.3814 275.593 68.2264 275.299 67.9331C275.133 67.7671 275.006 67.5734 274.934 67.3741C274.79 66.9812 274.718 66.5495 274.718 66.1012C274.718 65.5145 274.851 64.9057 275.056 64.5681C275.355 64.07 275.853 63.7988 276.467 63.7988C276.937 63.7988 277.341 63.9537 277.635 64.2471C277.801 64.4131 277.928 64.6068 278 64.8061C278.144 65.1935 278.216 65.6362 278.216 66.0901C278.216 66.7708 278.066 67.3686 277.806 67.7283C277.496 68.16 277.037 68.3814 276.461 68.3814ZM276.467 67.7394C276.711 67.7394 276.926 67.6564 277.065 67.5069C277.314 67.2468 277.452 66.7321 277.452 66.0846C277.452 65.4425 277.314 64.9389 277.065 64.6677C276.932 64.5183 276.711 64.4352 276.461 64.4352C276.196 64.4352 276.002 64.5238 275.842 64.7175C275.598 65.0053 275.476 65.4591 275.476 66.0624C275.476 66.6435 275.581 67.1251 275.759 67.3796C275.93 67.6232 276.163 67.7394 276.467 67.7394ZM280.236 68.3814C279.765 68.3814 279.367 68.2264 279.073 67.9331C278.907 67.7671 278.78 67.5734 278.708 67.3741C278.564 66.9812 278.492 66.5495 278.492 66.1012C278.492 65.5145 278.625 64.9057 278.83 64.5681C279.129 64.07 279.627 63.7988 280.241 63.7988C280.712 63.7988 281.116 63.9537 281.409 64.2471C281.575 64.4131 281.702 64.6068 281.774 64.8061C281.918 65.1935 281.99 65.6362 281.99 66.0901C281.99 66.7708 281.841 67.3686 281.58 67.7283C281.271 68.16 280.811 68.3814 280.236 68.3814ZM280.241 67.7394C280.485 67.7394 280.7 67.6564 280.839 67.5069C281.088 67.2468 281.226 66.7321 281.226 66.0846C281.226 65.4425 281.088 64.9389 280.839 64.6677C280.706 64.5183 280.485 64.4352 280.236 64.4352C279.97 64.4352 279.776 64.5238 279.616 64.7175C279.372 65.0053 279.25 65.4591 279.25 66.0624C279.25 66.6435 279.356 67.1251 279.533 67.3796C279.704 67.6232 279.937 67.7394 280.241 67.7394Z" fill="#231815"/>
<path d="M30.1608 95.1276L29.9782 95.1608C29.3971 94.48 28.8159 93.9155 28.3012 93.5336C28.0023 95.0944 26.8567 95.7419 25.0967 95.7419C23.3699 95.7419 21.7759 94.9947 21.7759 93.1517C21.7759 91.3253 23.4363 90.5117 24.9472 90.5117C25.4287 90.4951 25.5948 90.5283 25.9933 90.5781C25.9435 89.5321 25.9103 88.4196 25.877 87.191C24.7314 87.274 23.5193 87.3072 22.3903 87.3238L22.274 87.191L22.2242 85.1653L22.3404 85.0657C23.5525 85.0657 24.6982 85.0325 25.8272 84.9661C25.794 84.1359 25.794 83.2227 25.794 82.2928L25.9269 82.1434H28.1186L28.2514 82.2762C28.2514 83.123 28.2348 83.9532 28.2348 84.7502C28.9155 84.6672 29.6129 84.5676 30.2604 84.4679L30.4265 84.551L30.7254 86.56L30.6257 86.6928C29.945 86.8091 29.1314 86.9253 28.2514 87.0083C28.268 88.5027 28.3344 89.914 28.4174 91.1593C29.7291 91.7072 30.6589 92.4212 31.4725 93.2181L31.4559 93.4008L30.1608 95.1276ZM25.9601 92.554C25.6612 92.4544 25.4121 92.3879 24.8974 92.4045C24.2333 92.4045 23.8846 92.6702 23.8846 93.0189C23.8846 93.3012 24.1337 93.5834 24.9306 93.5834C25.8272 93.5834 26.0099 93.2679 25.9601 92.554ZM18.2227 82.2264L18.3389 82.1434L20.597 82.4589L20.6967 82.6083C20.6635 83.5879 20.4808 84.634 20.0491 86.3608C19.6672 87.8551 19.4348 89.7313 19.4348 91.043C19.4348 91.3751 19.4514 91.7072 19.5344 92.0725C19.6174 92.4045 19.717 92.4378 20.0325 92.1223C20.3646 91.7902 20.6137 91.4581 20.8627 91.0762L21.3608 91.3419C20.7133 93.1849 20.5804 93.8657 20.4974 94.9947C20.4642 95.7253 20.0159 96.0906 19.4016 96.1072C18.8703 96.1072 18.3887 95.7585 18.0899 95.3766C17.5586 94.6461 17.1435 93.3344 17.1435 91.4415C17.1435 89.831 17.3261 87.4898 17.7412 85.6136C18.0069 84.3849 18.2061 83.2393 18.2227 82.2264ZM36.2046 83.2227L36.3208 83.1396C37.3171 83.2393 38.2967 83.2891 39.2763 83.2891C40.8703 83.2891 42.6635 83.123 44.4069 82.874L44.5231 82.9736L44.5895 85.3147L44.4567 85.431C42.8793 85.7132 41.1193 85.8461 39.2597 85.8461C38.3299 85.8461 37.2506 85.7962 36.2544 85.6966L36.1216 85.5804L36.2046 83.2227ZM34.2952 91.3087L34.3782 91.1925L36.4371 90.5117L36.5699 90.5781C36.8521 92.3049 37.7488 92.5706 40.5216 92.5706C42.265 92.5706 44.0914 92.4212 45.868 92.1555L46.0174 92.2717L46.2499 94.7623L46.1503 94.9117C44.2076 95.1276 42.1986 95.1774 40.3555 95.1774C35.391 95.1774 34.4944 93.1683 34.2952 91.3087ZM60.5125 83.2725L60.5291 83.123L61.3925 82.5087L61.5586 82.4921C62.1729 83.0068 62.754 83.5879 63.2522 84.2521L63.2356 84.4181L62.3223 85.0657H62.1563C61.6416 84.3849 61.1767 83.837 60.5125 83.2725ZM62.0733 82.2264L62.0899 82.077L62.9367 81.4627L63.1027 81.4461C63.7171 81.9608 64.2484 82.4921 64.7465 83.1562L64.7299 83.3223L63.8665 83.9532H63.7005C63.1857 83.2725 62.7374 82.791 62.0733 82.2264ZM50.5835 95.6091L50.5171 95.4762C51.3639 92.3215 52.111 89.6317 52.8582 86.9087C52.0114 87.0083 51.1812 87.0913 50.351 87.1411L50.2182 87.0249L50.0522 85.0159L50.1684 84.883C51.3971 84.7834 52.4763 84.6672 53.4891 84.5344C53.7382 83.6045 54.0039 82.6249 54.2695 81.6453L54.4189 81.5623L56.6937 81.911L56.8099 82.0604C56.594 82.7411 56.3782 83.4883 56.1956 84.1525C56.8597 84.0362 57.5239 83.9034 58.1382 83.7706L58.271 83.837L58.4205 85.9125L58.3042 86.0453C57.4076 86.2113 56.4612 86.3774 55.5314 86.5268C54.6514 89.5985 53.8378 92.637 52.991 96.0408L52.8416 96.1072L50.5835 95.6091ZM56.0627 94.1479V93.9653L57.2748 92.4378L57.4408 92.4212C58.271 93.3178 59.0514 93.5502 60.9442 93.5502C61.9571 93.5502 63.0529 93.4672 63.9661 93.2845L64.0989 93.351V95.6755L63.9993 95.8083C62.9699 95.9412 62.2227 95.991 60.8612 95.991C57.9556 95.991 57.0257 95.3102 56.0627 94.1479ZM57.7397 89.0506L57.6235 88.9344L57.7729 86.8921L57.8891 86.7427C58.7193 86.6762 59.5329 86.643 60.3133 86.643C61.4423 86.643 62.5216 86.7095 63.468 86.8423L63.5842 86.9751L63.4182 89.034L63.2688 89.1336C62.1397 89.034 61.0439 88.9676 59.865 88.9676C59.1842 88.9676 58.4869 89.0008 57.7397 89.0506ZM67.3865 87.5064L67.2371 87.44L66.6891 85.2483L66.7556 85.1155C71.388 83.9864 75.0907 83.2227 79.7729 82.3759L79.9224 82.4589L80.4039 84.6672L80.2876 84.8166C78.4446 84.9494 76.834 85.2815 75.8212 86.1117C74.2771 87.357 73.4137 88.8679 73.4137 90.4287C73.4137 91.7072 74.0446 92.3713 75.0242 92.6702C75.9374 92.9525 77.2657 93.0521 78.9925 93.0355L79.1088 93.1517L78.9759 95.6755L78.8431 95.7751C76.7676 95.8083 74.9578 95.5925 73.5963 95.0113C71.9525 94.314 70.9231 92.9193 70.9231 90.6611C70.9231 88.6189 72.0688 86.8589 73.148 85.9789C71.5208 86.3774 69.7442 86.8423 67.3865 87.5064ZM90.8974 96.1902L89.0378 94.8619C91.1465 94.1479 92.3088 92.6204 92.8733 91.2755C91.7775 90.7608 90.6816 90.4453 89.4529 90.3291C88.7058 92.1389 88.2907 93.1517 87.859 93.7993C87.2778 94.6793 86.5141 95.1608 85.2854 95.1608C83.7578 95.1608 82.911 93.8491 82.911 92.554C82.911 90.1298 84.4884 88.5193 87.7759 88.1042C88.2907 86.7925 88.5563 86.0121 89.0046 84.6672C88.2574 84.8166 87.3442 84.9993 86.2982 85.1985L86.1488 85.0823L85.6839 83.0068L85.7669 82.8574C87.5933 82.5253 89.0876 82.2762 90.1005 82.1102C90.2997 82.077 90.4824 82.0604 90.665 82.0604C91.5948 82.0604 92.1261 82.5751 92.1261 83.3057C92.1261 83.4883 92.0763 83.6876 92.0099 83.9034C91.5616 85.1985 90.9971 86.5102 90.2997 88.2204C91.2959 88.3366 92.3918 88.5857 93.4378 88.951C93.4876 88.3698 93.5042 87.7223 93.4544 86.9585L93.5541 86.8423L95.779 87.1578L95.862 87.3072C95.8952 88.2868 95.8952 89.1502 95.779 89.9638C96.4597 90.3125 97.1405 90.7276 97.7714 91.1759L97.8046 91.3585L96.6424 93.3676L96.4763 93.434C95.9616 93.0355 95.4635 92.72 95.0318 92.4378C94.2514 94.0317 92.9563 95.5427 91.3458 96.3064C91.1133 96.3064 91.0469 96.2898 90.8974 96.1902ZM86.8461 90.3623C85.9993 90.4453 85.0529 91.2589 85.0529 92.3381C85.0529 92.6868 85.1525 92.8528 85.3518 92.8528C85.5676 92.8528 85.7669 92.7034 85.9661 92.3381C86.2152 91.84 86.431 91.3751 86.8461 90.3623ZM103.782 83.4219L103.732 83.2891L104.762 81.4793L104.928 81.3962C106.223 81.7449 107.451 82.16 108.946 82.9404L108.979 83.1064L107.85 85.0491L107.684 85.0823C106.339 84.3351 105.227 83.837 103.782 83.4219ZM102.321 85.4974L102.487 85.431L104.562 85.8294L104.662 85.9789C104.33 87.191 104.147 88.2702 103.998 89.5155C105.26 88.2038 106.937 87.4898 108.747 87.4898C111.519 87.4898 113.03 89.2166 113.03 91.3087C113.03 94.5464 109.892 95.9412 105.26 96.1902C104.961 96.1902 104.861 96.1736 104.728 95.9744L103.35 93.9487C107.8 93.8159 110.274 92.9359 110.274 91.3419C110.274 90.3457 109.925 89.6151 108.547 89.6151C107.053 89.6151 105.21 90.4453 103.865 92.803L103.699 92.8861L101.673 92.7034L101.557 92.554C101.524 90.2627 101.823 87.8717 102.321 85.4974ZM117.048 83.3223L117.165 83.2227L119.506 83.3057L119.622 83.4219C119.473 85.2649 119.423 86.9087 119.423 87.8717C119.423 89.3328 119.572 90.3125 119.805 91.1593C119.987 91.8068 120.203 92.2883 120.568 92.2883C121.017 92.2883 121.581 91.3917 121.963 89.8642L123.623 91.9562C123.74 92.1057 123.74 92.1887 123.673 92.3713C123.009 94.0981 121.93 95.3434 120.585 95.3434C119.506 95.3434 118.559 94.5796 117.895 93.2347C117.38 92.1887 116.932 90.3291 116.932 88.071C116.932 86.7261 116.965 85.1321 117.048 83.3223ZM125.002 86.2611L125.035 86.1117L126.629 84.8332L126.811 84.8C128.671 86.0619 130.248 87.9381 131.211 90.163L131.162 90.3125L129.053 91.6242L128.887 91.5744C127.99 89.283 126.728 87.4732 125.002 86.2611ZM137.156 85.5638H137.421L138.949 85.514L139.065 85.6302L139.015 87.2574V89.7978L139.065 91.757L138.949 91.8732L137.421 91.8234H135.346V93.8657C135.794 93.7827 136.259 93.6996 136.707 93.6C136.541 93.3842 136.392 93.1683 136.209 92.9525L136.276 92.803L137.704 91.9895L137.886 92.0559C138.716 93.0023 139.464 94.0815 140.011 95.1774L139.995 95.3434L138.401 96.3562L138.251 96.2898C138.069 95.8913 137.886 95.5095 137.687 95.1442C136.193 95.6091 134.682 95.991 132.805 96.3895L132.656 96.3396L132.158 94.4302L132.274 94.2808C132.623 94.2476 132.971 94.1978 133.304 94.1645V88.0045L133.27 86.2944C133.121 86.4272 132.971 86.5434 132.822 86.6596C132.756 86.7095 132.706 86.7261 132.656 86.7261C132.59 86.7261 132.54 86.6762 132.507 86.5932L131.876 84.6838C133.237 83.6876 134.3 82.5585 135.113 80.8815L135.279 80.8151L137.139 81.3132L137.222 81.4627C137.172 81.5789 137.106 81.6785 137.039 81.7947C137.853 82.2928 138.617 82.8574 139.331 83.4883L139.297 82.6249L139.414 82.5087L141.705 82.5585H142.369V80.9479L142.485 80.8317H144.577L144.694 80.9479V82.5585H145.441L147.732 82.5087L147.848 82.6249L147.799 83.92V84.2189L147.882 86.2944H146.786L146.769 86.9253V88.3532L146.819 90.0634L146.703 90.1796L144.943 90.1298H142.618V90.8936H145.358L147.334 90.8438L147.45 90.96L147.4 92.5042V94.1812L147.516 96.7713H145.092V95.8249H142.618V96.7713H140.26L140.377 92.2219V87.5562L140.344 86.2944H139.264L139.347 84.2189V83.92L138.218 85.1487L138.052 85.1155C137.471 84.4347 136.774 83.8204 136.093 83.3223C135.894 83.6211 135.678 83.9034 135.445 84.1691H137.056L137.156 84.2687V85.5638ZM135.23 85.5638V84.4181C134.881 84.8166 134.532 85.1819 134.15 85.5306L135.23 85.5638ZM142.618 88.3034H144.494V87.1411H142.618V88.3034ZM142.419 85.3147H144.727L145.54 85.2981V84.3849H141.539V85.2981L142.419 85.3147ZM135.346 87.1079V87.8883H136.973V87.1079H135.346ZM135.346 90.2295H136.973V89.3495H135.346V90.2295ZM142.618 92.72V93.9985H145.092V92.72H142.618ZM160.617 87.191V88.2204L160.517 88.3034L158.657 88.2536H154.756L152.913 88.3034L152.796 88.2038V87.2076C152.199 87.6559 151.551 88.071 150.87 88.4861C150.704 88.5857 150.571 88.6355 150.472 88.6355C150.372 88.6355 150.289 88.6023 150.206 88.5193L148.579 86.9087C151.501 85.3978 153.776 83.4551 155.503 80.7653L155.685 80.7155L158.06 81.3132L158.11 81.4793C158.01 81.6287 157.91 81.7615 157.827 81.911C159.753 83.7042 161.663 85.1985 164.884 86.4106L163.323 88.1872C163.14 88.403 162.991 88.4861 162.858 88.4861C162.759 88.4861 162.676 88.4528 162.559 88.3864C161.879 88.0045 161.231 87.6061 160.617 87.191ZM158.657 86.2445L159.322 86.2279C158.342 85.4144 157.412 84.551 156.565 83.6045C155.818 84.551 154.955 85.4476 154.025 86.2279L154.756 86.2445H158.657ZM161.231 91.4581H156.366C155.934 92.3879 155.436 93.2845 154.888 94.1479C156.366 94.0981 157.844 93.9819 159.322 93.8657C158.873 93.434 158.425 93.0355 157.944 92.6536L157.977 92.5042L159.604 91.5578L159.753 91.5411C161.181 92.5872 162.526 93.8657 163.655 95.1608L163.639 95.2936L161.945 96.7049L161.779 96.6883C161.497 96.3064 161.214 95.9412 160.916 95.5925C157.296 96.0076 154.407 96.24 150.488 96.4891L150.339 96.4061L149.658 94.4468L149.774 94.2974C150.704 94.2808 151.534 94.2642 152.331 94.2476C152.846 93.351 153.344 92.4212 153.726 91.4581H152.182L149.509 91.5079L149.393 91.4083V89.4823L149.492 89.3827L152.182 89.4325H161.231L163.921 89.3827L164.02 89.4657V91.4249L163.921 91.5079L161.231 91.4581ZM169.234 86.9253V90.5449C169.633 90.4121 170.031 90.2627 170.446 90.1132V90.9268C171.094 90.5781 171.691 90.163 172.19 89.5985L170.33 89.6317L170.214 89.5155V87.8219L170.33 87.7057L172.837 87.7555H178.582L181.172 87.7057L181.288 87.8219V89.5155L181.172 89.6317L178.582 89.5819H174.547C174.448 89.7479 174.331 89.914 174.215 90.08H178.433L180.641 90.0302L180.757 90.1464C180.707 93.1351 180.508 94.9449 180.193 95.6589C179.877 96.4061 179.196 96.7215 177.569 96.7215C177.353 96.7215 177.254 96.6717 177.171 96.4725L176.457 94.7623C175.46 95.7253 174.265 96.4061 172.804 96.8876C172.754 96.9042 172.704 96.9208 172.654 96.9208C172.555 96.9208 172.488 96.8544 172.372 96.7381L171.243 95.5427C173.717 94.7125 175.311 93.7827 176.44 91.757H175.859C174.597 93.5668 173.036 94.3638 171.177 95.0113C171.077 95.0445 171.011 95.0612 170.961 95.0612C170.861 95.0612 170.795 95.0113 170.712 94.9117L169.583 93.6498C171.31 93.1517 172.605 92.6868 173.601 91.757H172.737C172.107 92.2219 171.359 92.637 170.695 92.8695C170.629 92.8861 170.579 92.9027 170.529 92.9027C170.463 92.9027 170.38 92.8695 170.264 92.7532L169.848 92.3713C168.836 92.8196 167.574 93.3178 165.93 93.7993L165.78 93.7162L165.15 91.8234L165.233 91.674C165.897 91.5245 166.494 91.3751 167.076 91.2257V86.9087L165.482 86.9585L165.365 86.8589V85.0491L165.465 84.9494L167.076 84.9993V81.3962L167.192 81.2634H169.118L169.234 81.3796V84.9827L170.695 84.9494L170.795 85.0325V86.8755L170.695 86.9585L169.234 86.9253ZM178.516 91.757H178.466C178.017 92.803 177.403 93.7993 176.606 94.6128C177.021 94.6128 177.37 94.6128 177.685 94.5796C178.017 94.5464 178.2 94.4302 178.283 94.0815C178.35 93.7827 178.466 92.9193 178.516 91.757ZM177.104 87.2574H174.265L171.891 87.3072L171.774 87.191L171.824 85.3147V83.3555L171.774 81.5623L171.891 81.4461L174.265 81.4959H177.104L179.445 81.4461L179.595 81.5623L179.545 83.3555V85.3147L179.595 87.191L179.479 87.3072L177.104 87.2574ZM177.304 85.0491H173.999V85.763H177.304V85.0491ZM177.304 83.6544V82.9902H173.999V83.6544H177.304Z" fill="#231815"/>
<path d="M199.257 96.1552H195.608C194.722 96.1552 194.54 96.1666 194.142 96.2121C194.21 95.5642 194.29 95.1664 194.438 94.7573C194.745 93.9276 195.256 93.2002 195.995 92.5296C196.393 92.1773 196.734 91.9158 197.87 91.1543C198.916 90.4383 199.234 90.0632 199.234 89.4836C199.234 88.7107 198.632 88.2334 197.666 88.2334C197.006 88.2334 196.506 88.4607 196.222 88.9039C196.029 89.1767 195.949 89.4268 195.87 89.9496L194.244 89.7564C194.404 88.8926 194.608 88.4266 195.029 87.9379C195.597 87.2786 196.495 86.9263 197.631 86.9263C199.62 86.9263 200.848 87.881 200.848 89.4381C200.848 90.1883 200.598 90.7338 200.041 91.2566C199.723 91.5521 199.609 91.6431 198.132 92.6546C197.631 93.007 197.063 93.4843 196.779 93.7912C196.438 94.1549 196.302 94.3822 196.131 94.8141H199.314C200.03 94.8141 200.598 94.78 200.973 94.7232V96.2234C200.439 96.178 199.984 96.1552 199.257 96.1552ZM206.109 96.3371C205.143 96.3371 204.325 96.0189 203.722 95.4165C203.382 95.0755 203.12 94.6777 202.972 94.2685C202.677 93.4616 202.529 92.5751 202.529 91.6544C202.529 90.4497 202.802 89.1994 203.222 88.5061C203.836 87.4832 204.859 86.9263 206.121 86.9263C207.087 86.9263 207.916 87.2446 208.519 87.8469C208.86 88.1879 209.121 88.5857 209.269 88.9949C209.564 89.7905 209.712 90.6997 209.712 91.6317C209.712 93.0297 209.405 94.2572 208.871 94.9959C208.235 95.8825 207.291 96.3371 206.109 96.3371ZM206.121 95.0187C206.621 95.0187 207.064 94.8482 207.348 94.5413C207.86 94.0071 208.144 92.9501 208.144 91.6203C208.144 90.3019 207.86 89.2676 207.348 88.7107C207.075 88.4039 206.621 88.2334 206.109 88.2334C205.564 88.2334 205.166 88.4152 204.836 88.813C204.336 89.404 204.086 90.336 204.086 91.5749C204.086 92.7683 204.302 93.7571 204.666 94.2799C205.018 94.78 205.496 95.0187 206.121 95.0187ZM216.349 96.1552H212.7C211.814 96.1552 211.632 96.1666 211.234 96.2121C211.302 95.5642 211.382 95.1664 211.53 94.7573C211.837 93.9276 212.348 93.2002 213.087 92.5296C213.485 92.1773 213.826 91.9158 214.962 91.1543C216.008 90.4383 216.326 90.0632 216.326 89.4836C216.326 88.7107 215.724 88.2334 214.758 88.2334C214.098 88.2334 213.598 88.4607 213.314 88.9039C213.121 89.1767 213.041 89.4268 212.962 89.9496L211.337 89.7564C211.496 88.8926 211.7 88.4266 212.121 87.9379C212.689 87.2786 213.587 86.9263 214.723 86.9263C216.712 86.9263 217.94 87.881 217.94 89.4381C217.94 90.1883 217.69 90.7338 217.133 91.2566C216.815 91.5521 216.701 91.6431 215.224 92.6546C214.723 93.007 214.155 93.4843 213.871 93.7912C213.53 94.1549 213.394 94.3822 213.223 94.8141H216.406C217.122 94.8141 217.69 94.78 218.065 94.7232V96.2234C217.531 96.178 217.076 96.1552 216.349 96.1552ZM226.986 92.6773V94.1322C226.566 94.0753 226.327 94.064 225.85 94.0526H225.44V94.8596C225.44 95.4392 225.463 95.7347 225.531 96.1552H223.917C223.986 95.7574 224.008 95.4051 224.008 94.8368V94.0526H220.86C220.189 94.0526 219.826 94.064 219.439 94.0981V92.7001C219.826 92.2795 219.951 92.1318 220.349 91.6544L223.042 88.3584C223.542 87.756 223.724 87.5173 223.986 87.1082H225.52C225.452 87.7674 225.44 88.1652 225.44 89.029V92.7569H225.838C226.293 92.7569 226.566 92.7342 226.986 92.6773ZM224.02 92.7683V90.4156C224.02 89.8814 224.031 89.5177 224.076 89.0517C223.849 89.3813 223.713 89.5632 223.304 90.0632L221.121 92.7683H224.02ZM230.077 96.1552H228.417V94.4959H230.077V96.1552ZM232.303 93.0001L234.813 92.4728C234.977 93.0001 235.104 93.2365 235.359 93.5275C235.868 94.1458 236.632 94.4549 237.595 94.4549C239.396 94.4549 240.578 93.2547 240.578 91.4544C240.578 89.6723 239.45 88.5266 237.723 88.5266C236.832 88.5266 236.031 88.8176 235.468 89.3631C235.213 89.6177 235.086 89.7814 234.922 90.1814L232.649 89.9632C232.831 88.6721 232.849 88.5812 232.885 88.072L233.304 83.5621C233.322 83.2347 233.358 82.6164 233.376 81.7072C233.922 81.7436 234.34 81.7617 235.304 81.7617H239.778C241.032 81.7617 241.487 81.7436 242.305 81.6163V83.9076C241.505 83.7985 240.796 83.7621 239.796 83.7621H235.522L235.231 86.9445C235.213 87.09 235.177 87.3446 235.122 87.7083C236.013 86.9445 236.977 86.599 238.232 86.599C239.705 86.599 240.887 87.0354 241.778 87.9629C242.669 88.8357 243.069 89.9269 243.069 91.3817C243.069 94.5822 240.978 96.5644 237.595 96.5644C235.795 96.5644 234.449 96.0552 233.449 94.9823C232.958 94.4549 232.704 94.0185 232.303 93.0001ZM248.687 96.2371H246.032V93.5821H248.687V96.2371ZM256.861 96.2371H254.115C254.225 95.5279 254.261 94.8186 254.261 93.873V83.853H253.388C252.715 83.853 252.188 83.8894 251.515 83.9621V81.6526C252.079 81.7436 252.479 81.7617 253.334 81.7617H255.007C255.934 81.7617 256.207 81.7436 256.861 81.6708C256.752 82.7437 256.716 83.5803 256.716 84.6714V93.873C256.716 94.8368 256.752 95.4915 256.861 96.2371ZM269.99 96.2371H267.244C267.353 95.5279 267.389 94.8186 267.389 93.873V83.853H266.516C265.843 83.853 265.316 83.8894 264.643 83.9621V81.6526C265.207 81.7436 265.607 81.7617 266.462 81.7617H268.135C269.062 81.7617 269.335 81.7436 269.99 81.6708C269.88 82.7437 269.844 83.5803 269.844 84.6714V93.873C269.844 94.8368 269.88 95.4915 269.99 96.2371ZM295.593 96.2371H292.847C292.956 95.5279 292.992 94.8186 292.992 93.873V83.853H292.119C291.447 83.853 290.919 83.8894 290.246 83.9621V81.6526C290.81 81.7436 291.21 81.7617 292.065 81.7617H293.738C294.665 81.7617 294.938 81.7436 295.593 81.6708C295.484 82.7437 295.447 83.5803 295.447 84.6714V93.873C295.447 94.8368 295.484 95.4915 295.593 96.2371ZM310.285 96.2371H304.447C303.029 96.2371 302.738 96.2553 302.102 96.328C302.211 95.2915 302.338 94.655 302.574 94.0003C303.065 92.6728 303.884 91.509 305.066 90.436C305.702 89.8723 306.248 89.454 308.066 88.2356C309.739 87.09 310.248 86.4899 310.248 85.5624C310.248 84.3258 309.285 83.5621 307.739 83.5621C306.684 83.5621 305.884 83.9258 305.429 84.635C305.12 85.0714 304.993 85.4715 304.866 86.308L302.265 85.9989C302.52 84.6168 302.847 83.8712 303.52 83.0893C304.429 82.0345 305.866 81.4708 307.684 81.4708C310.867 81.4708 312.831 82.9983 312.831 85.4897C312.831 86.6899 312.431 87.5628 311.54 88.3993C311.03 88.8721 310.849 89.0176 308.485 90.6361C307.684 91.1998 306.775 91.9636 306.32 92.4546C305.775 93.0365 305.557 93.4002 305.284 94.0912H310.376C311.521 94.0912 312.431 94.0367 313.031 93.9458V96.3462C312.176 96.2735 311.449 96.2371 310.285 96.2371Z" fill="#231815"/>
<path d="M318.479 88.0664H317.644C317.677 87.8506 317.688 87.6347 317.688 87.3469V84.2974H317.422C317.218 84.2974 317.057 84.3084 316.852 84.3306V83.6277C317.024 83.6553 317.146 83.6609 317.406 83.6609H317.915C318.197 83.6609 318.28 83.6553 318.479 83.6332C318.446 83.9597 318.435 84.2143 318.435 84.5464V87.3469C318.435 87.6403 318.446 87.8395 318.479 88.0664ZM320.101 87.0813L320.864 86.9208C320.914 87.0813 320.953 87.1532 321.03 87.2418C321.185 87.4299 321.418 87.524 321.711 87.524C322.259 87.524 322.619 87.1587 322.619 86.6108C322.619 86.0684 322.276 85.7197 321.75 85.7197C321.479 85.7197 321.235 85.8083 321.064 85.9743C320.986 86.0518 320.947 86.1016 320.898 86.2234L320.206 86.157C320.261 85.764 320.267 85.7364 320.278 85.5814L320.405 84.2088C320.411 84.1092 320.422 83.921 320.427 83.6443C320.593 83.6553 320.721 83.6609 321.014 83.6609H322.375C322.757 83.6609 322.896 83.6553 323.145 83.6166V84.314C322.901 84.2808 322.685 84.2697 322.381 84.2697H321.08L320.992 85.2382C320.986 85.2825 320.975 85.36 320.959 85.4707C321.23 85.2382 321.523 85.1331 321.905 85.1331C322.353 85.1331 322.713 85.2659 322.984 85.5482C323.255 85.8138 323.377 86.1459 323.377 86.5887C323.377 87.5628 322.741 88.166 321.711 88.166C321.163 88.166 320.754 88.0111 320.449 87.6845C320.3 87.524 320.222 87.3912 320.101 87.0813ZM323.891 84.8896H324.699V85.6976H323.891V84.8896ZM323.891 87.2584H324.699V88.0664H323.891V87.2584ZM326.839 88.155C326.368 88.155 325.97 88 325.676 87.7067C325.51 87.5406 325.383 87.3469 325.311 87.1477C325.167 86.7547 325.095 86.323 325.095 85.8747C325.095 85.288 325.228 84.6792 325.433 84.3416C325.732 83.8435 326.23 83.5723 326.844 83.5723C327.315 83.5723 327.719 83.7273 328.012 84.0206C328.178 84.1867 328.305 84.3804 328.377 84.5796C328.521 84.967 328.593 85.4098 328.593 85.8636C328.593 86.5444 328.444 87.1421 328.184 87.5019C327.874 87.9336 327.414 88.155 326.839 88.155ZM326.844 87.513C327.088 87.513 327.304 87.4299 327.442 87.2805C327.691 87.0204 327.829 86.5057 327.829 85.8581C327.829 85.2161 327.691 84.7125 327.442 84.4413C327.309 84.2918 327.088 84.2088 326.839 84.2088C326.573 84.2088 326.379 84.2974 326.219 84.4911C325.975 84.7789 325.854 85.2327 325.854 85.836C325.854 86.4171 325.959 86.8986 326.136 87.1532C326.307 87.3967 326.54 87.513 326.844 87.513ZM330.613 88.155C330.142 88.155 329.744 88 329.451 87.7067C329.285 87.5406 329.157 87.3469 329.085 87.1477C328.941 86.7547 328.869 86.323 328.869 85.8747C328.869 85.288 329.002 84.6792 329.207 84.3416C329.506 83.8435 330.004 83.5723 330.618 83.5723C331.089 83.5723 331.493 83.7273 331.786 84.0206C331.952 84.1867 332.08 84.3804 332.151 84.5796C332.295 84.967 332.367 85.4098 332.367 85.8636C332.367 86.5444 332.218 87.1421 331.958 87.5019C331.648 87.9336 331.188 88.155 330.613 88.155ZM330.618 87.513C330.862 87.513 331.078 87.4299 331.216 87.2805C331.465 87.0204 331.604 86.5057 331.604 85.8581C331.604 85.2161 331.465 84.7125 331.216 84.4413C331.083 84.2918 330.862 84.2088 330.613 84.2088C330.347 84.2088 330.153 84.2974 329.993 84.4911C329.749 84.7789 329.628 85.2327 329.628 85.836C329.628 86.4171 329.733 86.8986 329.91 87.1532C330.082 87.3967 330.314 87.513 330.618 87.513ZM318.479 96.0664H317.644C317.677 95.8506 317.688 95.6347 317.688 95.3469V92.2974H317.422C317.218 92.2974 317.057 92.3084 316.852 92.3306V91.6277C317.024 91.6553 317.146 91.6609 317.406 91.6609H317.915C318.197 91.6609 318.28 91.6553 318.479 91.6332C318.446 91.9597 318.435 92.2143 318.435 92.5464V95.3469C318.435 95.6403 318.446 95.8395 318.479 96.0664ZM323.372 91.6332V92.2752C323.194 92.4468 323.034 92.6737 322.796 93.0722C322.209 94.0518 321.916 94.8986 321.767 96.0664H320.892C321.075 95.1421 321.241 94.6108 321.562 93.9245C321.816 93.3766 322.043 93.0002 322.53 92.314H320.82C320.494 92.314 320.322 92.325 320.095 92.3527V91.6221C320.35 91.6498 320.527 91.6609 320.853 91.6609H322.613C323.028 91.6609 323.172 91.6553 323.372 91.6332ZM323.891 92.8896H324.699V93.6976H323.891V92.8896ZM323.891 95.2584H324.699V96.0664H323.891V95.2584ZM326.839 96.155C326.368 96.155 325.97 96 325.676 95.7067C325.51 95.5406 325.383 95.3469 325.311 95.1477C325.167 94.7547 325.095 94.323 325.095 93.8747C325.095 93.288 325.228 92.6792 325.433 92.3416C325.732 91.8435 326.23 91.5723 326.844 91.5723C327.315 91.5723 327.719 91.7273 328.012 92.0206C328.178 92.1867 328.305 92.3804 328.377 92.5796C328.521 92.967 328.593 93.4098 328.593 93.8636C328.593 94.5444 328.444 95.1421 328.184 95.5019C327.874 95.9336 327.414 96.155 326.839 96.155ZM326.844 95.513C327.088 95.513 327.304 95.4299 327.442 95.2805C327.691 95.0204 327.829 94.5057 327.829 93.8581C327.829 93.2161 327.691 92.7125 327.442 92.4413C327.309 92.2918 327.088 92.2088 326.839 92.2088C326.573 92.2088 326.379 92.2974 326.219 92.4911C325.975 92.7789 325.854 93.2327 325.854 93.836C325.854 94.4171 325.959 94.8986 326.136 95.1532C326.307 95.3967 326.54 95.513 326.844 95.513ZM330.613 96.155C330.142 96.155 329.744 96 329.451 95.7067C329.285 95.5406 329.157 95.3469 329.085 95.1477C328.941 94.7547 328.869 94.323 328.869 93.8747C328.869 93.288 329.002 92.6792 329.207 92.3416C329.506 91.8435 330.004 91.5723 330.618 91.5723C331.089 91.5723 331.493 91.7273 331.786 92.0206C331.952 92.1867 332.08 92.3804 332.151 92.5796C332.295 92.967 332.367 93.4098 332.367 93.8636C332.367 94.5444 332.218 95.1421 331.958 95.5019C331.648 95.9336 331.188 96.155 330.613 96.155ZM330.618 95.513C330.862 95.513 331.078 95.4299 331.216 95.2805C331.465 95.0204 331.604 94.5057 331.604 93.8581C331.604 93.2161 331.465 92.7125 331.216 92.4413C331.083 92.2918 330.862 92.2088 330.613 92.2088C330.347 92.2088 330.153 92.2974 329.993 92.4911C329.749 92.7789 329.628 93.2327 329.628 93.836C329.628 94.4171 329.733 94.8986 329.91 95.1532C330.082 95.3967 330.314 95.513 330.618 95.513Z" fill="#231815"/>
</svg>
