<svg width="284" height="137" viewBox="0 0 284 137" fill="none" xmlns="http://www.w3.org/2000/svg">
<rect y="87" width="177" height="26" fill="#FFE553"/>
<rect y="113" width="103" height="24" fill="#FFE553"/>
<path d="M18.4091 96.5334L18.3771 96.3734L19.6731 94.6454L19.8651 94.6134C20.9211 95.0454 21.8971 95.5894 22.9211 96.3254L22.9531 96.5014L21.6251 98.3254L21.4491 98.3574C20.3291 97.4934 19.5451 97.0454 18.4091 96.5334ZM16.7771 100.437L16.7291 100.293L17.5931 98.3094L17.7371 98.2454C18.7131 98.7414 19.8171 99.0774 21.0171 99.3174L21.0971 99.4454L20.4411 101.573L20.2971 101.653C19.0171 101.429 17.9931 101.093 16.7771 100.437ZM29.0811 96.6614L29.8011 99.2214C29.8331 99.3334 29.8491 99.4134 29.8491 99.4774C29.8491 99.5894 29.8011 99.6694 29.6731 99.8134C27.2571 102.597 23.1931 105.109 19.1451 106.613L18.9691 106.581L17.6091 104.421L17.6571 104.245C22.0411 102.821 26.0091 100.357 29.0811 96.6614ZM32.5531 104.821L32.4411 104.693V102.581L32.5851 102.485L34.6651 102.533H37.7211V98.4854H36.3451L33.9611 98.5334L33.8491 98.4054V96.3094L33.9931 96.2134L36.3611 96.2614H42.0411L44.0731 96.2134L44.2171 96.3094V98.4054L44.1051 98.5334L42.1211 98.4854H40.3611V102.533H43.3531L45.5771 102.485L45.7211 102.581V104.693L45.6091 104.821L43.4171 104.773H34.6971L32.5531 104.821ZM59.6891 106.069L59.5131 106.053C58.4571 104.661 57.1611 103.349 55.9611 102.261C54.3451 104.005 52.5851 105.189 50.4731 106.277C50.3131 106.357 50.2011 106.389 50.1211 106.389C50.0251 106.389 49.9611 106.341 49.8651 106.277L47.9771 104.821C51.6571 103.109 54.8731 100.693 56.3451 97.3654H52.5371L50.1531 97.4134L50.0411 97.2854V95.1094L50.1851 95.0134L52.5851 95.0614H57.1131L58.7451 94.9814L59.7211 95.9414C59.8331 96.0534 59.8971 96.1334 59.8971 96.2294C59.8971 96.3254 59.8491 96.4374 59.7531 96.6134C59.0171 98.0374 58.2811 99.2534 57.5451 100.309C59.0651 101.573 60.2651 102.629 61.5931 104.133L61.5771 104.309L59.6891 106.069ZM75.4811 95.3974L76.6811 96.6134C76.7931 96.7414 76.8571 96.8054 76.8571 96.9014C76.8571 96.9654 76.8411 97.0454 76.7771 97.1734C76.0251 98.8054 75.1771 100.261 74.2491 101.525C74.7611 101.957 75.2731 102.421 75.7691 102.933V103.109L74.2171 104.837L74.0731 104.853C73.6091 104.341 73.1451 103.877 72.6651 103.413C71.2091 104.901 69.4651 106.133 67.2731 107.237C67.1291 107.317 67.0331 107.349 66.9691 107.349C66.8571 107.349 66.7611 107.301 66.6011 107.189L64.7291 105.909C67.3051 104.805 69.3531 103.429 70.8891 101.877C70.3451 101.461 69.7531 101.045 69.0971 100.645V100.485L70.4571 98.9974L70.6331 98.9814C71.2251 99.3334 71.8011 99.6854 72.3451 100.053C72.9051 99.2694 73.4011 98.4054 73.7691 97.5414L70.6651 97.5574C69.6251 98.9974 68.5211 100.229 67.4011 101.253C67.0971 101.477 67.0171 101.461 66.7291 101.269L64.9851 100.149C67.1131 98.5014 69.0331 96.1814 70.1691 93.5894L70.3291 93.5414L72.5051 94.3254L72.5371 94.5014C72.3611 94.8534 72.1691 95.1894 71.9771 95.5254L74.1691 95.4934L75.4811 95.3974ZM86.6651 98.0374L86.7131 98.2134C85.4171 100.773 83.7691 102.949 82.0571 104.357C81.9611 104.437 81.8971 104.469 81.8171 104.469C81.7371 104.469 81.6731 104.437 81.5611 104.373L79.4171 103.077C81.4971 101.637 83.1931 99.4134 84.2811 96.9174L84.4251 96.8854L86.6651 98.0374ZM88.2171 98.1654L88.2491 97.9894L90.2811 96.8854L90.4571 96.9174C91.9451 98.3094 93.3371 100.053 94.3931 102.069L94.3611 102.213L91.9931 103.637L91.8491 103.605C90.8411 101.477 89.6411 99.6534 88.2171 98.1654ZM97.881 96.1334L99.9771 96.1814H105.929L108.185 96.1334L108.329 96.2294L108.281 98.1654V102.869L108.329 104.933L108.217 105.061L106.009 105.013H99.913L97.801 105.061L97.689 104.933V102.789L97.833 102.693L99.849 102.741H105.593V98.4534H100.041L97.849 98.5014L97.737 98.3734V96.2294L97.881 96.1334ZM122.985 94.2294L123.001 94.0854L123.833 93.4934L123.993 93.4774C124.585 93.9734 125.145 94.5334 125.625 95.1734L125.609 95.3334L124.729 95.9574H124.569C124.073 95.3014 123.625 94.7734 122.985 94.2294ZM124.489 93.2214L124.505 93.0774L125.321 92.4854L125.481 92.4694C126.073 92.9654 126.585 93.4774 127.065 94.1174L127.049 94.2774L126.217 94.8854H126.057C125.561 94.2294 125.129 93.7654 124.489 93.2214ZM123.289 95.3974L124.489 96.6134C124.601 96.7414 124.665 96.8054 124.665 96.9014C124.665 96.9654 124.649 97.0454 124.585 97.1734C123.833 98.8054 122.985 100.261 122.057 101.525C122.569 101.957 123.081 102.421 123.577 102.933V103.109L122.025 104.837L121.881 104.853C121.417 104.341 120.953 103.877 120.473 103.413C119.017 104.901 117.273 106.133 115.081 107.237C114.937 107.317 114.841 107.349 114.777 107.349C114.665 107.349 114.569 107.301 114.409 107.189L112.537 105.909C115.113 104.805 117.161 103.429 118.697 101.877C118.153 101.461 117.561 101.045 116.905 100.645V100.485L118.265 98.9974L118.441 98.9814C119.033 99.3334 119.609 99.6854 120.153 100.053C120.713 99.2694 121.209 98.4054 121.577 97.5414L118.473 97.5574C117.433 98.9974 116.329 100.229 115.209 101.253C114.905 101.477 114.825 101.461 114.537 101.269L112.793 100.149C114.921 98.5014 116.841 96.1814 117.977 93.5894L118.137 93.5414L120.313 94.3254L120.345 94.5014C120.169 94.8534 119.977 95.1894 119.785 95.5254L121.977 95.4934L123.289 95.3974ZM133.308 99.9734H130.62L128.204 100.021L128.092 99.8934V97.8614L128.22 97.7494L130.604 97.7974H138.156L140.412 97.7494L140.54 97.8614V99.8934L140.428 100.021L138.156 99.9734H135.932C135.82 102.133 134.94 104.245 133.356 105.749C132.812 106.261 132.204 106.661 131.548 107.045C131.42 107.109 131.356 107.141 131.276 107.141C131.196 107.141 131.1 107.093 130.94 106.981L128.908 105.717C131.436 104.757 133.1 102.885 133.308 99.9734ZM138.716 96.4854L136.54 96.4374H132.108L129.98 96.4854L129.868 96.3574V94.2934L130.012 94.1974L131.98 94.2454H136.524L138.7 94.1974L138.828 94.3094V96.3574L138.716 96.4854ZM155.637 101.349V103.733H154.165V106.437H151.365V103.733H146.213V100.965L150.165 93.9734H154.165V101.349H155.637ZM148.389 101.349H151.365V95.8614L148.389 101.349ZM164.787 96.1174H160.163V99.3814H164.323V101.461H160.163V106.437H157.283V93.9574H164.787V96.1174ZM20.8571 123.605H26.0091C26.0571 124.085 26.0731 124.485 26.0731 124.965C26.0731 128.549 24.3291 130.613 21.1131 130.613C17.5611 130.613 15.7211 128.437 15.7211 124.197C15.7211 120.245 17.7371 117.797 20.9691 117.797C23.5771 117.797 25.2731 119.205 25.7211 121.749L22.7451 122.421C22.6011 120.677 22.0251 119.877 20.9211 119.877C19.5291 119.877 18.7611 121.365 18.7611 124.085C18.7611 127.109 19.5931 128.613 21.2411 128.613C22.5051 128.613 23.1291 127.637 23.1451 125.605H20.8571V123.605ZM39.3141 130.069L39.1381 130.053C38.0821 128.661 36.7861 127.349 35.5861 126.261C33.9701 128.005 32.2101 129.189 30.0981 130.277C29.9381 130.357 29.8261 130.389 29.7461 130.389C29.6501 130.389 29.5861 130.341 29.4901 130.277L27.6021 128.821C31.2821 127.109 34.4981 124.693 35.9701 121.365H32.1621L29.7781 121.413L29.6661 121.285V119.109L29.8101 119.013L32.2101 119.061H36.7381L38.3701 118.981L39.3461 119.941C39.4581 120.053 39.5221 120.133 39.5221 120.229C39.5221 120.325 39.4741 120.437 39.3781 120.613C38.6421 122.037 37.9061 123.253 37.1701 124.309C38.6901 125.573 39.8901 126.629 41.2181 128.133L41.2021 128.309L39.3141 130.069ZM53.3781 121.717L50.3221 121.733C49.3461 123.013 48.3061 124.101 47.1381 125.045C46.9621 125.173 46.8661 125.237 46.7541 125.237C46.6901 125.237 46.6101 125.205 46.4981 125.141L44.5941 123.989C47.1061 122.085 48.7221 120.101 49.8901 117.541L50.0341 117.493L52.3221 118.341L52.3541 118.501C52.1461 118.901 51.9381 119.269 51.6981 119.653L53.7461 119.621L54.9621 119.525L56.3541 120.821C56.4981 120.949 56.5781 121.045 56.5781 121.157C56.5781 121.237 56.5461 121.333 56.4821 121.477C54.4661 125.813 51.8741 128.773 47.3301 130.853C47.1221 130.933 47.0101 130.981 46.9141 130.981C46.8341 130.981 46.7541 130.949 46.6421 130.853L44.6581 129.317C48.2261 128.149 51.5861 125.605 53.3781 121.717ZM60.1781 128.821L60.0661 128.693V126.581L60.2101 126.485L62.2901 126.533H65.3461V122.485H63.9701L61.5861 122.533L61.4741 122.405V120.309L61.6181 120.213L63.9861 120.261H69.6661L71.6981 120.213L71.8421 120.309V122.405L71.7301 122.533L69.7461 122.485H67.9861V126.533H70.9781L73.2021 126.485L73.3461 126.581V128.693L73.2341 128.821L71.0421 128.773H62.3221L60.1781 128.821ZM83.7781 121.829L83.8901 121.941C83.8901 122.197 83.8901 122.533 83.8741 122.773C84.6261 122.181 85.4581 121.445 86.0021 120.821H79.6501L76.8821 120.869L76.7701 120.741V118.645L76.9141 118.549L79.6181 118.597H86.7381L88.3381 118.517L89.4581 120.021C89.5061 120.101 89.5381 120.165 89.5381 120.245C89.5381 120.341 89.5061 120.437 89.4101 120.549C88.6101 121.525 87.2021 122.965 85.8901 124.133C85.6341 124.357 85.5541 124.357 85.3141 124.197L83.8421 123.205C83.6821 126.645 82.7701 128.917 80.0181 130.949C79.9061 131.029 79.8261 131.061 79.7301 131.061C79.6341 131.061 79.5221 131.013 79.3781 130.933L77.2501 129.845C80.5941 127.925 81.2661 125.877 81.2021 121.957L81.3141 121.829H83.7781Z" fill="#231815"/>
<rect y="37" width="283.345" height="50.522" fill="#FFE553"/>
<rect width="283" height="50" fill="#FFE553"/>
<path d="M26.065 74.6513H19.645C18.085 74.6513 17.765 74.6713 17.065 74.7513C17.185 73.6113 17.325 72.9113 17.585 72.1913C18.125 70.7313 19.025 69.4513 20.325 68.2713C21.025 67.6513 21.625 67.1913 23.625 65.8513C25.465 64.5913 26.025 63.9313 26.025 62.9113C26.025 61.5513 24.965 60.7113 23.265 60.7113C22.105 60.7113 21.225 61.1113 20.725 61.8913C20.385 62.3713 20.245 62.8113 20.105 63.7313L17.245 63.3913C17.525 61.8713 17.885 61.0513 18.625 60.1913C19.625 59.0313 21.205 58.4113 23.205 58.4113C26.705 58.4113 28.865 60.0913 28.865 62.8313C28.865 64.1513 28.425 65.1113 27.445 66.0313C26.885 66.5513 26.685 66.7113 24.085 68.4913C23.205 69.1113 22.205 69.9513 21.705 70.4913C21.105 71.1313 20.865 71.5313 20.565 72.2913H26.165C27.425 72.2913 28.425 72.2313 29.085 72.1313V74.7713C28.145 74.6913 27.345 74.6513 26.065 74.6513ZM38.1233 74.9713C36.4233 74.9713 34.9833 74.4113 33.9233 73.3513C33.3233 72.7513 32.8633 72.0513 32.6033 71.3313C32.0833 69.9113 31.8233 68.3513 31.8233 66.7313C31.8233 64.6113 32.3033 62.4113 33.0433 61.1913C34.1233 59.3913 35.9233 58.4113 38.1433 58.4113C39.8433 58.4113 41.3033 58.9713 42.3633 60.0313C42.9633 60.6313 43.4233 61.3313 43.6833 62.0513C44.2033 63.4513 44.4633 65.0513 44.4633 66.6913C44.4633 69.1513 43.9233 71.3113 42.9833 72.6113C41.8633 74.1713 40.2033 74.9713 38.1233 74.9713ZM38.1433 72.6513C39.0233 72.6513 39.8033 72.3513 40.3033 71.8113C41.2033 70.8713 41.7033 69.0113 41.7033 66.6713C41.7033 64.3513 41.2033 62.5313 40.3033 61.5513C39.8233 61.0113 39.0233 60.7113 38.1233 60.7113C37.1633 60.7113 36.4633 61.0313 35.8833 61.7313C35.0033 62.7713 34.5633 64.4113 34.5633 66.5913C34.5633 68.6913 34.9433 70.4313 35.5833 71.3513C36.2033 72.2313 37.0433 72.6513 38.1433 72.6513ZM56.1416 74.6513H49.7216C48.1616 74.6513 47.8416 74.6713 47.1416 74.7513C47.2616 73.6113 47.4016 72.9113 47.6616 72.1913C48.2016 70.7313 49.1016 69.4513 50.4016 68.2713C51.1016 67.6513 51.7016 67.1913 53.7016 65.8513C55.5416 64.5913 56.1016 63.9313 56.1016 62.9113C56.1016 61.5513 55.0416 60.7113 53.3416 60.7113C52.1816 60.7113 51.3016 61.1113 50.8016 61.8913C50.4616 62.3713 50.3216 62.8113 50.1816 63.7313L47.3216 63.3913C47.6016 61.8713 47.9616 61.0513 48.7016 60.1913C49.7016 59.0313 51.2816 58.4113 53.2816 58.4113C56.7816 58.4113 58.9416 60.0913 58.9416 62.8313C58.9416 64.1513 58.5016 65.1113 57.5216 66.0313C56.9616 66.5513 56.7616 66.7113 54.1616 68.4913C53.2816 69.1113 52.2816 69.9513 51.7816 70.4913C51.1816 71.1313 50.9416 71.5313 50.6416 72.2913H56.2416C57.5016 72.2913 58.5016 72.2313 59.1616 72.1313V74.7713C58.2216 74.6913 57.4216 74.6513 56.1416 74.6513ZM74.8599 68.5313V71.0913C74.1199 70.9913 73.6999 70.9713 72.8599 70.9513H72.1399V72.3713C72.1399 73.3913 72.1799 73.9113 72.2999 74.6513H69.4599C69.5799 73.9513 69.6199 73.3313 69.6199 72.3313V70.9513H64.0799C62.8999 70.9513 62.2599 70.9713 61.5799 71.0313V68.5713C62.2599 67.8313 62.4799 67.5713 63.1799 66.7313L67.9199 60.9313C68.7999 59.8713 69.1199 59.4513 69.5799 58.7313H72.2799C72.1599 59.8913 72.1399 60.5913 72.1399 62.1113V68.6713H72.8399C73.6399 68.6713 74.1199 68.6313 74.8599 68.5313ZM69.6399 68.6913V64.5513C69.6399 63.6113 69.6599 62.9713 69.7399 62.1513C69.3399 62.7313 69.0999 63.0513 68.3799 63.9313L64.5399 68.6913H69.6399ZM80.2982 74.6513H77.3782V71.7313H80.2982V74.6513ZM98.4568 74.7953H88.1848C85.6888 74.7953 85.1768 74.8273 84.0568 74.9553C84.2488 73.1313 84.4728 72.0113 84.8888 70.8593C85.7528 68.5233 87.1928 66.4753 89.2728 64.5873C90.3928 63.5953 91.3528 62.8593 94.5528 60.7153C97.4968 58.6993 98.3928 57.6433 98.3928 56.0113C98.3928 53.8353 96.6968 52.4913 93.9768 52.4913C92.1208 52.4913 90.7128 53.1313 89.9128 54.3793C89.3688 55.1473 89.1448 55.8513 88.9208 57.3233L84.3448 56.7793C84.7928 54.3473 85.3688 53.0353 86.5528 51.6593C88.1528 49.8033 90.6808 48.8113 93.8808 48.8113C99.4808 48.8113 102.937 51.4993 102.937 55.8833C102.937 57.9953 102.233 59.5313 100.665 61.0033C99.7688 61.8353 99.4488 62.0913 95.2888 64.9393C93.8808 65.9313 92.2808 67.2753 91.4808 68.1393C90.5208 69.1633 90.1368 69.8033 89.6568 71.0193H98.6168C100.633 71.0193 102.233 70.9233 103.289 70.7633V74.9873C101.785 74.8593 100.505 74.7953 98.4568 74.7953ZM113.046 74.7953H108.374V70.1233H113.046V74.7953ZM127.431 74.7953H122.599C122.791 73.5473 122.855 72.2993 122.855 70.6353V53.0033H121.319C120.135 53.0033 119.207 53.0673 118.023 53.1953V49.1313C119.015 49.2913 119.719 49.3233 121.223 49.3233H124.167C125.799 49.3233 126.279 49.2913 127.431 49.1633C127.239 51.0513 127.175 52.5233 127.175 54.4433V70.6353C127.175 72.3313 127.239 73.4833 127.431 74.7953ZM193.669 74.7953H183.397C180.901 74.7953 180.389 74.8273 179.269 74.9553C179.461 73.1313 179.685 72.0113 180.101 70.8593C180.965 68.5233 182.405 66.4753 184.485 64.5873C185.605 63.5953 186.565 62.8593 189.765 60.7153C192.709 58.6993 193.605 57.6433 193.605 56.0113C193.605 53.8353 191.909 52.4913 189.189 52.4913C187.333 52.4913 185.925 53.1313 185.125 54.3793C184.581 55.1473 184.357 55.8513 184.133 57.3233L179.557 56.7793C180.005 54.3473 180.581 53.0353 181.765 51.6593C183.365 49.8033 185.893 48.8113 189.093 48.8113C194.693 48.8113 198.149 51.4993 198.149 55.8833C198.149 57.9953 197.445 59.5313 195.877 61.0033C194.981 61.8353 194.661 62.0913 190.501 64.9393C189.093 65.9313 187.493 67.2753 186.693 68.1393C185.733 69.1633 185.349 69.8033 184.869 71.0193H193.829C195.845 71.0193 197.445 70.9233 198.501 70.7633V74.9873C196.997 74.8593 195.717 74.7953 193.669 74.7953ZM208.259 74.7953H203.587V70.1233H208.259V74.7953ZM227.636 74.7953H217.364C214.868 74.7953 214.356 74.8273 213.236 74.9553C213.428 73.1313 213.652 72.0113 214.068 70.8593C214.932 68.5233 216.372 66.4753 218.452 64.5873C219.572 63.5953 220.532 62.8593 223.732 60.7153C226.676 58.6993 227.572 57.6433 227.572 56.0113C227.572 53.8353 225.876 52.4913 223.156 52.4913C221.3 52.4913 219.892 53.1313 219.092 54.3793C218.548 55.1473 218.324 55.8513 218.1 57.3233L213.524 56.7793C213.972 54.3473 214.548 53.0353 215.732 51.6593C217.332 49.8033 219.86 48.8113 223.06 48.8113C228.66 48.8113 232.116 51.4993 232.116 55.8833C232.116 57.9953 231.412 59.5313 229.844 61.0033C228.948 61.8353 228.628 62.0913 224.468 64.9393C223.06 65.9313 221.46 67.2753 220.66 68.1393C219.7 69.1633 219.316 69.8033 218.836 71.0193H227.796C229.812 71.0193 231.412 70.9233 232.468 70.7633V74.9873C230.964 74.8593 229.684 74.7953 227.636 74.7953Z" fill="#231815"/>
<path d="M24.456 21.904L24.52 18.224C26.024 18.608 27.688 18.736 30.312 18.736C31.432 18.736 32.136 18.736 33.256 18.672C33.256 16.784 33.224 15.184 33.224 13.872C33.224 13.168 33.192 12.688 33.128 12.336L37.128 12.24C36.968 13.136 36.904 14.672 36.904 16.944C36.904 17.296 36.904 17.776 36.904 18.416C38.568 18.224 39.976 17.968 41.224 17.648C41.416 17.584 41.416 17.584 41.928 17.392L42.184 17.328L42.312 20.944C41.992 20.976 41.96 20.976 41.384 21.104C40.296 21.328 38.632 21.616 36.936 21.808C36.936 22.096 36.936 22.096 36.936 22.512C36.936 24.304 36.936 24.368 37.256 29.744C39.56 30.832 40.36 31.28 42.28 32.656C42.696 32.944 42.856 33.04 43.176 33.2L41.64 37.072C41.096 36.432 40.136 35.6 39.24 35.024C38.152 34.32 37.416 33.84 37.224 33.712C37.224 33.904 37.224 33.968 37.224 34.16C37.224 34.864 37.128 35.504 36.968 35.952C36.232 37.84 33.992 38.96 30.888 38.96C26.696 38.96 24.136 36.976 24.136 33.712C24.136 30.608 26.856 28.432 30.728 28.432C31.912 28.432 32.712 28.56 33.576 28.88C33.48 28.08 33.448 26.512 33.32 22.064C32.04 22.096 31.272 22.128 30.44 22.128C29.256 22.128 27.976 22.096 26.472 21.968C26.024 21.968 25.672 21.936 25.512 21.936C25.224 21.904 25.032 21.904 24.968 21.904C24.808 21.872 24.712 21.872 24.648 21.872C24.616 21.872 24.552 21.872 24.456 21.904ZM33.64 32.144C32.584 31.76 31.976 31.632 31.016 31.632C28.968 31.632 27.688 32.432 27.688 33.744C27.688 34.928 28.84 35.728 30.632 35.728C31.816 35.728 32.744 35.376 33.224 34.736C33.512 34.352 33.64 33.872 33.64 33.008C33.64 32.656 33.64 32.144 33.64 32.144ZM21.128 38.96L17.288 39.184C17.256 38.864 17.256 38.672 17.128 37.936C16.52 34.192 16.264 31.12 16.264 27.76C16.264 24.88 16.456 22.064 16.872 19.28C17.032 18.32 17.032 18.32 17.736 14.704C17.96 13.584 18.088 12.656 18.088 12.336C18.088 12.304 18.088 12.272 18.088 12.208L22.408 12.656C21.096 15.44 19.88 23.152 19.848 28.72C19.816 29.872 19.816 29.872 19.816 30.384C19.816 30.608 19.816 30.608 19.816 30.896C19.816 31.152 19.816 31.216 19.784 31.568H19.816C19.976 31.216 19.976 31.216 20.2 30.64C20.264 30.416 20.424 30.064 20.584 29.552C20.872 28.88 20.872 28.88 21.192 28.112C21.256 28.016 21.288 27.92 21.576 27.12L24.232 28.304C22.344 32.016 21.064 35.984 21.064 38.096C21.064 38.32 21.064 38.352 21.128 38.96ZM53.096 17.68L53.384 13.872C55.848 14.448 58.696 14.672 62.984 14.672C67.048 14.672 69.32 14.512 71.432 14.064L71.56 17.648C69.64 18.512 66.184 20.656 63.016 22.96L60.232 20.752C61.896 19.696 63.464 18.736 64.936 17.904C63.528 18.096 62.152 18.16 60.136 18.16C58.504 18.16 55.848 18 54.28 17.776C53.64 17.712 53.544 17.68 53.096 17.68ZM55.464 24.912L58.248 27.024C56.232 28.688 55.336 30.032 55.336 31.408C55.336 33.488 57.672 34.384 63.08 34.384C66.888 34.384 71.08 33.808 73.128 33.04L73.48 37.424C72.936 37.456 72.744 37.456 72.072 37.552C68.232 38.096 66.184 38.256 63.432 38.256C59.944 38.256 57.128 37.904 55.432 37.2C52.68 36.144 51.336 34.352 51.336 31.856C51.336 29.424 52.584 27.312 55.464 24.912ZM82.28 20.752L82.344 17.04C83.496 17.232 84.776 17.328 86.632 17.328C87.016 17.328 87.368 17.328 88.104 17.296C88.392 15.76 88.712 13.296 88.712 12.4C88.712 12.272 88.712 12.08 88.68 11.824L92.904 12.208C92.712 12.912 92.68 13.072 92.392 14.704C92.328 15.088 92.264 15.536 92.168 16.112C92.136 16.272 92.072 16.528 91.976 17.104C94.056 16.912 95.944 16.592 97.448 16.144L97.608 19.824C97.448 19.856 97.352 19.856 97.32 19.856L96.584 19.984C94.44 20.368 92.104 20.656 91.336 20.656C90.152 26.832 88.552 32.176 85.768 39.504L81.736 37.936C83.816 34.224 86.376 26.512 87.464 20.784C87.304 20.784 87.176 20.784 87.144 20.784L86.44 20.752H84.904C84.872 20.752 84.584 20.752 84.168 20.752C83.72 20.72 83.144 20.72 82.888 20.72C82.728 20.72 82.568 20.72 82.28 20.752ZM100.2 13.808L102.44 12.688C103.848 14.192 104.712 15.408 105.8 17.392L103.56 18.576C102.504 16.624 101.608 15.344 100.2 13.808ZM107.656 21.424L107.72 25.232C106.184 25.072 105.288 25.008 103.688 25.008C100.52 25.008 98.408 25.232 95.24 25.968L94.952 22.416C99.464 21.552 101.032 21.392 104.488 21.392C105.448 21.392 106.184 21.392 107.656 21.424ZM95.048 28.144L98.216 29.424C96.936 31.056 96.552 31.824 96.552 32.976C96.552 34.608 98.152 35.44 101.352 35.44C103.688 35.44 106.76 34.928 108.616 34.256L108.904 38.16C108.328 38.224 108.168 38.256 107.336 38.384C104.68 38.8 103.272 38.928 101.384 38.928C98.536 38.928 96.488 38.512 94.952 37.648C93.576 36.848 92.68 35.312 92.68 33.712C92.68 32.016 93.288 30.576 95.048 28.144ZM109.608 15.312L107.4 16.56C106.44 14.8 105.384 13.296 104.136 11.92L106.28 10.8C107.72 12.272 108.616 13.488 109.608 15.312ZM115.592 19.92L115.368 15.76C116.072 15.792 116.424 15.792 116.584 15.792C117.16 15.792 117.16 15.792 121.864 15.472C123.656 15.376 128.968 15.088 137.832 14.672C140.456 14.544 140.936 14.512 141.512 14.352L141.736 18.448C141.384 18.416 141.384 18.416 141.064 18.416C139.144 18.416 136.776 19.056 134.728 20.144C130.664 22.256 128.264 25.456 128.264 28.688C128.264 31.184 129.832 33.104 132.52 33.904C134.088 34.384 136.136 34.736 137.288 34.736C137.32 34.736 137.608 34.736 137.928 34.704L137.352 39.056C136.968 38.96 136.808 38.928 136.264 38.864C132.744 38.416 130.728 37.84 128.776 36.752C125.832 35.088 124.2 32.368 124.2 29.04C124.2 26.32 125.288 23.632 127.24 21.488C128.456 20.176 129.608 19.344 131.688 18.288C129.096 18.672 127.848 18.768 120.904 19.28C118.76 19.44 116.84 19.664 115.592 19.92ZM163.56 15.216H170.536C172.456 15.216 173.512 15.152 174.408 14.992V18.704C173.416 18.544 172.392 18.512 170.568 18.512H163.56V22.96H172.328C174.12 22.96 175.208 22.896 176.2 22.768V26.48C175.112 26.352 173.96 26.288 172.328 26.288H165.16C168.296 30.736 171.752 33.488 177.128 35.824C176.136 37.104 175.784 37.68 174.952 39.28C172.072 37.68 170.472 36.56 168.328 34.64C166.088 32.656 165.096 31.472 163.464 28.912C163.528 30.736 163.56 31.248 163.56 31.888V37.168C163.56 38.448 163.624 39.536 163.784 40.624H159.752C159.912 39.632 159.976 38.608 159.976 37.2V32.048C159.976 30.992 159.976 30.544 160.072 29.04C158.664 31.248 157.544 32.592 155.592 34.384C153.576 36.304 151.752 37.616 149.256 39.088C148.52 37.744 148.072 37.072 147.048 35.856C149.768 34.576 152.072 33.008 154.44 30.864C155.912 29.488 157.064 28.144 158.376 26.288H151.912C150.344 26.288 149.288 26.352 148.072 26.48V22.768C149.288 22.896 150.184 22.96 151.88 22.96H159.976V18.512H153.704C151.944 18.512 150.952 18.544 149.832 18.704V14.992C150.92 15.152 151.848 15.216 153.672 15.216H159.976V13.264C159.976 12.336 159.944 11.696 159.816 10.992H163.72C163.592 11.696 163.56 12.176 163.56 13.296V15.216ZM191.304 27.792H184.808C183.272 27.792 182.28 27.856 181.064 27.984V24.368C182.152 24.528 183.016 24.56 184.776 24.56H187.528C186.824 22.48 186.184 21.104 185.064 19.216L188.072 17.872C189.16 19.728 189.512 20.4 190.728 23.44L188.2 24.56H193.352V17.584H186.12C184.648 17.584 183.656 17.648 182.568 17.776V14.192C183.688 14.352 184.68 14.416 186.312 14.416H193.352V13.52C193.352 12.528 193.288 11.92 193.192 11.056H197.032C196.904 11.824 196.872 12.464 196.872 13.552V14.416H204.488C206.344 14.416 207.4 14.352 208.296 14.192V17.776C207.336 17.616 206.344 17.584 204.712 17.584H196.872V24.56H199.048C200.488 22.256 201.416 20.368 202.184 18.096L205.544 19.184C204.744 21.136 204.072 22.448 202.76 24.56H206.12C208.04 24.56 208.936 24.528 209.8 24.368V27.984C208.712 27.856 207.592 27.792 205.96 27.792H198.92C201.672 31.536 205.16 34.096 210.408 36.24C209.448 37.392 208.936 38.192 208.264 39.6C205.096 37.968 203.144 36.688 201 34.768C199.272 33.2 198.184 31.952 196.744 29.84C196.84 31.568 196.872 32.208 196.872 32.88V37.392C196.872 38.608 196.936 39.632 197.096 40.656H193.128C193.288 39.632 193.352 38.736 193.352 37.392V32.912C193.352 31.92 193.352 31.312 193.448 29.936C191.944 32.336 190.44 34.032 188.136 35.952C186.376 37.392 184.712 38.512 182.728 39.536C181.96 38.16 181.512 37.456 180.552 36.336C183.496 35.024 185.96 33.424 188.392 31.184C189.352 30.288 190.12 29.392 191.304 27.792ZM237.832 30.544L240.84 31.856C240.008 32.592 239.944 32.656 239.464 33.04C237.8 34.544 237.672 34.64 236.808 35.248C238.824 36.336 240.488 36.88 243.656 37.456C242.632 38.608 242.216 39.28 241.608 40.72C237.256 39.44 234.728 38.16 232.072 35.824V38.256C229.512 38.864 226.376 39.472 220.712 40.464C220.168 40.56 220.008 40.592 219.464 40.72L218.92 37.072C219.208 37.072 219.368 37.072 219.496 37.072C220.232 37.072 221.192 36.976 222.728 36.816V30.544H219.464C218.92 34.864 217.992 37.712 216.136 40.88C215.208 39.728 214.504 38.992 213.256 37.968C214.472 36.048 215.176 34.32 215.688 31.792C216.328 28.624 216.68 23.632 216.68 17.072C216.68 14.16 216.648 13.328 216.488 11.984C217.608 12.112 218.824 12.144 220.68 12.144H238.056C239.816 12.144 240.776 12.112 241.768 12.016C241.704 12.88 241.672 13.648 241.672 14.864V17.36C241.672 18.672 241.672 19.312 241.768 20.144C240.712 20.08 239.528 20.048 238.248 20.048H236.392V22.192H238.248C240.104 22.192 240.648 22.16 241.416 22.064V25.264C240.52 25.168 239.432 25.136 238.184 25.136H236.392V27.6H239.208C241 27.6 241.992 27.568 242.824 27.44V30.704C241.736 30.608 240.616 30.544 239.272 30.544H237.832ZM237.384 30.544H231.752C232.36 31.728 233 32.528 234.248 33.552C235.496 32.656 236.616 31.568 237.384 30.544ZM228.264 30.544H226.088V36.336C227.912 36.08 228.36 35.984 231.528 35.344C229.96 33.776 229.192 32.656 228.264 30.544ZM224.84 22.192V20.432V20.048H220.04C220.008 23.568 219.944 25.456 219.752 27.6H224.84V25.136H223.624C222.44 25.136 221.64 25.168 220.904 25.264V22.064C221.608 22.16 222.376 22.192 223.624 22.192H224.84ZM228.136 27.6H233.096V25.136H228.136V27.6ZM228.136 22.192H233.096V20.048H228.136V22.192ZM220.072 17.328H238.344V15.088H220.072V17.328Z" fill="#231815"/>
<path d="M140.584 59.096H139.376C139.424 58.784 139.44 58.472 139.44 58.056V53.648H139.056C138.76 53.648 138.528 53.664 138.232 53.696V52.68C138.48 52.72 138.656 52.728 139.032 52.728H139.768C140.176 52.728 140.296 52.72 140.584 52.688C140.536 53.16 140.52 53.528 140.52 54.008V58.056C140.52 58.48 140.536 58.768 140.584 59.096ZM142.927 57.672L144.031 57.44C144.103 57.672 144.159 57.776 144.271 57.904C144.495 58.176 144.831 58.312 145.255 58.312C146.047 58.312 146.567 57.784 146.567 56.992C146.567 56.208 146.071 55.704 145.311 55.704C144.919 55.704 144.567 55.832 144.319 56.072C144.207 56.184 144.151 56.256 144.079 56.432L143.079 56.336C143.159 55.768 143.167 55.728 143.183 55.504L143.367 53.52C143.375 53.376 143.391 53.104 143.399 52.704C143.639 52.72 143.823 52.728 144.247 52.728H146.215C146.767 52.728 146.967 52.72 147.327 52.664V53.672C146.975 53.624 146.663 53.608 146.223 53.608H144.343L144.215 55.008C144.207 55.072 144.191 55.184 144.167 55.344C144.559 55.008 144.983 54.856 145.535 54.856C146.183 54.856 146.703 55.048 147.095 55.456C147.487 55.84 147.663 56.32 147.663 56.96C147.663 58.368 146.743 59.24 145.255 59.24C144.463 59.24 143.871 59.016 143.431 58.544C143.215 58.312 143.103 58.12 142.927 57.672ZM148.407 54.504H149.575V55.672H148.407V54.504ZM148.407 57.928H149.575V59.096H148.407V57.928ZM152.667 59.224C151.987 59.224 151.411 59 150.987 58.576C150.747 58.336 150.563 58.056 150.459 57.768C150.251 57.2 150.147 56.576 150.147 55.928C150.147 55.08 150.339 54.2 150.635 53.712C151.067 52.992 151.787 52.6 152.675 52.6C153.355 52.6 153.939 52.824 154.363 53.248C154.603 53.488 154.787 53.768 154.891 54.056C155.099 54.616 155.203 55.256 155.203 55.912C155.203 56.896 154.987 57.76 154.611 58.28C154.163 58.904 153.499 59.224 152.667 59.224ZM152.675 58.296C153.027 58.296 153.339 58.176 153.539 57.96C153.899 57.584 154.099 56.84 154.099 55.904C154.099 54.976 153.899 54.248 153.539 53.856C153.347 53.64 153.027 53.52 152.667 53.52C152.283 53.52 152.003 53.648 151.771 53.928C151.419 54.344 151.243 55 151.243 55.872C151.243 56.712 151.395 57.408 151.651 57.776C151.899 58.128 152.235 58.296 152.675 58.296ZM158.122 59.224C157.442 59.224 156.866 59 156.442 58.576C156.202 58.336 156.018 58.056 155.914 57.768C155.706 57.2 155.602 56.576 155.602 55.928C155.602 55.08 155.794 54.2 156.09 53.712C156.522 52.992 157.242 52.6 158.13 52.6C158.81 52.6 159.394 52.824 159.818 53.248C160.058 53.488 160.242 53.768 160.346 54.056C160.554 54.616 160.658 55.256 160.658 55.912C160.658 56.896 160.442 57.76 160.066 58.28C159.618 58.904 158.954 59.224 158.122 59.224ZM158.13 58.296C158.482 58.296 158.794 58.176 158.994 57.96C159.354 57.584 159.554 56.84 159.554 55.904C159.554 54.976 159.354 54.248 158.994 53.856C158.802 53.64 158.482 53.52 158.122 53.52C157.738 53.52 157.458 53.648 157.226 53.928C156.874 54.344 156.698 55 156.698 55.872C156.698 56.712 156.85 57.408 157.106 57.776C157.354 58.128 157.69 58.296 158.13 58.296ZM141.032 71.096H138.464C137.84 71.096 137.712 71.104 137.432 71.136C137.48 70.68 137.536 70.4 137.64 70.112C137.856 69.528 138.216 69.016 138.736 68.544C139.016 68.296 139.256 68.112 140.056 67.576C140.792 67.072 141.016 66.808 141.016 66.4C141.016 65.856 140.592 65.52 139.912 65.52C139.448 65.52 139.096 65.68 138.896 65.992C138.76 66.184 138.704 66.36 138.648 66.728L137.504 66.592C137.616 65.984 137.76 65.656 138.056 65.312C138.456 64.848 139.088 64.6 139.888 64.6C141.288 64.6 142.152 65.272 142.152 66.368C142.152 66.896 141.976 67.28 141.584 67.648C141.36 67.856 141.28 67.92 140.24 68.632C139.888 68.88 139.488 69.216 139.288 69.432C139.048 69.688 138.952 69.848 138.832 70.152H141.072C141.576 70.152 141.976 70.128 142.24 70.088V71.144C141.864 71.112 141.544 71.096 141.032 71.096ZM145.295 71.224C144.615 71.224 144.039 71 143.615 70.576C143.375 70.336 143.191 70.056 143.087 69.768C142.879 69.2 142.775 68.576 142.775 67.928C142.775 67.08 142.967 66.2 143.263 65.712C143.695 64.992 144.415 64.6 145.303 64.6C145.983 64.6 146.567 64.824 146.991 65.248C147.231 65.488 147.415 65.768 147.519 66.056C147.727 66.616 147.831 67.256 147.831 67.912C147.831 68.896 147.615 69.76 147.239 70.28C146.791 70.904 146.127 71.224 145.295 71.224ZM145.303 70.296C145.655 70.296 145.967 70.176 146.167 69.96C146.527 69.584 146.727 68.84 146.727 67.904C146.727 66.976 146.527 66.248 146.167 65.856C145.975 65.64 145.655 65.52 145.295 65.52C144.911 65.52 144.631 65.648 144.399 65.928C144.047 66.344 143.871 67 143.871 67.872C143.871 68.712 144.023 69.408 144.279 69.776C144.527 70.128 144.863 70.296 145.303 70.296ZM148.407 66.504H149.575V67.672H148.407V66.504ZM148.407 69.928H149.575V71.096H148.407V69.928ZM152.667 71.224C151.987 71.224 151.411 71 150.987 70.576C150.747 70.336 150.563 70.056 150.459 69.768C150.251 69.2 150.147 68.576 150.147 67.928C150.147 67.08 150.339 66.2 150.635 65.712C151.067 64.992 151.787 64.6 152.675 64.6C153.355 64.6 153.939 64.824 154.363 65.248C154.603 65.488 154.787 65.768 154.891 66.056C155.099 66.616 155.203 67.256 155.203 67.912C155.203 68.896 154.987 69.76 154.611 70.28C154.163 70.904 153.499 71.224 152.667 71.224ZM152.675 70.296C153.027 70.296 153.339 70.176 153.539 69.96C153.899 69.584 154.099 68.84 154.099 67.904C154.099 66.976 153.899 66.248 153.539 65.856C153.347 65.64 153.027 65.52 152.667 65.52C152.283 65.52 152.003 65.648 151.771 65.928C151.419 66.344 151.243 67 151.243 67.872C151.243 68.712 151.395 69.408 151.651 69.776C151.899 70.128 152.235 70.296 152.675 70.296ZM158.122 71.224C157.442 71.224 156.866 71 156.442 70.576C156.202 70.336 156.018 70.056 155.914 69.768C155.706 69.2 155.602 68.576 155.602 67.928C155.602 67.08 155.794 66.2 156.09 65.712C156.522 64.992 157.242 64.6 158.13 64.6C158.81 64.6 159.394 64.824 159.818 65.248C160.058 65.488 160.242 65.768 160.346 66.056C160.554 66.616 160.658 67.256 160.658 67.912C160.658 68.896 160.442 69.76 160.066 70.28C159.618 70.904 158.954 71.224 158.122 71.224ZM158.13 70.296C158.482 70.296 158.794 70.176 158.994 69.96C159.354 69.584 159.554 68.84 159.554 67.904C159.554 66.976 159.354 66.248 158.994 65.856C158.802 65.64 158.482 65.52 158.122 65.52C157.738 65.52 157.458 65.648 157.226 65.928C156.874 66.344 156.698 67 156.698 67.872C156.698 68.712 156.85 69.408 157.106 69.776C157.354 70.128 157.69 70.296 158.13 70.296Z" fill="#231815"/>
<path d="M243.011 59.096H241.803C241.851 58.784 241.867 58.472 241.867 58.056V53.648H241.483C241.187 53.648 240.955 53.664 240.659 53.696V52.68C240.907 52.72 241.083 52.728 241.459 52.728H242.195C242.603 52.728 242.723 52.72 243.011 52.688C242.963 53.16 242.947 53.528 242.947 54.008V58.056C242.947 58.48 242.963 58.768 243.011 59.096ZM245.355 57.672L246.459 57.44C246.531 57.672 246.587 57.776 246.699 57.904C246.923 58.176 247.259 58.312 247.683 58.312C248.475 58.312 248.995 57.784 248.995 56.992C248.995 56.208 248.499 55.704 247.739 55.704C247.347 55.704 246.995 55.832 246.747 56.072C246.635 56.184 246.579 56.256 246.507 56.432L245.507 56.336C245.587 55.768 245.595 55.728 245.611 55.504L245.795 53.52C245.803 53.376 245.819 53.104 245.827 52.704C246.067 52.72 246.251 52.728 246.675 52.728H248.643C249.195 52.728 249.395 52.72 249.755 52.664V53.672C249.403 53.624 249.091 53.608 248.651 53.608H246.771L246.643 55.008C246.635 55.072 246.619 55.184 246.595 55.344C246.987 55.008 247.411 54.856 247.963 54.856C248.611 54.856 249.131 55.048 249.523 55.456C249.915 55.84 250.091 56.32 250.091 56.96C250.091 58.368 249.171 59.24 247.683 59.24C246.891 59.24 246.299 59.016 245.859 58.544C245.643 58.312 245.531 58.12 245.355 57.672ZM250.834 54.504H252.002V55.672H250.834V54.504ZM250.834 57.928H252.002V59.096H250.834V57.928ZM255.094 59.224C254.414 59.224 253.838 59 253.414 58.576C253.174 58.336 252.99 58.056 252.886 57.768C252.678 57.2 252.574 56.576 252.574 55.928C252.574 55.08 252.766 54.2 253.062 53.712C253.494 52.992 254.214 52.6 255.102 52.6C255.782 52.6 256.366 52.824 256.79 53.248C257.03 53.488 257.214 53.768 257.318 54.056C257.526 54.616 257.63 55.256 257.63 55.912C257.63 56.896 257.414 57.76 257.038 58.28C256.59 58.904 255.926 59.224 255.094 59.224ZM255.102 58.296C255.454 58.296 255.766 58.176 255.966 57.96C256.326 57.584 256.526 56.84 256.526 55.904C256.526 54.976 256.326 54.248 255.966 53.856C255.774 53.64 255.454 53.52 255.094 53.52C254.71 53.52 254.43 53.648 254.198 53.928C253.846 54.344 253.67 55 253.67 55.872C253.67 56.712 253.822 57.408 254.078 57.776C254.326 58.128 254.662 58.296 255.102 58.296ZM260.549 59.224C259.869 59.224 259.293 59 258.869 58.576C258.629 58.336 258.445 58.056 258.341 57.768C258.133 57.2 258.029 56.576 258.029 55.928C258.029 55.08 258.221 54.2 258.517 53.712C258.949 52.992 259.669 52.6 260.557 52.6C261.237 52.6 261.821 52.824 262.245 53.248C262.485 53.488 262.669 53.768 262.773 54.056C262.981 54.616 263.085 55.256 263.085 55.912C263.085 56.896 262.869 57.76 262.493 58.28C262.045 58.904 261.381 59.224 260.549 59.224ZM260.557 58.296C260.909 58.296 261.221 58.176 261.421 57.96C261.781 57.584 261.981 56.84 261.981 55.904C261.981 54.976 261.781 54.248 261.421 53.856C261.229 53.64 260.909 53.52 260.549 53.52C260.165 53.52 259.885 53.648 259.653 53.928C259.301 54.344 259.125 55 259.125 55.872C259.125 56.712 259.277 57.408 259.533 57.776C259.781 58.128 260.117 58.296 260.557 58.296ZM243.011 71.096H241.803C241.851 70.784 241.867 70.472 241.867 70.056V65.648H241.483C241.187 65.648 240.955 65.664 240.659 65.696V64.68C240.907 64.72 241.083 64.728 241.459 64.728H242.195C242.603 64.728 242.723 64.72 243.011 64.688C242.963 65.16 242.947 65.528 242.947 66.008V70.056C242.947 70.48 242.963 70.768 243.011 71.096ZM245.371 69.84L246.475 69.552C246.571 69.784 246.627 69.888 246.723 69.992C246.923 70.208 247.235 70.32 247.643 70.32C248.027 70.32 248.323 70.216 248.547 69.992C248.947 69.608 249.131 69.032 249.171 68.088C249.019 68.312 248.931 68.408 248.747 68.544C248.387 68.792 247.979 68.912 247.451 68.912C246.123 68.912 245.275 68.096 245.275 66.808C245.275 65.992 245.635 65.328 246.291 64.928C246.659 64.696 247.139 64.576 247.691 64.576C248.715 64.576 249.555 65.176 249.891 66.152C250.043 66.584 250.123 67.152 250.123 67.808C250.123 69.016 249.803 70.072 249.275 70.584C248.851 71.008 248.331 71.192 247.571 71.192C246.899 71.192 246.427 71.048 246.027 70.728C245.755 70.512 245.603 70.304 245.371 69.84ZM247.611 68.048C248.395 68.048 248.987 67.488 248.987 66.744C248.987 65.992 248.435 65.456 247.643 65.456C246.875 65.456 246.339 66 246.339 66.768C246.339 67.544 246.835 68.048 247.611 68.048ZM250.834 66.504H252.002V67.672H250.834V66.504ZM250.834 69.928H252.002V71.096H250.834V69.928ZM255.094 71.224C254.414 71.224 253.838 71 253.414 70.576C253.174 70.336 252.99 70.056 252.886 69.768C252.678 69.2 252.574 68.576 252.574 67.928C252.574 67.08 252.766 66.2 253.062 65.712C253.494 64.992 254.214 64.6 255.102 64.6C255.782 64.6 256.366 64.824 256.79 65.248C257.03 65.488 257.214 65.768 257.318 66.056C257.526 66.616 257.63 67.256 257.63 67.912C257.63 68.896 257.414 69.76 257.038 70.28C256.59 70.904 255.926 71.224 255.094 71.224ZM255.102 70.296C255.454 70.296 255.766 70.176 255.966 69.96C256.326 69.584 256.526 68.84 256.526 67.904C256.526 66.976 256.326 66.248 255.966 65.856C255.774 65.64 255.454 65.52 255.094 65.52C254.71 65.52 254.43 65.648 254.198 65.928C253.846 66.344 253.67 67 253.67 67.872C253.67 68.712 253.822 69.408 254.078 69.776C254.326 70.128 254.662 70.296 255.102 70.296ZM260.549 71.224C259.869 71.224 259.293 71 258.869 70.576C258.629 70.336 258.445 70.056 258.341 69.768C258.133 69.2 258.029 68.576 258.029 67.928C258.029 67.08 258.221 66.2 258.517 65.712C258.949 64.992 259.669 64.6 260.557 64.6C261.237 64.6 261.821 64.824 262.245 65.248C262.485 65.488 262.669 65.768 262.773 66.056C262.981 66.616 263.085 67.256 263.085 67.912C263.085 68.896 262.869 69.76 262.493 70.28C262.045 70.904 261.381 71.224 260.549 71.224ZM260.557 70.296C260.909 70.296 261.221 70.176 261.421 69.96C261.781 69.584 261.981 68.84 261.981 67.904C261.981 66.976 261.781 66.248 261.421 65.856C261.229 65.64 260.909 65.52 260.549 65.52C260.165 65.52 259.885 65.648 259.653 65.928C259.301 66.344 259.125 67 259.125 67.872C259.125 68.712 259.277 69.408 259.533 69.776C259.781 70.128 260.117 70.296 260.557 70.296Z" fill="#231815"/>
</svg>
