<svg width="590" height="67" viewBox="0 0 590 67" fill="none" xmlns="http://www.w3.org/2000/svg">
<path d="M0 66.3171V0H10.849V66.3171H0ZM4.53798 10.4472V0H42.4352V10.4472H4.53798ZM4.53798 39.1749V28.7748H37.4442V39.1749H4.53798Z" fill="#231815"/>
<path d="M82.8396 67C75.3336 67 69.5303 64.8493 65.4141 60.548C61.2979 56.2467 59.2437 50.1715 59.2437 42.3302V0H70.0926V42.6442C70.0926 46.9612 71.2017 50.3049 73.4278 52.6754C75.6538 55.0458 78.7937 56.231 82.8474 56.231C86.9011 56.231 90.0957 55.0458 92.3295 52.6754C94.5712 50.3049 95.6881 46.9612 95.6881 42.6442V0H106.537V42.3224C106.537 50.1637 104.475 56.2389 100.343 60.5402C96.2114 64.8415 90.3847 66.9921 82.8474 66.9921L82.8396 67Z" fill="#231815"/>
<path d="M129.227 66.27V0H141.029L169.436 51.0349L168.351 52.2201V0H178.879V66.27H166.991L138.67 16.0122L139.756 14.827V66.27H129.227Z" fill="#231815"/>
<path d="M201.811 66.3171V55.1871H212.887V66.3171H201.811ZM201.944 47.9345V0H212.746V47.9345H201.944Z" fill="#231815"/>
<path d="M235.92 28.508V18.9791H258.071V28.508H235.92ZM252.26 66.5447C248.238 66.5447 245.317 65.4694 243.504 63.3109C241.692 61.1524 240.779 58.052 240.779 54.0097V5.19611H251.627V52.487C251.627 53.6094 251.854 54.4964 252.307 55.1321C252.76 55.7679 253.424 56.0897 254.307 56.0897H258.071V66.5369H252.26V66.5447Z" fill="#231815"/>
<path d="M292.352 67C286.963 67 282.917 65.7991 280.214 63.3972C277.504 60.9954 276.153 57.3142 276.153 52.3614C276.153 47.4086 277.512 44.1277 280.238 41.8043C282.964 39.481 287.049 38.3115 292.493 38.3115H305.107L305.74 46.7964H292.532C290.384 46.7964 288.775 47.2516 287.697 48.1621C286.619 49.0726 286.088 50.4698 286.088 52.3614C286.088 54.253 286.783 55.8072 288.174 56.7648C289.564 57.7223 291.665 58.2011 294.485 58.2011C297.906 58.2011 300.46 57.8244 302.155 57.063C303.849 56.3017 304.693 55.1164 304.693 53.5074L305.646 60.2576C305.13 61.8039 304.217 63.0754 302.897 64.0644C301.577 65.0534 300.014 65.7912 298.202 66.2779C296.39 66.7645 294.438 67.0078 292.344 67.0078L292.352 67ZM304.693 66.3171V36.31C304.693 33.6648 303.912 31.6162 302.358 30.1563C300.796 28.6963 298.601 27.9664 295.75 27.9664C293.938 27.9664 292.149 28.2489 290.392 28.8062C288.634 29.3714 287.064 30.1798 285.674 31.2473L278.457 25.1328C280.3 22.9743 282.722 21.2946 285.721 20.0937C288.72 18.8928 292.048 18.2963 295.703 18.2963C301.756 18.2963 306.435 19.8347 309.747 22.9037C313.058 25.9727 314.714 30.3054 314.714 35.9018V66.325H304.685L304.693 66.3171Z" fill="#231815"/>
<path d="M353.775 67C349.573 67 345.66 66.4035 342.043 65.2182C338.427 64.033 335.272 62.3141 332.585 60.0614L339.161 51.8512C341.583 53.5545 344.035 54.8496 346.511 55.7287C348.995 56.6078 351.416 57.0473 353.775 57.0473C357.071 57.0473 359.578 56.5999 361.289 55.7051C362.999 54.8103 363.851 53.5074 363.851 51.8041C363.851 50.1951 363.265 49.0726 362.101 48.4526C360.937 47.8325 359.414 47.4165 357.54 47.2202C355.665 47.024 353.65 46.8199 351.502 46.608C349.534 46.3961 347.589 46.1135 345.668 45.7603C343.746 45.4071 341.989 44.8106 340.403 43.9629C338.818 43.1152 337.545 41.8436 336.592 40.156C335.639 38.4685 335.162 36.1844 335.162 33.2881C335.162 28.3902 336.763 24.6698 339.974 22.1109C343.184 19.56 347.823 18.2806 353.908 18.2806C357.571 18.2806 361.062 18.7986 364.39 19.8269C367.717 20.8629 370.771 22.3778 373.559 24.3872L367.069 32.3226C364.858 30.9804 362.625 29.9679 360.375 29.2693C358.118 28.5708 355.939 28.2176 353.814 28.2176C350.971 28.2176 348.807 28.6257 347.323 29.4499C345.839 30.274 345.097 31.4906 345.097 33.0997C345.097 34.2849 345.613 35.1483 346.636 35.6742C347.667 36.2079 349.018 36.569 350.698 36.7652C352.377 36.9615 354.181 37.1498 356.118 37.3382C358.141 37.5187 360.188 37.7778 362.242 38.1153C364.296 38.4528 366.194 39.0729 367.936 39.9834C369.678 40.8939 371.076 42.2596 372.138 44.0884C373.2 45.9094 373.723 48.4055 373.723 51.5686C373.723 56.5842 372.021 60.4067 368.615 63.0362C365.21 65.6656 360.258 66.9843 353.752 66.9843L353.775 67Z" fill="#231815"/>
<path d="M392.867 10.9024V0H403.669V10.9024H392.867ZM392.867 66.3171V18.9713H403.669V66.3093H392.867V66.3171Z" fill="#231815"/>
<path d="M442.402 67C438.2 67 434.287 66.4035 430.671 65.2182C427.055 64.033 423.899 62.3141 421.212 60.0614L427.789 51.8512C430.21 53.5545 432.663 54.8496 435.138 55.7287C437.622 56.6078 440.044 57.0473 442.402 57.0473C445.698 57.0473 448.206 56.5999 449.916 55.7051C451.627 54.8103 452.478 53.5074 452.478 51.8041C452.478 50.1951 451.892 49.0726 450.729 48.4526C449.565 47.8325 448.042 47.4165 446.167 47.2202C444.293 47.024 442.277 46.8199 440.13 46.608C438.161 46.3961 436.216 46.1135 434.295 45.7603C432.374 45.4071 430.616 44.8106 429.031 43.9629C427.445 43.1152 426.172 41.8436 425.219 40.156C424.266 38.4685 423.79 36.1844 423.79 33.2881C423.79 28.3902 425.391 24.6698 428.601 22.1109C431.811 19.56 436.451 18.2806 442.535 18.2806C446.198 18.2806 449.69 18.7986 453.017 19.8269C456.344 20.8629 459.398 22.3778 462.187 24.3872L455.696 32.3226C453.486 30.9804 451.252 29.9679 449.002 29.2693C446.745 28.5708 444.566 28.2176 442.441 28.2176C439.598 28.2176 437.435 28.6257 435.951 29.4499C434.467 30.274 433.725 31.4906 433.725 33.0997C433.725 34.2849 434.24 35.1483 435.263 35.6742C436.294 36.2079 437.646 36.569 439.325 36.7652C441.004 36.9615 442.809 37.1498 444.746 37.3382C446.769 37.5187 448.815 37.7778 450.869 38.1153C452.923 38.4528 454.821 39.0729 456.563 39.9834C458.305 40.8939 459.703 42.2596 460.765 44.0884C461.827 45.9094 462.351 48.4055 462.351 51.5686C462.351 56.5842 460.648 60.4067 457.243 63.0362C453.837 65.6656 448.885 66.9843 442.379 66.9843L442.402 67Z" fill="#231815"/>
<path d="M478.183 28.508V18.9791H500.334V28.508H478.183ZM494.523 66.5447C490.5 66.5447 487.579 65.4694 485.767 63.3109C483.955 61.1524 483.041 58.052 483.041 54.0097V5.19611H493.89V52.487C493.89 53.6094 494.117 54.4964 494.57 55.1321C495.023 55.7679 495.687 56.0897 496.569 56.0897H500.334V66.5369H494.523V66.5447Z" fill="#231815"/>
<path d="M534.615 67C529.225 67 525.179 65.7991 522.477 63.3972C519.767 60.9954 518.415 57.3142 518.415 52.3614C518.415 47.4086 519.775 44.1277 522.5 41.8043C525.226 39.481 529.311 38.3115 534.755 38.3115H547.37L548.002 46.7964H534.794C532.646 46.7964 531.037 47.2516 529.96 48.1621C528.882 49.0726 528.351 50.4698 528.351 52.3614C528.351 54.253 529.046 55.8072 530.436 56.7648C531.826 57.7223 533.927 58.2011 536.747 58.2011C540.168 58.2011 542.722 57.8244 544.417 57.063C546.112 56.3017 546.956 55.1164 546.956 53.5074L547.908 60.2576C547.393 61.8039 546.479 63.0754 545.159 64.0644C543.847 65.0534 542.277 65.7912 540.465 66.2779C538.653 66.7645 536.7 67.0078 534.607 67.0078L534.615 67ZM546.963 66.3171V36.31C546.963 33.6648 546.182 31.6162 544.628 30.1563C543.074 28.6963 540.871 27.9664 538.028 27.9664C536.216 27.9664 534.427 28.2489 532.67 28.8062C530.912 29.3714 529.343 30.1798 527.952 31.2473L520.735 25.1328C522.579 22.9743 525 21.2946 527.999 20.0937C530.998 18.8928 534.326 18.2963 537.981 18.2963C544.034 18.2963 548.713 19.8347 552.025 22.9037C555.336 25.9727 556.992 30.3054 556.992 35.9018V66.325H546.963V66.3171Z" fill="#231815"/>
<path d="M578.932 66.3171V55.1871H590.008V66.3171H578.932ZM579.065 47.9345V0H589.867V47.9345H579.065Z" fill="#231815"/>
</svg>
