<svg viewBox="0 0 142 18" fill="none" xmlns="http://www.w3.org/2000/svg">
<path d="M0.364029 17.6301V0H2.95452V17.6301H0.364029ZM1.4476 2.77732V0H10.4966V2.77732H1.4476ZM1.4476 10.4144V7.64964H9.30487V10.4144H1.4476Z" fill="white"/>
<path d="M20.1443 17.8116C18.352 17.8116 16.9663 17.2399 15.9835 16.0964C15.0006 14.9529 14.5101 13.3378 14.5101 11.2533V0H17.1006V11.3367C17.1006 12.4844 17.3654 13.3733 17.897 14.0035C18.4285 14.6336 19.1782 14.9487 20.1462 14.9487C21.1141 14.9487 21.8769 14.6336 22.4103 14.0035C22.9455 13.3733 23.2122 12.4844 23.2122 11.3367V0H25.8027V11.2512C25.8027 13.3357 25.3104 14.9508 24.3238 16.0943C23.3372 17.2378 21.9459 17.8095 20.1462 17.8095L20.1443 17.8116Z" fill="white"/>
<path d="M31.2206 17.6175V0H34.0386L40.8216 13.5674L40.5624 13.8824V0H43.0764V17.6175H40.2379L33.4754 4.25675L33.7346 3.94167V17.6175H31.2206Z" fill="white"/>
<path d="M48.5521 17.6301V14.6712H51.1967V17.6301H48.5521ZM48.5838 12.7431V0H51.1631V12.7431H48.5838Z" fill="white"/>
<path d="M56.6966 7.57868V5.04549H61.9857V7.57868H56.6966ZM60.5982 17.6906C59.6377 17.6906 58.9402 17.4047 58.5075 16.8309C58.0748 16.257 57.8566 15.4328 57.8566 14.3582V1.38135H60.4471V13.9534C60.4471 14.2518 60.5012 14.4876 60.6094 14.6566C60.7175 14.8256 60.876 14.9111 61.0868 14.9111H61.9857V17.6885H60.5982V17.6906Z" fill="white"/>
<path d="M70.1713 17.8114C68.8844 17.8114 67.9183 17.4921 67.273 16.8536C66.6259 16.2151 66.3032 15.2365 66.3032 13.9198C66.3032 12.6031 66.6277 11.7309 67.2786 11.1133C67.9295 10.4956 68.9049 10.1847 70.2048 10.1847H73.2168L73.3679 12.4404H70.2142C69.7013 12.4404 69.3171 12.5614 69.0597 12.8035C68.8023 13.0455 68.6755 13.4169 68.6755 13.9198C68.6755 14.4227 68.8415 14.8358 69.1735 15.0904C69.5055 15.345 70.0071 15.4723 70.6804 15.4723C71.4973 15.4723 72.1071 15.3721 72.5118 15.1697C72.9165 14.9673 73.118 14.6522 73.118 14.2245L73.3455 16.019C73.2224 16.43 73.0042 16.7681 72.689 17.031C72.3738 17.2939 72.0008 17.4901 71.5681 17.6194C71.1355 17.7488 70.6692 17.8135 70.1694 17.8135L70.1713 17.8114ZM73.118 17.6299V9.65262C73.118 8.94942 72.9315 8.4048 72.5603 8.01669C72.1873 7.62857 71.6633 7.43452 70.9825 7.43452C70.5499 7.43452 70.1228 7.50963 69.7031 7.65779C69.2835 7.80802 68.9086 8.02295 68.5767 8.30673L66.8534 6.68124C67.2936 6.10741 67.8717 5.66087 68.5879 5.34161C69.304 5.02235 70.0985 4.86377 70.9713 4.86377C72.4167 4.86377 73.5339 5.27275 74.3246 6.08863C75.1154 6.90451 75.5108 8.05634 75.5108 9.54411V17.6319H73.1161L73.118 17.6299Z" fill="white"/>
<path d="M84.8377 17.8117C83.8343 17.8117 82.8999 17.6531 82.0364 17.338C81.1729 17.0229 80.4195 16.5659 79.7779 15.9671L81.3482 13.7844C81.9264 14.2372 82.512 14.5815 83.1032 14.8152C83.6963 15.0489 84.2744 15.1658 84.8377 15.1658C85.6247 15.1658 86.2234 15.0469 86.6318 14.809C87.0402 14.5711 87.2435 14.2247 87.2435 13.7719C87.2435 13.3442 87.1036 13.0458 86.8258 12.8809C86.5479 12.7161 86.1842 12.6055 85.7366 12.5533C85.289 12.5012 84.8078 12.4469 84.2949 12.3906C83.825 12.3342 83.3606 12.2591 82.9018 12.1652C82.443 12.0713 82.0234 11.9127 81.6448 11.6874C81.2662 11.462 80.9622 11.124 80.7347 10.6753C80.5071 10.2267 80.3934 9.6195 80.3934 8.84953C80.3934 7.54746 80.7757 6.55839 81.5422 5.87815C82.3087 5.19999 83.4165 4.85986 84.8694 4.85986C85.7441 4.85986 86.5777 4.99758 87.3722 5.27093C88.1667 5.54637 88.8959 5.94909 89.5617 6.48327L88.0119 8.59287C87.4841 8.23605 86.9507 7.96688 86.4136 7.78116C85.8746 7.59545 85.3543 7.50155 84.847 7.50155C84.1681 7.50155 83.6515 7.61006 83.2972 7.82916C82.9428 8.04825 82.7656 8.37168 82.7656 8.79945C82.7656 9.11453 82.8887 9.34406 83.133 9.48387C83.3792 9.62576 83.7019 9.72174 84.1029 9.77391C84.5038 9.82608 84.9346 9.87615 85.3972 9.92623C85.8802 9.97423 86.3688 10.0431 86.8593 10.1328C87.3498 10.2225 87.803 10.3874 88.2189 10.6294C88.6348 10.8715 88.9687 11.2346 89.2223 11.7207C89.4759 12.2048 89.6009 12.8684 89.6009 13.7093C89.6009 15.0427 89.1943 16.0589 88.3812 16.7579C87.568 17.4569 86.3856 17.8075 84.8321 17.8075L84.8377 17.8117Z" fill="white"/>
<path d="M94.172 2.89835V0H96.7513V2.89835H94.172ZM94.172 17.6301V5.04342H96.7513V17.628H94.172V17.6301Z" fill="white"/>
<path d="M106 17.8117C104.997 17.8117 104.062 17.6531 103.199 17.338C102.335 17.0229 101.582 16.5659 100.94 15.9671L102.51 13.7844C103.089 14.2372 103.674 14.5815 104.265 14.8152C104.859 15.0489 105.437 15.1658 106 15.1658C106.787 15.1658 107.386 15.0469 107.794 14.809C108.202 14.5711 108.406 14.2247 108.406 13.7719C108.406 13.3442 108.266 13.0458 107.988 12.8809C107.71 12.7161 107.346 12.6055 106.899 12.5533C106.451 12.5012 105.97 12.4469 105.457 12.3906C104.987 12.3342 104.523 12.2591 104.064 12.1652C103.605 12.0713 103.186 11.9127 102.807 11.6874C102.428 11.462 102.124 11.124 101.897 10.6753C101.669 10.2267 101.556 9.6195 101.556 8.84953C101.556 7.54746 101.938 6.55839 102.704 5.87815C103.471 5.19999 104.579 4.85986 106.032 4.85986C106.906 4.85986 107.74 4.99758 108.534 5.27093C109.329 5.54637 110.058 5.94909 110.724 6.48327L109.174 8.59287C108.646 8.23605 108.113 7.96688 107.576 7.78116C107.037 7.59545 106.517 7.50155 106.009 7.50155C105.33 7.50155 104.814 7.61006 104.459 7.82916C104.105 8.04825 103.928 8.37168 103.928 8.79945C103.928 9.11453 104.051 9.34406 104.295 9.48387C104.541 9.62576 104.864 9.72174 105.265 9.77391C105.666 9.82608 106.097 9.87615 106.559 9.92623C107.042 9.97423 107.531 10.0431 108.022 10.1328C108.512 10.2225 108.965 10.3874 109.381 10.6294C109.797 10.8715 110.131 11.2346 110.385 11.7207C110.638 12.2048 110.763 12.8684 110.763 13.7093C110.763 15.0427 110.357 16.0589 109.543 16.7579C108.73 17.4569 107.548 17.8075 105.994 17.8075L106 17.8117Z" fill="white"/>
<path d="M114.543 7.57868V5.04549H119.833V7.57868H114.543ZM118.445 17.6906C117.485 17.6906 116.787 17.4047 116.354 16.8309C115.922 16.257 115.704 15.4328 115.704 14.3582V1.38135H118.294V13.9534C118.294 14.2518 118.348 14.4876 118.456 14.6566C118.564 14.8256 118.723 14.9111 118.934 14.9111H119.833V17.6885H118.445V17.6906Z" fill="white"/>
<path d="M128.018 17.8114C126.731 17.8114 125.765 17.4921 125.12 16.8536C124.473 16.2151 124.15 15.2365 124.15 13.9198C124.15 12.6031 124.475 11.7309 125.126 11.1133C125.776 10.4956 126.752 10.1847 128.052 10.1847H131.064L131.215 12.4404H128.061C127.548 12.4404 127.164 12.5614 126.907 12.8035C126.649 13.0455 126.522 13.4169 126.522 13.9198C126.522 14.4227 126.688 14.8358 127.02 15.0904C127.352 15.345 127.854 15.4723 128.527 15.4723C129.344 15.4723 129.954 15.3721 130.359 15.1697C130.763 14.9673 130.965 14.6522 130.965 14.2245L131.192 16.019C131.069 16.43 130.851 16.7681 130.536 17.031C130.223 17.2939 129.848 17.4901 129.415 17.6194C128.982 17.7488 128.516 17.8135 128.016 17.8135L128.018 17.8114ZM130.967 17.6299V9.65262C130.967 8.94942 130.78 8.4048 130.409 8.01669C130.038 7.62857 129.512 7.43452 128.833 7.43452C128.4 7.43452 127.973 7.50963 127.554 7.65779C127.134 7.80802 126.759 8.02295 126.427 8.30673L124.704 6.68124C125.144 6.10741 125.722 5.66087 126.439 5.34161C127.155 5.02235 127.949 4.86377 128.822 4.86377C130.267 4.86377 131.385 5.27275 132.175 6.08863C132.966 6.90451 133.361 8.05634 133.361 9.54411V17.6319H130.967V17.6299Z" fill="white"/>
<path d="M138.6 17.6301V14.6712H141.245V17.6301H138.6ZM138.632 12.7431V0H141.211V12.7431H138.632Z" fill="white"/>
</svg>
