<svg width="41" height="30" viewBox="0 0 41 30" fill="none" xmlns="http://www.w3.org/2000/svg">
<path d="M29.9375 26.5489V23.4344C29.9375 23.2096 30.0499 23.0971 30.2748 23.0971H31.1743C31.3991 23.0971 31.5116 23.2096 31.5116 23.4344V26.1441C31.5116 26.9612 31.5678 27.4765 31.6802 27.6901C31.7927 27.9037 32.0288 28.0106 32.3886 28.0106C32.7708 28.0106 33.0613 27.8588 33.2599 27.5552C33.4586 27.2479 33.5579 26.6126 33.5579 25.6494V23.4344C33.5579 23.2096 33.6703 23.0971 33.8952 23.0971H34.7947C35.0195 23.0971 35.132 23.2096 35.132 23.4344V28.6627C35.132 28.8876 35.0195 29 34.7947 29H33.9064C33.6816 29 33.5691 28.8876 33.5691 28.6627V28.3366H33.5466C33.3742 28.6327 33.155 28.837 32.8889 28.9494C32.6228 29.0581 32.308 29.1124 31.9444 29.1124C31.371 29.1124 30.8932 28.9288 30.5109 28.5615C30.1286 28.1942 29.9375 27.5233 29.9375 26.5489Z" fill="#231815"/>
<path d="M23.5399 29C23.315 29 23.2026 28.8876 23.2026 28.6627V23.4345C23.2026 23.2096 23.315 23.0971 23.5399 23.0971H24.4281C24.653 23.0971 24.7654 23.2096 24.7654 23.4345V23.7605H24.7879C24.9603 23.4644 25.1796 23.2621 25.4457 23.1534C25.7118 23.0409 26.0322 22.9847 26.407 22.9847C26.9917 22.9847 27.4751 23.1684 27.8574 23.5356C28.2397 23.9029 28.4308 24.5738 28.4308 25.5482V28.6627C28.4308 28.8876 28.3184 29 28.0935 29H27.194C26.9692 29 26.8567 28.8876 26.8567 28.6627V25.953C26.8567 25.136 26.8005 24.6206 26.6881 24.407C26.5757 24.1934 26.3339 24.0866 25.9629 24.0866C25.5694 24.0866 25.2733 24.2402 25.0746 24.5476C24.876 24.8511 24.7767 25.4845 24.7767 26.4477V28.6627C24.7767 28.8876 24.6643 29 24.4394 29H23.5399Z" fill="#231815"/>
<path d="M16.2878 26.0486C16.2878 25.1004 16.5239 24.3527 16.9962 23.8055C17.4721 23.2583 18.143 22.9847 19.0088 22.9847C20.0132 22.9847 20.759 23.2433 21.2462 23.7605C21.7334 24.2777 21.9771 25.1097 21.9771 26.2566C21.9771 26.4814 21.8721 26.5939 21.6622 26.5939H17.9519C18.0118 27.216 18.1655 27.6077 18.4129 27.7688C18.6602 27.93 18.9469 28.0106 19.273 28.0106C19.5841 28.0106 19.822 27.9693 19.9869 27.8869C20.1519 27.8044 20.2905 27.692 20.403 27.5496C20.5304 27.3847 20.6878 27.3584 20.8752 27.4709L21.4374 27.8138C21.6585 27.9487 21.6903 28.1099 21.5329 28.2973C21.3043 28.5709 21.0363 28.7751 20.729 28.91C20.4217 29.045 19.9364 29.1124 19.273 29.1124C18.1974 29.1124 17.4309 28.8388 16.9737 28.2917C16.5164 27.7445 16.2878 26.9968 16.2878 26.0486ZM17.9575 25.4695H20.403C20.403 25.0648 20.3018 24.735 20.0994 24.4801C19.897 24.2215 19.5747 24.0922 19.1324 24.0922C18.7801 24.0922 18.5009 24.2159 18.2948 24.4632C18.0887 24.7068 17.9762 25.0423 17.9575 25.4695Z" fill="#231815"/>
<path d="M7.10187 29C6.877 29 6.76456 28.8876 6.76456 28.6627V23.4345C6.76456 23.2096 6.877 23.0971 7.10187 23.0971H7.9901C8.21497 23.0971 8.32741 23.2096 8.32741 23.4345V23.7605H8.3499C8.45858 23.5207 8.64223 23.3314 8.90083 23.1927C9.15943 23.054 9.40117 22.9847 9.62604 22.9847C10.0758 22.9847 10.4243 23.0897 10.6717 23.2995C10.9228 23.5094 11.0952 23.7436 11.1889 24.0022H11.2114C11.5374 23.5787 11.8316 23.3033 12.094 23.1759C12.3601 23.0484 12.6993 22.9847 13.1115 22.9847C13.6662 22.9847 14.1328 23.1684 14.5113 23.5356C14.8936 23.9029 15.0848 24.5738 15.0848 25.5482V28.6627C15.0848 28.8876 14.9723 29 14.7475 29H13.848C13.6231 29 13.5107 28.8876 13.5107 28.6627V25.953C13.5107 25.136 13.4545 24.6206 13.342 24.407C13.2333 24.1934 13.0384 24.0866 12.7574 24.0866C12.495 24.0866 12.2551 24.2402 12.0378 24.5476C11.8204 24.8549 11.7117 25.4883 11.7117 26.4477V28.6627C11.7117 28.8876 11.5993 29 11.3744 29H10.4749C10.2501 29 10.1376 28.8876 10.1376 28.6627V25.953C10.1376 25.136 10.0814 24.6206 9.96896 24.407C9.86028 24.1934 9.66539 24.0866 9.3843 24.0866C9.12195 24.0866 8.88209 24.2402 8.66472 24.5476C8.44734 24.8511 8.33865 25.4845 8.33865 26.4477V28.6627C8.33865 28.8876 8.22622 29 8.00135 29H7.10187Z" fill="#231815"/>
<path d="M2 2H39.0331" stroke="#231815" stroke-width="2.30267" stroke-linecap="round"/>
<path d="M2 17.8715H39.0331" stroke="#231815" stroke-width="2.30267" stroke-linecap="round"/>
<path d="M2 9.93564H39.0331" stroke="#231815" stroke-width="2.30267" stroke-linecap="round"/>
</svg>
