<svg width="633" height="827" viewBox="0 0 633 827" fill="none" xmlns="http://www.w3.org/2000/svg">
<path d="M185.321 156.922L67.9331 166.56L78.0795 290.139L37.7172 293.453L14.999 16.7578L172.758 3.80492L175.629 38.777L111.202 127.791L182.458 121.941L185.329 156.913L185.321 156.922Z" stroke="#231815" stroke-width="6" stroke-miterlimit="10"/>
<path d="M265.25 311.694C303.238 315.205 336.605 287.975 340.034 250.874L349.437 149.195L212.023 136.496L202.626 238.175C199.197 275.277 227.263 308.184 265.25 311.694Z" stroke="#231815" stroke-width="6" stroke-miterlimit="10"/>
<path d="M525.601 81.744V274.484H378.788V78.4958L499.583 232.525V81.744H525.601Z" stroke="#231815" stroke-width="6" stroke-miterlimit="10"/>
<path d="M175.434 338.087L174.552 362.084L133.968 360.592L127.87 526.437L57.2937 523.842L63.3923 357.997L22.5184 356.494L23.4009 332.496L175.434 338.087Z" stroke="#231815" stroke-width="6" stroke-miterlimit="10"/>
<path d="M222.128 396.322L326.324 551.938L155.86 571.624L222.128 396.322Z" stroke="#231815" stroke-width="6" stroke-miterlimit="10"/>
<path d="M486.984 504.582C485.104 541.685 447.52 560.017 409.015 558.066C390.9 557.148 353.292 550.181 341.352 536.186L409.053 461.351C382.155 448.08 352.357 427.823 353.996 395.472C355.891 358.072 391.494 340.529 430.316 342.497C454.908 343.743 479.478 351.835 500.261 364.196C430.963 438.653 431.286 438.67 431.286 438.67C460.203 450.553 488.654 471.632 486.984 504.582Z" stroke="#231815" stroke-width="6" stroke-miterlimit="10"/>
<path d="M581.338 575.695L544.363 572.183L561.327 393.597L598.301 397.109L581.338 575.695Z" stroke="#231815" stroke-width="6" stroke-miterlimit="10"/>
<path d="M595.115 294.901C592.252 306.794 579.746 313.717 566.785 310.597C554.122 307.549 546.139 295.677 549.001 283.791C551.8 272.176 564.313 265.246 576.969 268.294C589.93 271.413 597.914 283.285 595.115 294.901ZM629.371 115.611L599.83 108.496L564.94 253.388L594.481 260.503L629.371 115.611Z" stroke="#231815" stroke-width="6" stroke-miterlimit="10"/>
<path d="M158.247 737.147C166.549 799.379 65.0632 818.958 20.2555 795.186L73.0175 711.376C-58.1673 679.157 18.6037 559.626 144.8 601.93C90.384 685.69 90.7109 685.645 90.7109 685.645C121.546 691.279 153.669 705.699 158.255 737.154L158.247 737.147Z" stroke="#231815" stroke-width="6.48235" stroke-miterlimit="10"/>
<path d="M307.905 652.496V674.131H271.741V823.664H208.848V674.131H172.42V652.496H307.905Z" stroke="#231815" stroke-width="6" stroke-miterlimit="10"/>
<path d="M445.909 614.702L503.831 798.917L325.777 766.071L445.909 614.702Z" stroke="#231815" stroke-width="6" stroke-miterlimit="10"/>
</svg>
