<svg width="23" height="74" viewBox="0 0 23 74" fill="none" xmlns="http://www.w3.org/2000/svg">
<rect x="22.25" y="0.75" width="72.5" height="21.5" rx="10.75" transform="rotate(90 22.25 0.75)" fill="white" stroke="black" stroke-width="1.5"/>
<path d="M8.3418 18.5615C8.45573 18.402 8.5778 18.3581 8.70801 18.4297L9.16211 18.6787C9.32487 18.7666 9.3444 18.9033 9.2207 19.0889C9.09701 19.2744 9.00586 19.4925 8.94727 19.7432C8.88867 19.9971 8.85937 20.2282 8.85937 20.4365C8.85937 20.583 8.87402 20.7197 8.90332 20.8467C8.93262 20.9736 8.98958 21.0811 9.07422 21.1689C9.15885 21.2568 9.28255 21.3008 9.44531 21.3008C9.54297 21.3008 9.62598 21.2747 9.69434 21.2227C9.7627 21.1706 9.81478 21.1038 9.85059 21.0225C9.88639 20.9411 9.91569 20.8548 9.93848 20.7637C9.96777 20.6432 10.0166 20.4691 10.085 20.2412C10.1533 20.0166 10.2331 19.8001 10.3242 19.5918C10.3991 19.4193 10.5033 19.25 10.6367 19.084C10.7734 18.9212 10.9248 18.8008 11.0908 18.7227C11.2568 18.6478 11.4619 18.6104 11.7061 18.6104C12.0348 18.6104 12.3229 18.7048 12.5703 18.8936C12.8177 19.0856 12.9886 19.333 13.083 19.6357C13.1774 19.9385 13.2246 20.3161 13.2246 20.7686C13.2246 21.0745 13.1807 21.3724 13.0928 21.6621C13.0049 21.9518 12.9219 22.1585 12.8437 22.2822C12.7201 22.4775 12.5882 22.5264 12.4482 22.4287L12.0137 22.1309C11.8835 22.0397 11.8737 21.8932 11.9844 21.6914C12.069 21.5384 12.1374 21.387 12.1895 21.2373C12.2415 21.0908 12.2676 20.9264 12.2676 20.7441C12.2676 20.6204 12.2546 20.5016 12.2285 20.3877C12.2025 20.2738 12.1536 20.1761 12.082 20.0947C12.0104 20.0166 11.916 19.9775 11.7988 19.9775C11.6751 19.9775 11.5775 20.0133 11.5059 20.085C11.4375 20.1598 11.387 20.2445 11.3545 20.3389C11.3219 20.4365 11.291 20.5293 11.2617 20.6172C11.2031 20.7995 11.1462 20.9834 11.0908 21.1689C11.0387 21.3545 10.9753 21.5433 10.9004 21.7354C10.8353 21.9014 10.7425 22.0625 10.6221 22.2187C10.5016 22.375 10.3486 22.4889 10.1631 22.5605C9.97754 22.6322 9.76595 22.668 9.52832 22.668C9.21256 22.668 8.9196 22.5736 8.64941 22.3848C8.37923 22.196 8.18717 21.9469 8.07324 21.6377C7.95931 21.3284 7.90234 20.9687 7.90234 20.5586C7.90234 20.0996 7.9349 19.709 8 19.3867C8.0651 19.0645 8.17904 18.7894 8.3418 18.5615ZM10.5635 24.4027C11.3936 24.4027 12.0446 24.6111 12.5166 25.0277C12.9886 25.4444 13.2246 26.084 13.2246 26.9467C13.2246 27.4512 13.1579 27.8435 13.0244 28.1234C12.891 28.4034 12.6956 28.628 12.4385 28.7973C12.2855 28.8982 12.165 28.8819 12.0771 28.7484L11.7354 28.2309C11.6377 28.0844 11.6751 27.9558 11.8477 27.8451C11.9323 27.7898 12.0234 27.684 12.1211 27.5277C12.2187 27.3715 12.2676 27.1778 12.2676 26.9467C12.2676 26.5788 12.1374 26.3038 11.877 26.1215C11.6198 25.9392 11.182 25.848 10.5635 25.848C9.94499 25.848 9.50553 25.9392 9.24512 26.1215C8.98796 26.3038 8.85937 26.5788 8.85937 26.9467C8.85937 27.2104 8.91471 27.4236 9.02539 27.5863C9.13607 27.7491 9.2793 27.9021 9.45508 28.0453C9.60482 28.169 9.62598 28.2992 9.51855 28.4359L9.16211 28.89C9.05469 29.0268 8.91146 29.0349 8.73242 28.9145C8.54362 28.7875 8.35807 28.571 8.17578 28.265C7.99349 27.9623 7.90234 27.5229 7.90234 26.9467C7.90234 26.084 8.13835 25.4444 8.61035 25.0277C9.08236 24.6111 9.7334 24.4027 10.5635 24.4027ZM8 31.3719C8 31.1766 8.09766 31.0789 8.29297 31.0789L12.834 31.0789C13.0293 31.0789 13.127 31.1766 13.127 31.3719L13.127 32.1434C13.127 32.3387 13.0293 32.4363 12.834 32.4363L12.4336 32.4363L12.4336 32.4559C12.6419 32.5405 12.8258 32.6821 12.9854 32.8807C13.1449 33.0792 13.2246 33.3136 13.2246 33.5838C13.2246 33.7693 13.2018 33.9223 13.1562 34.0428C13.1139 34.1567 13.0358 34.2007 12.9219 34.1746L12.3408 34.0379C12.2106 34.0086 12.1715 33.9207 12.2236 33.7742C12.2529 33.6896 12.2676 33.6082 12.2676 33.5301C12.2676 33.2176 12.0804 32.9588 11.7061 32.7537C11.3317 32.5486 10.7865 32.4461 10.0703 32.4461L8.29297 32.4461C8.09766 32.4461 8 32.3484 8 32.1531L8 31.3719ZM10.5635 35.7434C11.3936 35.7434 12.0446 35.9566 12.5166 36.383C12.9886 36.8127 13.2246 37.4507 13.2246 38.2971C13.2246 39.1434 12.9886 39.7798 12.5166 40.2062C12.0446 40.6359 11.3936 40.8508 10.5635 40.8508C9.7334 40.8508 9.08236 40.6359 8.61035 40.2062C8.13835 39.7798 7.90234 39.1434 7.90234 38.2971C7.90234 37.4507 8.13835 36.8127 8.61035 36.383C9.08236 35.9566 9.7334 35.7434 10.5635 35.7434ZM10.5635 37.1887C9.94499 37.1887 9.50553 37.2831 9.24512 37.4719C8.98795 37.6639 8.85937 37.939 8.85937 38.2971C8.85937 38.6551 8.98795 38.9286 9.24512 39.1174C9.50553 39.3094 9.94499 39.4055 10.5635 39.4055C11.182 39.4055 11.6198 39.3094 11.877 39.1174C12.1374 38.9286 12.2676 38.6551 12.2676 38.2971C12.2676 37.939 12.1374 37.6639 11.877 37.4719C11.6198 37.2831 11.182 37.1887 10.5635 37.1887ZM8 43.2984C8 43.1031 8.09766 43.0055 8.29297 43.0055L14.0596 43.0055C14.2061 43.0055 14.3395 43.0396 14.46 43.108L15.1191 43.484C15.2428 43.5556 15.3047 43.6402 15.3047 43.7379L15.3047 44.0797C15.3047 44.275 15.207 44.3727 15.0117 44.3727L8.29297 44.3727C8.09766 44.3727 8 44.275 8 44.0797L8 43.2984ZM8 47.0937C8 46.8984 8.09765 46.8008 8.29297 46.8008L14.0596 46.8008C14.2061 46.8008 14.3395 46.835 14.46 46.9033L15.1191 47.2793C15.2428 47.3509 15.3047 47.4355 15.3047 47.5332L15.3047 47.875C15.3047 48.0703 15.207 48.168 15.0117 48.168L8.29297 48.168C8.09765 48.168 8 48.0703 8 47.875L8 47.0937ZM10.1 56.302C10.2733 56.3687 10.4333 56.442 10.58 56.522C10.7333 56.602 10.8767 56.692 11.01 56.792L11.01 51.432L11.83 51.432L11.83 56.792C11.9633 56.6987 12.1033 56.612 12.25 56.532C12.4033 56.452 12.5667 56.3787 12.74 56.312L12.74 57.072C12.2533 57.4854 11.8833 57.9387 11.63 58.432L11.2 58.432C10.96 57.9387 10.5933 57.4854 10.1 57.072L10.1 56.302Z" fill="black"/>
</svg>
