<svg width="232" height="44" viewBox="0 0 232 44" fill="none" xmlns="http://www.w3.org/2000/svg">
<rect x="1" y="1" width="230" height="42" rx="21" fill="#FFE553" stroke="black" stroke-width="2"/>
<path d="M45.7467 16.4711H54.28V18.4977H44.7511L45.7467 16.4711ZM48.0933 20.3822H53.8178V22.32H48.0933V20.3822ZM48.0756 24.3111H54.0489V26.3022H48.0756V24.3111ZM47.0089 17.1466H49.1956V30.2666H47.0089V17.1466ZM46.1556 13.7333L48.2178 14.2844C47.2222 17.1644 45.6222 20.1155 43.9867 21.9644C43.6489 21.5733 42.8311 20.8088 42.3689 20.4711C43.9333 18.8711 45.3378 16.3111 46.1556 13.7333ZM41.4622 13.6444L43.5244 14.3022C42.3689 17.3244 40.5022 20.5777 38.5467 22.6044C38.3511 22.0711 37.7467 20.8622 37.3733 20.3288C39.0089 18.7111 40.5556 16.1866 41.4622 13.6444ZM39.6667 18.5511L41.8 16.4L41.8178 16.4177V30.2488H39.6667V18.5511ZM60.52 16.3111V18.7111H66.7778V16.3111H60.52ZM58.4578 14.2844H68.9644V20.7377H58.4578V14.2844ZM56.0222 22.2311H62.8133V30.16H60.68V24.2577H58.0311V30.2666H56.0222V22.2311ZM64.3244 22.2311H71.3644V30.1777H69.2133V24.2577H66.3689V30.2666H64.3244V22.2311ZM56.9111 27.3333H61.5689V29.3777H56.9111V27.3333ZM65.3022 27.3333H70.28V29.3777H65.3022V27.3333ZM73.2311 20.5777H89.6933V22.9066H73.2311V20.5777ZM95.5778 23.8311V24.4177H102.76V23.8311H95.5778ZM95.5778 25.4666V26.0711H102.76V25.4666H95.5778ZM95.5778 22.2133V22.7822H102.76V22.2133H95.5778ZM93.5689 21.0933H104.876V27.1911H93.5689V21.0933ZM99.9511 26.6044H102.049V27.9555C102.049 28.4 102.173 28.4355 102.884 28.4355C103.222 28.4355 104.591 28.4355 105.018 28.4355C105.587 28.4355 105.693 28.24 105.782 26.9955C106.173 27.2622 107.009 27.5466 107.542 27.6533C107.347 29.5911 106.796 30.1066 105.213 30.1066C104.769 30.1066 103.044 30.1066 102.618 30.1066C100.484 30.1066 99.9511 29.5911 99.9511 27.9733V26.6044ZM96.04 26.7644H98.12C97.6933 28.8444 96.4489 29.84 91.7911 30.3022C91.6667 29.8222 91.2222 29.0755 90.8844 28.6844C94.8489 28.4533 95.6844 27.9733 96.04 26.7644ZM100.947 18.5333H106.884V20.1511H100.947V18.5333ZM101.089 15.2977H107.329V16.9333H101.089V15.2977ZM101.018 13.5555L102.92 13.9822C102.404 15.8133 101.498 17.68 100.52 18.8355C100.164 18.5333 99.3467 17.9822 98.8844 17.7511C99.8267 16.7377 100.609 15.1377 101.018 13.5555ZM94.9733 14.7111H96.68V16.3822H94.9733V14.7111ZM94.9733 18.0711H96.68V19.7777H94.9733V18.0711ZM92.8756 15.9022H98.9733V18.8H92.8756V17.6622H97.1244V17.04H92.8756V15.9022ZM99.2222 14.16V15.3333H93.7289V19.44H99.5067V20.6311H91.8089V14.16H99.2222ZM108.769 23.3866C109.302 22.96 109.729 22.5511 110.262 22C111.098 21.1466 112.449 19.3155 113.569 18.0355C114.813 16.6133 115.951 16.4888 117.249 17.7511C118.476 18.9244 119.88 20.7555 120.929 21.9111C122.067 23.1555 123.596 24.7377 125.284 26.2488L123.436 28.3822C122.173 27.1733 120.662 25.4666 119.524 24.1333C118.422 22.8355 117.089 21.1288 116.271 20.1866C115.631 19.5111 115.293 19.6 114.778 20.24C114.067 21.1466 112.822 22.9066 112.058 23.92C111.649 24.4888 111.24 25.1288 110.92 25.5911L108.769 23.3866Z" fill="black"/>
<path d="M139.425 31.9511C138.097 31.9511 136.931 31.7046 135.926 31.2115C134.94 30.6995 134.172 29.9884 133.622 29.0782C133.091 28.149 132.826 27.0586 132.826 25.8071V16.7617C132.826 15.4912 133.091 14.4008 133.622 13.4906C134.172 12.5804 134.94 11.8788 135.926 11.3857C136.931 10.8737 138.097 10.6177 139.425 10.6177C140.771 10.6177 141.928 10.8737 142.895 11.3857C143.881 11.8788 144.649 12.5804 145.199 13.4906C145.749 14.4008 146.024 15.4912 146.024 16.7617H142.44C142.44 15.7757 142.175 15.0266 141.644 14.5146C141.132 14.0026 140.392 13.7466 139.425 13.7466C138.458 13.7466 137.709 14.0026 137.178 14.5146C136.647 15.0266 136.381 15.7662 136.381 16.7333V25.8071C136.381 26.7742 136.647 27.5232 137.178 28.0542C137.709 28.5851 138.458 28.8506 139.425 28.8506C140.392 28.8506 141.132 28.5851 141.644 28.0542C142.175 27.5232 142.44 26.7742 142.44 25.8071V23.7022H138.913V20.6302H146.024V25.8071C146.024 27.0586 145.749 28.149 145.199 29.0782C144.649 29.9884 143.881 30.6995 142.895 31.2115C141.928 31.7046 140.771 31.9511 139.425 31.9511ZM156.367 31.9511C155.039 31.9511 153.883 31.7046 152.896 31.2115C151.929 30.6995 151.18 29.9884 150.649 29.0782C150.137 28.149 149.881 27.0586 149.881 25.8071V16.7617C149.881 15.5102 150.137 14.4293 150.649 13.5191C151.18 12.5899 151.929 11.8788 152.896 11.3857C153.883 10.8737 155.039 10.6177 156.367 10.6177C157.713 10.6177 158.87 10.8737 159.837 11.3857C160.804 11.8788 161.544 12.5899 162.056 13.5191C162.587 14.4293 162.852 15.5007 162.852 16.7333V25.8071C162.852 27.0586 162.587 28.149 162.056 29.0782C161.544 29.9884 160.804 30.6995 159.837 31.2115C158.87 31.7046 157.713 31.9511 156.367 31.9511ZM156.367 28.8222C157.334 28.8222 158.064 28.5662 158.557 28.0542C159.05 27.5232 159.296 26.7742 159.296 25.8071V16.7617C159.296 15.7757 159.05 15.0266 158.557 14.5146C158.064 14.0026 157.334 13.7466 156.367 13.7466C155.4 13.7466 154.669 14.0026 154.176 14.5146C153.683 15.0266 153.437 15.7757 153.437 16.7617V25.8071C153.437 26.7742 153.683 27.5232 154.176 28.0542C154.688 28.5662 155.419 28.8222 156.367 28.8222ZM172.114 25.0391L171.488 14.8275V10.9022H175.356V14.8275L174.731 25.0391H172.114ZM172.996 31.8088C172.408 31.8088 171.934 31.6382 171.573 31.2968C171.213 30.9366 171.033 30.4814 171.033 29.9315C171.033 29.3816 171.213 28.936 171.573 28.5946C171.934 28.2343 172.408 28.0542 172.996 28.0542H173.849C174.456 28.0542 174.93 28.2248 175.271 28.5662C175.631 28.9075 175.812 29.3626 175.812 29.9315C175.812 30.4814 175.631 30.9366 175.271 31.2968C174.911 31.6382 174.427 31.8088 173.82 31.8088H172.996ZM188.572 30.6711L193.18 24.84C193.37 24.5934 193.588 24.3564 193.834 24.1288C194.081 23.8823 194.289 23.6927 194.46 23.56V23.304C194.213 23.3229 193.901 23.3514 193.521 23.3893C193.142 23.4083 192.791 23.4177 192.469 23.4177H183.082V21.1422H192.469C192.791 21.1422 193.142 21.1611 193.521 21.1991C193.901 21.218 194.213 21.2465 194.46 21.2844V21.0284C194.327 20.9146 194.138 20.7345 193.891 20.488C193.664 20.2414 193.427 19.976 193.18 19.6915L188.572 13.8888H191.559L198.158 22.28L191.587 30.6711H188.572Z" fill="black"/>
</svg>
