<svg width="248" height="44" viewBox="0 0 248 44" fill="none" xmlns="http://www.w3.org/2000/svg">
<rect x="1" y="1" width="246" height="41.5556" rx="20.7778" fill="#FFE553" stroke="black" stroke-width="2"/>
<path d="M48.2667 14.2309H50.2578V16.0976C50.2578 17.8221 49.7956 19.9021 47.68 21.1998C47.4311 20.7909 46.6667 19.9376 46.2756 19.6532C48.0356 18.6221 48.2667 17.2354 48.2667 16.0443V14.2309ZM49.2622 14.2309H53.5644V16.2043H49.2622V14.2309ZM52.5511 14.2309H54.5778V18.1065C54.5778 18.5865 54.6311 18.6398 54.8444 18.6398C54.9333 18.6398 55.2533 18.6398 55.36 18.6398C55.6089 18.6398 55.6622 18.3909 55.6978 16.8443C56.0889 17.1643 56.9244 17.4665 57.4578 17.6087C57.28 19.7954 56.8 20.3998 55.5911 20.3998C55.2711 20.3998 54.7378 20.3998 54.4533 20.3998C52.9778 20.3998 52.5511 19.8843 52.5511 18.1243V14.2309ZM47.3067 21.1998H54.7022V23.1198H47.3067V21.1998ZM54.0444 21.1998H54.4533L54.8444 21.1287L56.2311 21.6621C54.8622 26.6221 51.4133 29.1109 46.7911 30.2843C46.5778 29.7154 46.08 28.8087 45.6889 28.3465C49.8489 27.5287 52.9956 25.3065 54.0444 21.5198V21.1998ZM49.6711 22.9954C50.9689 25.6976 53.6711 27.5821 57.4756 28.3287C57.0133 28.7732 56.3911 29.6798 56.0889 30.2487C52.0356 29.2887 49.3689 27.0132 47.7511 23.5821L49.6711 22.9954ZM40.3733 22.7109C41.8844 22.4087 44.2311 21.8221 46.4889 21.2709L46.72 23.1198C44.7289 23.7598 42.6489 24.4354 40.9778 24.9332L40.3733 22.7109ZM40.6578 16.8798H46.7911V18.8532H40.6578V16.8798ZM42.9156 13.5732H45.0133V27.9732C45.0133 29.0043 44.8178 29.5376 44.2133 29.8576C43.6267 30.1776 42.7733 30.2487 41.5111 30.2309C41.44 29.6976 41.1733 28.8265 40.9244 28.2932C41.6 28.3109 42.3467 28.3109 42.5778 28.3109C42.8089 28.2932 42.9156 28.2221 42.9156 27.9732V13.5732ZM68.9244 27.1732L70.4889 26.1065C71.84 26.8354 73.6533 27.9554 74.5956 28.7909L72.9067 29.9821C72.0889 29.1821 70.3111 27.9732 68.9244 27.1732ZM60.7289 21.8754H72.6044V23.4932H60.7289V21.8754ZM58.6133 24.2398H74.7378V25.9287H58.6133V24.2398ZM58.8622 14.1598H74.3822V15.8309H58.8622V14.1598ZM65.5822 24.5421H67.7511V28.2398C67.7511 29.1821 67.5911 29.6798 66.8978 29.9643C66.2222 30.2665 65.3689 30.2843 64.1956 30.2843C64.1067 29.7154 63.8044 28.9154 63.5556 28.3998C64.2489 28.4354 65.0489 28.4354 65.28 28.4176C65.5289 28.4176 65.5822 28.3643 65.5822 28.1687V24.5421ZM62.1511 26.0709L64.1067 26.7465C63.0933 28.0621 61.4756 29.3776 60.0889 30.1776C59.7333 29.8043 58.9511 29.0932 58.4889 28.7732C59.8756 28.1332 61.3156 27.1021 62.1511 26.0709ZM61.8844 18.3021V19.6176H71.3422V18.3021H61.8844ZM59.9111 16.7732H73.4578V21.1643H59.9111V16.7732ZM63.6622 14.7998H65.6178V20.5421H63.6622V14.7998ZM67.4844 14.7998H69.4756V20.5421H67.4844V14.7998ZM88.3911 17.7865C88.3911 18.4087 88.9067 18.9243 89.5289 18.9243C90.1511 18.9243 90.6489 18.4087 90.6489 17.7865C90.6489 17.1643 90.1511 16.6665 89.5289 16.6665C88.9067 16.6665 88.3911 17.1643 88.3911 17.7865ZM87.2178 17.7865C87.2178 16.5065 88.2489 15.4754 89.5289 15.4754C90.8089 15.4754 91.84 16.5065 91.84 17.7865C91.84 19.0665 90.8089 20.0976 89.5289 20.0976C88.2489 20.0976 87.2178 19.0665 87.2178 17.7865ZM76.1778 23.6176C76.6933 23.1732 77.0844 22.7998 77.6356 22.2487C78.4356 21.4487 79.8222 19.7065 81.0489 18.2487C82.1156 16.9865 83.1644 16.7909 84.5333 18.0887C85.7422 19.2265 87.0933 20.6309 88.16 21.7865C89.3511 23.0665 91.1822 25.0221 92.5511 26.4798L90.5778 28.5954C89.3867 27.1198 87.8933 25.2709 86.8444 24.0443C85.7956 22.8176 84.2311 21.0932 83.5911 20.4354C83.0044 19.8665 82.6311 19.9021 82.1333 20.5421C81.4222 21.4487 80.1778 23.1909 79.4489 24.1687C79.04 24.7198 78.6311 25.3598 78.3111 25.8221L76.1778 23.6176ZM94.9511 20.4354C95.6089 20.4887 96.8889 20.5598 97.8133 20.5598C99.9111 20.5598 105.778 20.5598 107.36 20.5598C108.196 20.5598 108.978 20.4709 109.458 20.4354V23.2443C109.031 23.2265 108.124 23.1376 107.378 23.1376C105.76 23.1376 99.9111 23.1376 97.8133 23.1376C96.8178 23.1376 95.6267 23.1909 94.9511 23.2443V20.4354ZM123.724 15.0309C124.222 15.7776 124.951 16.9509 125.342 17.7687L123.813 18.4443C123.279 17.3243 122.888 16.5598 122.231 15.6354L123.724 15.0309ZM126.177 14.1598C126.728 14.8709 127.422 16.0443 127.848 16.8265L126.319 17.5021C125.751 16.3821 125.324 15.6887 124.666 14.7998L126.177 14.1598ZM116.008 14.6754C117.182 15.3154 119.137 16.5776 120.062 17.2176L118.728 19.1909C117.751 18.4976 115.884 17.2887 114.711 16.6309L116.008 14.6754ZM112.719 27.2976C114.693 26.9598 116.826 26.3732 118.764 25.3065C121.786 23.6176 124.257 21.1821 125.679 18.6398L127.048 21.0576C125.395 23.5109 122.888 25.7687 119.973 27.4398C118.177 28.4709 115.617 29.3598 114.053 29.6443L112.719 27.2976ZM113.271 18.7287C114.462 19.3687 116.417 20.5954 117.324 21.2354L116.026 23.2265C115.013 22.5332 113.182 21.3243 111.973 20.7021L113.271 18.7287ZM129.199 23.3865C129.733 22.9598 130.159 22.5509 130.693 21.9998C131.528 21.1465 132.879 19.3154 133.999 18.0354C135.244 16.6132 136.382 16.4887 137.679 17.7509C138.906 18.9243 140.311 20.7554 141.359 21.9109C142.497 23.1554 144.026 24.7376 145.715 26.2487L143.866 28.3821C142.604 27.1732 141.093 25.4665 139.955 24.1332C138.853 22.8354 137.519 21.1287 136.702 20.1865C136.062 19.5109 135.724 19.5998 135.208 20.2398C134.497 21.1465 133.253 22.9065 132.488 23.9198C132.079 24.4887 131.671 25.1287 131.351 25.5909L129.199 23.3865Z" fill="black"/>
<path d="M162.425 31.9509C161.098 31.9509 159.931 31.7044 158.926 31.2114C157.94 30.6994 157.172 29.9883 156.622 29.0781C156.091 28.1489 155.826 27.0585 155.826 25.8069V16.7616C155.826 15.4911 156.091 14.4007 156.622 13.4905C157.172 12.5803 157.94 11.8787 158.926 11.3856C159.931 10.8736 161.098 10.6176 162.425 10.6176C163.771 10.6176 164.928 10.8736 165.895 11.3856C166.881 11.8787 167.649 12.5803 168.199 13.4905C168.749 14.4007 169.024 15.4911 169.024 16.7616H165.44C165.44 15.7755 165.175 15.0265 164.644 14.5145C164.132 14.0025 163.392 13.7465 162.425 13.7465C161.458 13.7465 160.709 14.0025 160.178 14.5145C159.647 15.0265 159.381 15.7661 159.381 16.7332V25.8069C159.381 26.7741 159.647 27.5231 160.178 28.0541C160.709 28.585 161.458 28.8505 162.425 28.8505C163.392 28.8505 164.132 28.585 164.644 28.0541C165.175 27.5231 165.44 26.7741 165.44 25.8069V23.7021H161.913V20.6301H169.024V25.8069C169.024 27.0585 168.749 28.1489 168.199 29.0781C167.649 29.9883 166.881 30.6994 165.895 31.2114C164.928 31.7044 163.771 31.9509 162.425 31.9509ZM179.367 31.9509C178.039 31.9509 176.883 31.7044 175.896 31.2114C174.929 30.6994 174.18 29.9883 173.649 29.0781C173.137 28.1489 172.881 27.0585 172.881 25.8069V16.7616C172.881 15.5101 173.137 14.4292 173.649 13.5189C174.18 12.5898 174.929 11.8787 175.896 11.3856C176.883 10.8736 178.039 10.6176 179.367 10.6176C180.713 10.6176 181.87 10.8736 182.837 11.3856C183.804 11.8787 184.544 12.5898 185.056 13.5189C185.587 14.4292 185.852 15.5006 185.852 16.7332V25.8069C185.852 27.0585 185.587 28.1489 185.056 29.0781C184.544 29.9883 183.804 30.6994 182.837 31.2114C181.87 31.7044 180.713 31.9509 179.367 31.9509ZM179.367 28.8221C180.334 28.8221 181.064 28.5661 181.557 28.0541C182.05 27.5231 182.296 26.7741 182.296 25.8069V16.7616C182.296 15.7755 182.05 15.0265 181.557 14.5145C181.064 14.0025 180.334 13.7465 179.367 13.7465C178.4 13.7465 177.67 14.0025 177.176 14.5145C176.683 15.0265 176.437 15.7755 176.437 16.7616V25.8069C176.437 26.7741 176.683 27.5231 177.176 28.0541C177.688 28.5661 178.419 28.8221 179.367 28.8221ZM195.114 25.0389L194.488 14.8274V10.9021H198.356V14.8274L197.731 25.0389H195.114ZM195.996 31.8087C195.408 31.8087 194.934 31.6381 194.573 31.2967C194.213 30.9364 194.033 30.4813 194.033 29.9314C194.033 29.3815 194.213 28.9358 194.573 28.5945C194.934 28.2342 195.408 28.0541 195.996 28.0541H196.849C197.456 28.0541 197.93 28.2247 198.271 28.5661C198.631 28.9074 198.812 29.3625 198.812 29.9314C198.812 30.4813 198.631 30.9364 198.271 31.2967C197.911 31.6381 197.427 31.8087 196.82 31.8087H195.996ZM211.572 30.6709L216.18 24.8398C216.37 24.5933 216.588 24.3563 216.834 24.1287C217.081 23.8822 217.289 23.6926 217.46 23.5598V23.3038C217.214 23.3228 216.901 23.3512 216.521 23.3892C216.142 23.4081 215.791 23.4176 215.469 23.4176H206.082V21.1421H215.469C215.791 21.1421 216.142 21.161 216.521 21.1989C216.901 21.2179 217.214 21.2464 217.46 21.2843V21.0283C217.327 20.9145 217.138 20.7344 216.891 20.4878C216.664 20.2413 216.427 19.9758 216.18 19.6914L211.572 13.8887H214.559L221.158 22.2798L214.587 30.6709H211.572Z" fill="black"/>
</svg>
